<svg width="16" height="16" viewBox="0 0 16 16" fill="none" xmlns="http://www.w3.org/2000/svg">
<path d="M1.125 15.5438C0.825 15.5438 0.5625 15.4313 0.3375 15.2063C0.1125 14.9813 0 14.7188 0 14.4188V3.16878C0 2.86878 0.1125 2.60628 0.3375 2.38128C0.5625 2.15628 0.825 2.04378 1.125 2.04378H8.71875L7.59375 3.16878H1.125V14.4188H12.375V7.89378L13.5 6.76878V14.4188C13.5 14.7188 13.3875 14.9813 13.1625 15.2063C12.9375 15.4313 12.675 15.5438 12.375 15.5438H1.125ZM10.1625 2.19378L10.9688 2.98128L5.625 8.30628V9.91878H7.21875L12.5813 4.55628L13.3688 5.34378L8.025 10.7063C7.925 10.8063 7.80313 10.8875 7.65938 10.95C7.51563 11.0125 7.36875 11.0438 7.21875 11.0438H5.0625C4.9 11.0438 4.76562 10.9907 4.65938 10.8844C4.55312 10.7782 4.5 10.6438 4.5 10.4813V8.32503C4.5 8.17503 4.53125 8.02816 4.59375 7.88441C4.65625 7.74066 4.7375 7.61878 4.8375 7.51878L10.1625 2.19378ZM13.3688 5.34378L10.1625 2.19378L12.0375 0.318781C12.25 0.106281 12.5156 3.05176e-05 12.8344 3.05176e-05C13.1531 3.05176e-05 13.4188 0.112531 13.6313 0.337531L15.2063 1.93128C15.4188 2.15628 15.525 2.42191 15.525 2.72816C15.525 3.03441 15.4125 3.29378 15.1875 3.50628L13.3688 5.34378Z" fill="white"/>
</svg>
