<svg width="17" height="16" viewBox="0 0 17 16" fill="none" xmlns="http://www.w3.org/2000/svg">
<path d="M8.5 7.97501C7.4 7.97501 6.5 7.62501 5.8 6.92501C5.1 6.22501 4.75 5.32501 4.75 4.22501C4.75 3.12501 5.1 2.22501 5.8 1.52501C6.5 0.825006 7.4 0.475006 8.5 0.475006C9.6 0.475006 10.5 0.825006 11.2 1.52501C11.9 2.22501 12.25 3.12501 12.25 4.22501C12.25 5.32501 11.9 6.22501 11.2 6.92501C10.5 7.62501 9.6 7.97501 8.5 7.97501ZM15 16H2C1.58333 16 1.22917 15.8542 0.9375 15.5625C0.645833 15.2708 0.5 14.9167 0.5 14.5V13.65C0.5 13.0167 0.658333 12.475 0.975 12.025C1.29167 11.575 1.7 11.2333 2.2 11C3.31667 10.5 4.3875 10.125 5.4125 9.87501C6.4375 9.62501 7.46667 9.50001 8.5 9.50001C9.53333 9.50001 10.5583 9.62917 11.575 9.88751C12.5917 10.1458 13.6583 10.5167 14.775 11C15.2917 11.2333 15.7083 11.575 16.025 12.025C16.3417 12.475 16.5 13.0167 16.5 13.65V14.5C16.5 14.9167 16.3542 15.2708 16.0625 15.5625C15.7708 15.8542 15.4167 16 15 16ZM2 14.5H15V13.65C15 13.3833 14.9208 13.1292 14.7625 12.8875C14.6042 12.6458 14.4083 12.4667 14.175 12.35C13.1083 11.8333 12.1333 11.4792 11.25 11.2875C10.3667 11.0958 9.45 11 8.5 11C7.55 11 6.625 11.0958 5.725 11.2875C4.825 11.4792 3.85 11.8333 2.8 12.35C2.56667 12.4667 2.375 12.6458 2.225 12.8875C2.075 13.1292 2 13.3833 2 13.65V14.5ZM8.5 6.47501C9.15 6.47501 9.6875 6.26251 10.1125 5.83751C10.5375 5.41251 10.75 4.87501 10.75 4.22501C10.75 3.57501 10.5375 3.03751 10.1125 2.61251C9.6875 2.18751 9.15 1.97501 8.5 1.97501C7.85 1.97501 7.3125 2.18751 6.8875 2.61251C6.4625 3.03751 6.25 3.57501 6.25 4.22501C6.25 4.87501 6.4625 5.41251 6.8875 5.83751C7.3125 6.26251 7.85 6.47501 8.5 6.47501Z" fill="#130463"/>
</svg>
