<svg width="20" height="20" viewBox="0 0 20 20" fill="none" xmlns="http://www.w3.org/2000/svg">
<path d="M2.25 8.875C1.61667 8.875 1.08333 8.65833 0.65 8.225C0.216667 7.79167 0 7.25833 0 6.625C0 5.99167 0.216667 5.45833 0.65 5.025C1.08333 4.59167 1.61667 4.375 2.25 4.375C2.88333 4.375 3.41667 4.59167 3.85 5.025C4.28333 5.45833 4.5 5.99167 4.5 6.625C4.5 7.25833 4.28333 7.79167 3.85 8.225C3.41667 8.65833 2.88333 8.875 2.25 8.875ZM6.875 4.625C6.24167 4.625 5.70833 4.40833 5.275 3.975C4.84167 3.54167 4.625 3.00833 4.625 2.375C4.625 1.74167 4.84167 1.20833 5.275 0.775C5.70833 0.341667 6.24167 0.125 6.875 0.125C7.50833 0.125 8.04167 0.341667 8.475 0.775C8.90833 1.20833 9.125 1.74167 9.125 2.375C9.125 3.00833 8.90833 3.54167 8.475 3.975C8.04167 4.40833 7.50833 4.625 6.875 4.625ZM13.125 4.625C12.4917 4.625 11.9583 4.40833 11.525 3.975C11.0917 3.54167 10.875 3.00833 10.875 2.375C10.875 1.74167 11.0917 1.20833 11.525 0.775C11.9583 0.341667 12.4917 0.125 13.125 0.125C13.7583 0.125 14.2917 0.341667 14.725 0.775C15.1583 1.20833 15.375 1.74167 15.375 2.375C15.375 3.00833 15.1583 3.54167 14.725 3.975C14.2917 4.40833 13.7583 4.625 13.125 4.625ZM17.75 8.875C17.1167 8.875 16.5833 8.65833 16.15 8.225C15.7167 7.79167 15.5 7.25833 15.5 6.625C15.5 5.99167 15.7167 5.45833 16.15 5.025C16.5833 4.59167 17.1167 4.375 17.75 4.375C18.3833 4.375 18.9167 4.59167 19.35 5.025C19.7833 5.45833 20 5.99167 20 6.625C20 7.25833 19.7833 7.79167 19.35 8.225C18.9167 8.65833 18.3833 8.875 17.75 8.875ZM4.65 19.125C3.95 19.125 3.375 18.8625 2.925 18.3375C2.475 17.8125 2.25 17.1917 2.25 16.475C2.25 15.775 2.4625 15.1542 2.8875 14.6125C3.3125 14.0708 3.76667 13.55 4.25 13.05C4.61667 12.6833 4.95833 12.2958 5.275 11.8875C5.59167 11.4792 5.89167 11.0583 6.175 10.625C6.65833 9.89167 7.2 9.20833 7.8 8.575C8.4 7.94167 9.13333 7.625 10 7.625C10.8667 7.625 11.6042 7.94167 12.2125 8.575C12.8208 9.20833 13.3667 9.9 13.85 10.65C14.1333 11.0833 14.4292 11.5 14.7375 11.9C15.0458 12.3 15.3833 12.6833 15.75 13.05C16.2333 13.55 16.6875 14.0708 17.1125 14.6125C17.5375 15.1542 17.75 15.775 17.75 16.475C17.75 17.1917 17.525 17.8125 17.075 18.3375C16.625 18.8625 16.05 19.125 15.35 19.125C14.45 19.125 13.5583 19.05 12.675 18.9C11.7917 18.75 10.9 18.675 10 18.675C9.1 18.675 8.20833 18.75 7.325 18.9C6.44167 19.05 5.55 19.125 4.65 19.125Z" fill="#00639B"/>
</svg>
