<svg width="6" height="10" viewBox="0 0 6 10" fill="none" xmlns="http://www.w3.org/2000/svg">
<path d="M4.10586 9.0875L0.393359 5.375C0.330859 5.3125 0.287109 5.25 0.262109 5.1875C0.237109 5.125 0.224609 5.05625 0.224609 4.98125C0.224609 4.90625 0.237109 4.8375 0.262109 4.775C0.287109 4.7125 0.330859 4.65 0.393359 4.5875L4.12461 0.85625C4.23711 0.74375 4.37148 0.6875 4.52773 0.6875C4.68398 0.6875 4.81836 0.74375 4.93086 0.85625C5.04336 0.96875 5.09648 1.10625 5.09023 1.26875C5.08398 1.43125 5.02461 1.56875 4.91211 1.68125L1.61211 4.98125L4.93086 8.3C5.04336 8.4125 5.09961 8.54375 5.09961 8.69375C5.09961 8.84375 5.04336 8.975 4.93086 9.0875C4.81836 9.2 4.68086 9.25625 4.51836 9.25625C4.35586 9.25625 4.21836 9.2 4.10586 9.0875Z" fill="#5954A8"/>
</svg>
