<svg width="22" height="21" viewBox="0 0 22 21" fill="none" xmlns="http://www.w3.org/2000/svg">
<path d="M1.50013 20.475C1.20013 20.5916 0.933464 20.5333 0.70013 20.3C0.466797 20.0666 0.408464 19.8 0.52513 19.5L3.85013 10.225C4.03346 9.69164 4.39596 9.36664 4.93763 9.24998C5.4793 9.13331 5.9418 9.26664 6.32513 9.64998L11.3751 14.65C11.7751 15.0333 11.9168 15.4958 11.8001 16.0375C11.6835 16.5791 11.3585 16.9416 10.8251 17.125L1.50013 20.475ZM2.52513 18.475L10.3751 15.675L5.30013 10.575L2.52513 18.475ZM11.5001 11.45C11.3835 11.3333 11.3251 11.1916 11.3251 11.025C11.3251 10.8583 11.3835 10.7166 11.5001 10.6L17.0751 5.02498C17.6085 4.49164 18.2835 4.22081 19.1001 4.21248C19.9168 4.20414 20.5918 4.46664 21.1251 4.99998L21.1501 5.02498C21.2668 5.14164 21.3251 5.27498 21.3251 5.42498C21.3251 5.57498 21.2585 5.71664 21.1251 5.84998C21.0085 5.96664 20.8668 6.02498 20.7001 6.02498C20.5335 6.02498 20.3918 5.96664 20.2751 5.84998L20.2251 5.79998C19.9085 5.48331 19.5418 5.32081 19.1251 5.31248C18.7085 5.30414 18.3335 5.46664 18.0001 5.79998L12.3251 11.475C12.2085 11.5916 12.0751 11.65 11.9251 11.65C11.7751 11.65 11.6335 11.5833 11.5001 11.45ZM7.52513 7.57498C7.40846 7.45831 7.35013 7.31664 7.35013 7.14998C7.35013 6.98331 7.40846 6.84164 7.52513 6.72498L7.85013 6.39998C8.23346 6.01664 8.41263 5.57914 8.38763 5.08748C8.36263 4.59581 8.18346 4.18331 7.85013 3.84998L7.55013 3.54998C7.43346 3.43331 7.37513 3.29998 7.37513 3.14998C7.37513 2.99998 7.4418 2.85831 7.57513 2.72498C7.6918 2.60831 7.83346 2.54998 8.00013 2.54998C8.1668 2.54998 8.30846 2.60831 8.42513 2.72498L8.65013 2.94998C9.23346 3.53331 9.52096 4.26248 9.51263 5.13748C9.5043 6.01248 9.20846 6.74164 8.62513 7.32498L8.35013 7.59998C8.23346 7.71664 8.10013 7.77498 7.95013 7.77498C7.80013 7.77498 7.65846 7.70831 7.52513 7.57498ZM9.55013 9.49998C9.43346 9.38331 9.37513 9.24164 9.37513 9.07498C9.37513 8.90831 9.43346 8.76664 9.55013 8.64998L12.9251 5.27498C13.2418 4.95831 13.396 4.55414 13.3876 4.06248C13.3793 3.57081 13.2168 3.16664 12.9001 2.84998L11.7751 1.72498C11.6585 1.60831 11.6001 1.47498 11.6001 1.32498C11.6001 1.17498 11.6668 1.03331 11.8001 0.899976C11.9168 0.783309 12.0585 0.724976 12.2251 0.724976C12.3918 0.724976 12.5335 0.783309 12.6501 0.899976L13.8001 2.04998C14.3168 2.58331 14.5835 3.25414 14.6001 4.06248C14.6168 4.87081 14.3585 5.54164 13.8251 6.07498L10.3751 9.52498C10.2585 9.64164 10.1251 9.69998 9.97513 9.69998C9.82513 9.69998 9.68346 9.63331 9.55013 9.49998ZM13.5001 13.475C13.3835 13.3583 13.3251 13.2166 13.3251 13.05C13.3251 12.8833 13.3835 12.7416 13.5001 12.625L14.2501 11.875C14.8335 11.2916 15.5335 10.9916 16.3501 10.975C17.1668 10.9583 17.8668 11.2416 18.4501 11.825L19.3251 12.7C19.4418 12.8166 19.5001 12.95 19.5001 13.1C19.5001 13.25 19.4335 13.3916 19.3001 13.525C19.1835 13.6416 19.0418 13.7 18.8751 13.7C18.7085 13.7 18.5668 13.6416 18.4501 13.525L17.5751 12.65C17.1918 12.2666 16.7918 12.075 16.3751 12.075C15.9585 12.075 15.5585 12.2666 15.1751 12.65L14.3251 13.5C14.2085 13.6166 14.0751 13.675 13.9251 13.675C13.7751 13.675 13.6335 13.6083 13.5001 13.475Z" fill="#00639B"/>
</svg>
