<svg width="20" height="20" viewBox="0 0 20 20" fill="none" xmlns="http://www.w3.org/2000/svg">
<path d="M5.25 13.75V15.25C5.25 15.4667 5.32083 15.6458 5.4625 15.7875C5.60417 15.9292 5.78333 16 6 16C6.21667 16 6.39583 15.9292 6.5375 15.7875C6.67917 15.6458 6.75 15.4667 6.75 15.25V13.75H8.25C8.46667 13.75 8.64583 13.6792 8.7875 13.5375C8.92917 13.3958 9 13.2167 9 13C9 12.7833 8.92917 12.6042 8.7875 12.4625C8.64583 12.3208 8.46667 12.25 8.25 12.25H6.75V10.75C6.75 10.5333 6.67917 10.3542 6.5375 10.2125C6.39583 10.0708 6.21667 10 6 10C5.78333 10 5.60417 10.0708 5.4625 10.2125C5.32083 10.3542 5.25 10.5333 5.25 10.75V12.25H3.75C3.53333 12.25 3.35417 12.3208 3.2125 12.4625C3.07083 12.6042 3 12.7833 3 13C3 13.2167 3.07083 13.3958 3.2125 13.5375C3.35417 13.6792 3.53333 13.75 3.75 13.75H5.25ZM16.5 12.25C16.6333 12.25 16.75 12.2 16.85 12.1C16.95 12 17 11.8833 17 11.75C17 11.6167 16.95 11.5 16.85 11.4C16.75 11.3 16.6333 11.25 16.5 11.25H11.5C11.3667 11.25 11.25 11.3 11.15 11.4C11.05 11.5 11 11.6167 11 11.75C11 11.8833 11.05 12 11.15 12.1C11.25 12.2 11.3667 12.25 11.5 12.25H16.5ZM14.5 15.25C14.6333 15.25 14.75 15.2 14.85 15.1C14.95 15 15 14.8833 15 14.75C15 14.6167 14.95 14.5 14.85 14.4C14.75 14.3 14.6333 14.25 14.5 14.25H11.5C11.3667 14.25 11.25 14.3 11.15 14.4C11.05 14.5 11 14.6167 11 14.75C11 14.8833 11.05 15 11.15 15.1C11.25 15.2 11.3667 15.25 11.5 15.25H14.5ZM12.6 5H18.5C18.9 5 19.25 5.15 19.55 5.45C19.85 5.75 20 6.1 20 6.5V18.5C20 18.9 19.85 19.25 19.55 19.55C19.25 19.85 18.9 20 18.5 20H1.5C1.1 20 0.75 19.85 0.45 19.55C0.15 19.25 0 18.9 0 18.5V6.5C0 6.1 0.15 5.75 0.45 5.45C0.75 5.15 1.1 5 1.5 5H7.425V1.5C7.425 1.1 7.575 0.75 7.875 0.45C8.175 0.15 8.525 0 8.925 0H11.1C11.5 0 11.85 0.15 12.15 0.45C12.45 0.75 12.6 1.1 12.6 1.5V5ZM8.925 6.5H11.1V1.5H8.925V6.5ZM7.425 6.5H1.5V18.5H18.5V6.5H12.6C12.6 6.96667 12.4458 7.33333 12.1375 7.6C11.8292 7.86667 11.4417 8 10.975 8H9.025C8.575 8 8.19583 7.86667 7.8875 7.6C7.57917 7.33333 7.425 6.96667 7.425 6.5Z" fill="#00639B"/>
</svg>
