<svg width="16" height="20" viewBox="0 0 16 20" fill="none" xmlns="http://www.w3.org/2000/svg">
<path d="M8 19.5C5.78333 19.5 3.89583 18.7358 2.3375 17.2073C0.779167 15.6788 0 13.818 0 11.625C0 10.5726 0.204167 9.56621 0.6125 8.60573C1.02083 7.64523 1.6 6.79748 2.35 6.0625L8 0.5L13.65 6.0625C14.4 6.79748 14.9792 7.64523 15.3875 8.60573C15.7958 9.56621 16 10.5726 16 11.625C16 13.818 15.2208 15.6788 13.6625 17.2073C12.1042 18.7358 10.2167 19.5 8 19.5ZM7.99413 18C9.79804 18 11.3333 17.3828 12.6 16.1483C13.8667 14.9139 14.5 13.4046 14.5 11.6205C14.5 10.7735 14.3375 9.96667 14.0125 9.2C13.6875 8.43333 13.2333 7.75833 12.65 7.175L8 2.6L3.35 7.175C2.76667 7.75833 2.3125 8.4333 1.9875 9.1999C1.6625 9.96648 1.5 10.7737 1.5 11.6214C1.5 13.4071 2.13138 14.9167 3.39413 16.15C4.65686 17.3833 6.19019 18 7.99413 18Z" fill="#00639B"/>
</svg>
