<svg width="24" height="45" viewBox="0 0 24 45" fill="none" xmlns="http://www.w3.org/2000/svg">
<path d="M4.24744 31.946C4.18525 30.647 4.32517 29.3539 4.3269 28.0569C4.32863 25.9521 4.41327 23.8455 4.39081 21.7407C4.377 20.426 4.35281 19.1074 4.21635 17.7927C4.07643 16.4485 3.59793 15.3087 2.77914 14.3438C2.52003 14.0372 2.24882 13.7424 1.97071 13.4575C1.42312 12.8974 1.07764 12.2096 0.920446 11.396C0.756342 10.551 0.754615 9.70592 0.946357 8.86875C1.42312 6.79154 3.41828 5.78537 5.14051 6.68346C5.53263 6.88784 5.86775 7.19637 6.27542 7.51277C6.27715 7.11973 6.13723 6.83478 6.03185 6.54197C5.68292 5.56723 5.43763 4.57678 5.52054 3.50378C5.619 2.24999 6.09404 1.17503 7.05621 0.622814C8.1583 -0.0080119 9.42967 -0.0198032 10.5335 1.18682C11.3246 2.05151 11.7755 3.14219 12.0709 4.3272C12.1279 4.55123 12.1728 4.77919 12.2298 5.03466C12.4751 4.88138 12.4405 4.5925 12.4941 4.37633C12.7308 3.435 13.0987 2.588 13.781 1.96307C14.3752 1.42068 15.0248 1.02568 15.8211 1.03943C18.0063 1.07677 19.3968 3.27582 18.7231 5.63208C18.5435 6.25898 18.2775 6.84264 17.9924 7.55797C18.2291 7.42041 18.3863 7.3418 18.5314 7.24157C19.0237 6.90749 19.5644 6.73652 20.1275 6.67953C21.5112 6.53804 22.7307 7.54028 23.0693 9.13012C23.3647 10.5116 23.1419 11.8323 22.5701 13.0821C22.3973 13.4614 22.1693 13.7994 21.9223 14.1217C21.4075 14.7958 20.8876 15.4659 20.3815 16.1458C19.6784 17.0911 19.3036 18.1838 19.3312 19.4297C19.3899 22.1947 19.4521 24.9578 19.5298 27.7208C19.5834 29.6133 19.6646 31.5038 19.7337 33.3943C19.7475 33.7972 19.8615 34.1922 19.7941 34.599C19.4832 34.4103 19.1774 34.4221 18.8389 34.5361C17.5813 34.9586 16.3082 35.3064 14.9971 35.4519C14.9056 35.4617 14.8106 35.4794 14.757 35.5934C14.8624 35.8705 15.0887 35.8253 15.2839 35.8508C16.5138 36.0237 17.7454 36.0513 18.9788 35.8744C19.2517 35.8351 19.5368 35.7761 19.808 35.9137C19.8425 36.1004 19.8995 36.2851 19.9081 36.4738C19.9876 38.321 20.0602 40.1683 20.1327 42.0136C19.3675 42.3556 18.5729 42.5659 17.7627 42.7074C17.6159 42.7329 17.4656 42.729 17.3222 42.782C17.2341 42.8154 17.1287 42.8488 17.1132 42.9648C17.0925 43.1318 17.2272 43.1652 17.3274 43.2006C18.1099 43.4698 18.9132 43.4011 19.7112 43.3736C20.1051 43.3598 19.9392 42.8351 20.1759 42.67C20.1828 42.6897 20.1983 42.7074 20.1983 42.727C20.2415 44.5369 20.4385 46.3371 20.416 48.1509C20.2795 48.4162 20.0394 48.4889 19.808 48.5715C18.0184 49.2141 16.1977 49.6916 14.3252 49.8941C14.0902 49.9196 13.838 49.9137 13.6463 50.1318C13.6998 50.3893 13.8916 50.3795 14.0453 50.4011C15.4566 50.5976 16.8679 50.8039 18.2947 50.5701C18.7404 50.4974 19.193 50.5544 19.6404 50.519C20.0947 50.4816 20.3953 50.3087 20.3435 49.7015C20.3245 49.4774 20.3245 49.2259 20.5127 49.0569C20.5317 49.1158 20.5646 49.1748 20.5646 49.2318C20.5697 50.6231 20.7528 52.0066 20.72 53.4C14.8399 53.4 8.95809 53.4 3.07798 53.4C3.19717 52.6414 3.12462 51.8612 3.29045 51.1085C4.14552 50.971 5.00404 51.0791 5.85911 51.0535C6.40152 51.0378 6.94565 51.0712 7.47942 50.9336C7.65562 50.8884 7.856 50.9101 8.00283 50.6683C7.77308 50.4463 7.48288 50.464 7.22204 50.4109C6.09749 50.1829 4.98504 49.9 3.90714 49.4617C3.73094 49.391 3.54611 49.3418 3.4131 49.1768C3.35955 47.8601 3.52365 46.5552 3.57548 45.2424C3.63075 43.8039 3.76031 42.3693 3.78795 40.9289C3.78968 40.8227 3.78622 40.7166 3.84841 40.6262C4.05397 40.8149 4.02288 41.0861 4.01942 41.3337C4.01424 41.7385 4.1628 41.9449 4.51691 42.0392C6.86101 42.6641 9.11874 42.2809 11.3298 41.3239C11.4991 41.2511 11.7168 41.1568 11.6563 40.8876C11.5976 40.6203 11.3678 40.5751 11.1571 40.5633C10.3003 40.5142 9.44176 40.5889 8.58497 40.4159C7.12185 40.1192 5.73129 39.565 4.34763 38.9774C4.20425 38.9165 4.07988 38.8281 3.97278 38.7062C4.02288 37.1046 4.06952 35.5049 4.12825 33.9053C4.14034 33.5928 4.07643 33.2725 4.18352 32.9659C4.36836 33.4061 4.67756 33.5437 5.10078 33.6203C5.82802 33.752 6.51553 33.5849 7.21513 33.4651C7.3516 33.4415 7.56752 33.4415 7.56407 33.2292C7.56061 33.0131 7.3516 33.0327 7.20995 33.0131C6.32724 32.8991 5.50327 32.5473 4.66893 32.2329C4.51519 32.1739 4.35281 32.113 4.24744 31.946Z" fill="#F6950E"/>
<path d="M3.97624 38.7082C4.63266 38.8084 5.2148 39.17 5.83148 39.4058C6.92839 39.8283 8.04257 40.1762 9.18784 40.3412C9.85117 40.4375 10.5335 40.3786 11.2072 40.3766C11.4456 40.3747 11.6477 40.4238 11.8049 40.6458C11.9914 40.9072 11.988 41.0841 11.753 41.2924C11.6511 41.3828 11.5319 41.4575 11.4093 41.5027C10.2761 41.9252 9.14293 42.2966 7.94238 42.4578C6.671 42.6268 5.45836 42.4027 4.22844 42.1708C3.93824 42.1158 3.85878 41.9488 3.86223 41.652C3.86569 41.3121 3.8536 40.9721 3.84841 40.6321C3.85532 39.9875 3.84496 39.341 3.97624 38.7082Z" fill="#C25F04"/>
<path d="M20.5145 49.0628C20.5093 49.446 20.5006 49.8273 20.5006 50.2105C20.5006 50.4247 20.4592 50.5662 20.2329 50.6016C19.9012 50.6527 19.5765 50.747 19.2362 50.7273C18.3759 50.6821 17.5278 50.8904 16.6641 50.8551C15.7123 50.8177 14.7726 50.6782 13.8277 50.5819C13.7033 50.5701 13.5806 50.4895 13.4666 50.4208C13.3613 50.3559 13.3077 50.2419 13.3336 50.0985C13.3578 49.9589 13.4424 49.8725 13.5599 49.8469C13.8156 49.7919 14.073 49.731 14.3321 49.7054C15.9541 49.5561 17.5295 49.1395 19.0911 48.6383C19.5385 48.4949 19.9772 48.318 20.4195 48.1549C20.5542 48.4438 20.5058 48.7562 20.5145 49.0628Z" fill="#C26004"/>
<path d="M19.8079 35.9176C19.2897 36.1043 18.7473 36.1161 18.217 36.1455C17.1598 36.2045 16.0975 36.1888 15.042 36.0316C15.023 36.0296 15.004 36.0316 14.9867 36.0276C14.6568 35.9746 14.4201 35.7957 14.4461 35.5855C14.4979 35.1846 14.7881 35.2868 15.0178 35.2632C15.961 35.1708 16.8834 34.9409 17.8007 34.6854C18.2688 34.5557 18.7318 34.3965 19.193 34.2432C19.6283 34.0978 19.6283 34.0919 19.7924 34.5989C19.8494 35.0391 19.8304 35.4793 19.8079 35.9176Z" fill="#C25F04"/>
<path d="M3.41482 49.1827C3.62383 49.1689 3.81903 49.2318 4.01423 49.3124C5.25969 49.8233 6.54661 50.1319 7.85426 50.3402C7.96654 50.3579 8.07364 50.3716 8.16865 50.4522C8.3863 50.6349 8.37248 50.8609 8.11337 50.9671C7.69188 51.14 7.24621 51.2166 6.80227 51.2284C5.81246 51.254 4.82266 51.2343 3.83458 51.2402C3.64456 51.2422 3.46318 51.2127 3.29217 51.1184C3.27835 50.7234 3.27317 50.3284 3.32845 49.9353C3.40618 49.7349 3.31981 49.5128 3.39236 49.3124C3.401 49.2672 3.40791 49.2239 3.41482 49.1827Z" fill="#C25F04"/>
<path d="M4.24744 31.946C4.96604 32.0894 5.61901 32.4824 6.33416 32.6475C6.68137 32.7281 7.01649 32.8676 7.37752 32.8421C7.43279 32.8381 7.49325 32.8381 7.54508 32.8578C7.70918 32.9207 7.87328 33.0189 7.86637 33.241C7.85946 33.4257 7.71954 33.5338 7.57099 33.581C7.42761 33.6262 7.2756 33.6281 7.13223 33.6694C6.26679 33.9111 5.3979 33.8502 4.52556 33.7225C4.32691 33.693 4.22672 33.5731 4.21635 33.3471C4.21117 33.2194 4.19908 33.0936 4.18872 32.9659C4.16108 32.6239 4.19907 32.284 4.24744 31.946Z" fill="#C36005"/>
<path d="M20.1776 42.6759C20.1223 43.572 20.1223 43.576 19.3329 43.5701C18.7214 43.5662 18.1065 43.629 17.5053 43.4423C17.4518 43.4266 17.3861 43.4423 17.3412 43.4148C17.146 43.2969 16.7971 43.3677 16.8144 42.9746C16.8282 42.6386 17.1374 42.6091 17.3274 42.5953C18.2066 42.5305 19.0358 42.2357 19.8684 41.9527C19.9703 41.9174 20.0463 41.9861 20.1327 42.0176C20.1707 42.2357 20.2087 42.4519 20.1776 42.6759Z" fill="#C46105"/>
<path d="M11.9586 11.8519C13.2542 11.8499 14.3528 12.2449 15.27 13.1961C16.0336 13.9881 16.4136 14.9746 16.3289 16.1576C16.3065 16.4819 16.3756 16.7118 16.5829 16.9476C17.7195 18.2427 17.5122 19.8994 16.1303 20.8368C14.985 21.615 13.2542 21.5147 12.3352 20.5597C12.064 20.2767 11.8791 20.4083 11.6563 20.6029C10.7581 21.3929 9.7527 21.5344 8.67997 21.2003C8.31895 21.0883 7.97519 20.9114 7.66771 20.6638C6.57253 19.7834 6.42052 18.172 7.34469 17.0636C7.56752 16.7983 7.70226 16.5605 7.64871 16.1694C7.51915 15.2556 7.76617 14.442 8.26712 13.7326C9.23275 12.3727 10.5249 11.8362 11.9586 11.8519Z" fill="#F1EADC"/>
<path d="M4.52555 13.0802C4.12825 13.09 3.78276 12.9976 3.44074 12.8915C2.40775 12.5712 1.89125 10.2228 2.42847 9.40723C3.04689 8.46983 4.52901 8.29493 5.4048 9.10655C6.3877 10.0184 6.35833 11.3999 5.80729 12.4317C5.5119 12.9878 5.01095 13.0861 4.52555 13.0802Z" fill="#F1EADC"/>
<path d="M8.63506 7.04705C8.46405 7.06474 8.22739 7.01954 8.01665 6.86036C7.22895 6.26884 6.77982 4.43531 7.20131 3.47434C7.46215 2.88085 7.87327 2.4603 8.43123 2.25002C9.08937 2.00241 9.67151 2.22055 10.0412 2.88085C10.4592 3.62959 10.6717 4.4589 10.6941 5.34716C10.7062 5.80898 10.53 6.17058 10.2139 6.43981C9.7717 6.82105 9.27421 7.04116 8.63506 7.04705Z" fill="#F1EADC"/>
<path d="M21.7599 10.5116C21.7634 12.0936 20.8669 13.1116 19.3398 13.2354C18.775 13.2806 18.2827 12.7893 18.1756 12.0877C18.0287 11.1287 18.2136 10.2031 18.6506 9.39541C19.2777 8.23791 20.8289 8.25166 21.5129 9.36396C21.7219 9.70394 21.7651 9.90439 21.7599 10.5116Z" fill="#F1EADC"/>
<path d="M13.9434 5.81291C13.9382 5.2037 14.0678 4.6279 14.2924 4.08551C14.5895 3.36821 15.1094 2.99089 15.8004 2.94963C16.5466 2.90443 17.146 3.49202 17.2238 4.33705C17.2773 4.91089 17.222 5.47489 17.0787 6.0389C16.7729 7.2416 15.8988 7.59533 15.1422 7.65626C14.5618 7.70145 14.0885 7.21802 13.9831 6.51448C13.9469 6.28259 13.9538 6.0448 13.9434 5.81291Z" fill="#F1EADC"/>
</svg>
