<svg width="22" height="22" viewBox="0 0 22 22" fill="none" xmlns="http://www.w3.org/2000/svg">
<path d="M11 14.5C12.1167 14.5 13.0625 14.1125 13.8375 13.3375C14.6125 12.5625 15 11.6167 15 10.5C15 9.38333 14.6125 8.4375 13.8375 7.6625C13.0625 6.8875 12.1167 6.5 11 6.5C9.88333 6.5 8.9375 6.8875 8.1625 7.6625C7.3875 8.4375 7 9.38333 7 10.5C7 11.6167 7.3875 12.5625 8.1625 13.3375C8.9375 14.1125 9.88333 14.5 11 14.5ZM10.9956 22C10.7819 22 10.6042 21.9282 10.4625 21.7845C10.3208 21.6407 10.25 21.4625 10.25 21.25V20H9C8.7875 20 8.60938 19.9277 8.46563 19.7831C8.32188 19.6385 8.25 19.4594 8.25 19.2456C8.25 19.0319 8.32188 18.8542 8.46563 18.7125C8.60938 18.5708 8.7875 18.5 9 18.5H10.25V15.975C8.85 15.7417 7.70833 15.1145 6.825 14.0934C5.94167 13.0723 5.5 11.8782 5.5 10.5111C5.5 9.92036 5.59167 9.3375 5.775 8.7625C5.95833 8.1875 6.23333 7.65833 6.6 7.175L5.55 6.125L4.65 7.025C4.51357 7.15833 4.34613 7.225 4.14767 7.225C3.94922 7.225 3.775 7.15 3.625 7C3.475 6.85 3.4 6.67417 3.4 6.4725C3.4 6.27083 3.475 6.09667 3.625 5.95L4.5 5.075L2 2.575V4.75C2 4.9625 1.92771 5.14063 1.78312 5.28438C1.63852 5.42813 1.45936 5.5 1.24562 5.5C1.03187 5.5 0.854167 5.42813 0.7125 5.28438C0.570833 5.14063 0.5 4.9625 0.5 4.75V0.75C0.5 0.5375 0.571875 0.359375 0.715625 0.215625C0.859375 0.071875 1.0375 0 1.25 0H5.25C5.4625 0 5.64063 0.0722917 5.78438 0.216875C5.92813 0.361475 6 0.540642 6 0.754375C6 0.968125 5.92813 1.14583 5.78438 1.2875C5.64063 1.42917 5.4625 1.5 5.25 1.5H3.075L5.575 4L6.475 3.1C6.60833 2.96667 6.775 2.9 6.975 2.9C7.175 2.9 7.35 2.975 7.5 3.125C7.65 3.275 7.725 3.45083 7.725 3.6525C7.725 3.85417 7.65 4.02833 7.5 4.175L6.625 5.05L7.7 6.125C8.18202 5.75962 8.71503 5.48077 9.29903 5.28845C9.88301 5.09615 10.45 5 11 5C11.55 5 12.1208 5.09167 12.7125 5.275C13.3042 5.45833 13.8417 5.73333 14.325 6.1L18.925 1.5H16.75C16.5375 1.5 16.3594 1.42771 16.2156 1.28312C16.0719 1.13852 16 0.959358 16 0.745625C16 0.531875 16.0719 0.354167 16.2156 0.2125C16.3594 0.0708333 16.5375 0 16.75 0H20.75C20.9625 0 21.1406 0.071875 21.2844 0.215625C21.4281 0.359375 21.5 0.5375 21.5 0.75V4.75C21.5 4.9625 21.4277 5.14063 21.2831 5.28438C21.1385 5.42813 20.9594 5.5 20.7456 5.5C20.5319 5.5 20.3542 5.42813 20.2125 5.28438C20.0708 5.14063 20 4.9625 20 4.75V2.575L15.4 7.175C15.7833 7.65833 16.0625 8.1875 16.2375 8.7625C16.4125 9.3375 16.5 9.92036 16.5 10.5111C16.5 11.8782 16.0583 13.0723 15.175 14.0934C14.2917 15.1145 13.15 15.7417 11.75 15.975V18.5H13C13.2125 18.5 13.3906 18.5723 13.5344 18.7169C13.6781 18.8615 13.75 19.0406 13.75 19.2544C13.75 19.4681 13.6781 19.6458 13.5344 19.7875C13.3906 19.9292 13.2125 20 13 20H11.75V21.25C11.75 21.4625 11.6777 21.6407 11.5331 21.7845C11.3885 21.9282 11.2094 22 10.9956 22Z" fill="#00639B"/>
</svg>
