<svg width="12" height="20" viewBox="0 0 12 20" fill="none" xmlns="http://www.w3.org/2000/svg">
<path d="M0.899999 19.225C0.716666 19.025 0.620833 18.7917 0.6125 18.525C0.604166 18.2583 0.699999 18.025 0.899999 17.825L8.775 9.95L0.899999 2.075C0.716666 1.89167 0.620833 1.6625 0.6125 1.3875C0.604166 1.1125 0.699999 0.875 0.899999 0.675C1.08333 0.475 1.3125 0.370833 1.5875 0.3625C1.8625 0.354166 2.1 0.45 2.3 0.65L11.075 9.425C11.1583 9.50833 11.2167 9.59167 11.25 9.675C11.2833 9.75833 11.3 9.85 11.3 9.95C11.3 10.05 11.2833 10.1417 11.25 10.225C11.2167 10.3083 11.1583 10.3917 11.075 10.475L2.3 19.25C2.11667 19.4333 1.8875 19.525 1.6125 19.525C1.3375 19.525 1.1 19.425 0.899999 19.225Z" fill="#47464F"/>
</svg>
