<svg width="8" height="12" viewBox="0 0 8 12" fill="none" xmlns="http://www.w3.org/2000/svg">
<path d="M0.850015 11.45C0.716682 11.2833 0.645848 11.1 0.637515 10.9C0.629182 10.7 0.700015 10.525 0.850015 10.375L5.25002 5.975L0.825015 1.55C0.691682 1.41667 0.629182 1.2375 0.637515 1.0125C0.645848 0.787503 0.716682 0.608337 0.850015 0.475003C1.01668 0.308337 1.19585 0.22917 1.38752 0.237503C1.57918 0.245837 1.75002 0.325003 1.90002 0.475003L6.87502 5.45C6.95835 5.53334 7.01668 5.61667 7.05002 5.7C7.08335 5.78334 7.10002 5.875 7.10002 5.975C7.10002 6.075 7.08335 6.16667 7.05002 6.25C7.01668 6.33334 6.95835 6.41667 6.87502 6.5L1.92502 11.45C1.77502 11.6 1.60002 11.6708 1.40002 11.6625C1.20002 11.6542 1.01668 11.5833 0.850015 11.45Z" fill="#7A5267"/>
</svg>
