<svg width="16" height="32" viewBox="0 0 16 32" fill="none" xmlns="http://www.w3.org/2000/svg">
<path d="M2.4626 22.6757C2.41818 21.7479 2.51812 20.8242 2.51935 19.8978C2.52059 18.3944 2.58105 16.8897 2.56501 15.3863C2.55514 14.4472 2.53786 13.5053 2.44039 12.5662C2.34044 11.6061 1.99866 10.7919 1.41381 10.1027C1.22873 9.88375 1.03501 9.67319 0.836362 9.46966C0.445227 9.0696 0.198454 8.5783 0.0861721 7.99717C-0.031045 7.39357 -0.0322787 6.78998 0.10468 6.192C0.445227 4.70828 1.87034 3.98958 3.1005 4.63108C3.38059 4.77706 3.61996 4.99744 3.91115 5.22344C3.91239 4.9427 3.81244 4.73916 3.73718 4.53001C3.48794 3.83377 3.31273 3.1263 3.37195 2.35988C3.44229 1.46431 3.7816 0.696487 4.46886 0.302045C5.25607 -0.148545 6.16419 -0.156967 6.95263 0.704909C7.51774 1.32254 7.83978 2.1016 8.05077 2.94803C8.09149 3.10805 8.12357 3.27088 8.16429 3.45337C8.33949 3.34388 8.31482 3.13753 8.35307 2.98313C8.52211 2.31075 8.78492 1.70575 9.2723 1.25937C9.69674 0.87195 10.1607 0.589805 10.7295 0.599631C12.2903 0.626301 13.2836 2.19705 12.8024 3.88009C12.6741 4.32788 12.484 4.74478 12.2805 5.25573C12.4495 5.15747 12.5618 5.10132 12.6654 5.02973C13.0171 4.7911 13.4033 4.66898 13.8055 4.62827C14.7938 4.5272 15.6649 5.24309 15.9068 6.37869C16.1178 7.3655 15.9586 8.30879 15.5502 9.20155C15.4268 9.47246 15.2639 9.7139 15.0875 9.94411C14.7198 10.4256 14.3484 10.9042 13.9869 11.3899C13.4847 12.0651 13.217 12.8456 13.2367 13.7355C13.2787 15.7105 13.3231 17.6842 13.3786 19.6578C13.4168 21.0095 13.4748 22.3599 13.5242 23.7103C13.5341 23.998 13.6155 24.2802 13.5674 24.5707C13.3453 24.436 13.1269 24.4444 12.8851 24.5258C11.9868 24.8276 11.0774 25.0761 10.1409 25.1799C10.0755 25.187 10.0077 25.1996 9.96943 25.281C10.0447 25.4789 10.2063 25.4466 10.3458 25.4649C11.2243 25.5884 12.104 25.6081 12.985 25.4817C13.1799 25.4537 13.3835 25.4116 13.5772 25.5098C13.6019 25.6432 13.6426 25.7751 13.6488 25.9099C13.7056 27.2294 13.7574 28.5488 13.8092 29.8669C13.2626 30.1112 12.695 30.2614 12.1164 30.3624C12.0115 30.3807 11.9041 30.3779 11.8017 30.4158C11.7388 30.4396 11.6635 30.4635 11.6524 30.5463C11.6376 30.6656 11.7339 30.6895 11.8054 30.7148C12.3644 30.9071 12.9381 30.8579 13.5082 30.8383C13.7895 30.8285 13.671 30.4537 13.8401 30.3358C13.845 30.3498 13.8561 30.3624 13.8561 30.3765C13.887 31.6693 14.0276 32.9551 14.0116 34.2507C13.9141 34.4402 13.7426 34.4921 13.5772 34.5511C12.299 35.0101 10.9985 35.3512 9.66096 35.4958C9.49316 35.514 9.31301 35.5098 9.17605 35.6656C9.2143 35.8495 9.35126 35.8425 9.46108 35.8579C10.4691 35.9983 11.4772 36.1457 12.4964 35.9787C12.8147 35.9267 13.138 35.9674 13.4576 35.9422C13.7821 35.9155 13.9968 35.792 13.9597 35.3582C13.9462 35.1982 13.9462 35.0185 14.0807 34.8978C14.0942 34.9399 14.1177 34.982 14.1177 35.0227C14.1214 36.0166 14.2522 37.0048 14.2287 38C10.0287 38 5.82735 38 1.62727 38C1.71241 37.4582 1.66058 36.9009 1.77903 36.3633C2.3898 36.265 3.00303 36.3422 3.61379 36.324C4.00122 36.3127 4.38989 36.3366 4.77116 36.2383C4.89701 36.2061 5.04014 36.2215 5.14502 36.0488C4.98091 35.8902 4.77362 35.9029 4.58731 35.865C3.78406 35.7021 2.98946 35.5 2.21952 35.187C2.09367 35.1364 1.96165 35.1013 1.86664 34.9834C1.82839 34.0429 1.94561 33.1109 1.98262 32.1732C2.02211 31.1457 2.11465 30.121 2.13439 29.0921C2.13562 29.0163 2.13315 28.9405 2.17757 28.8759C2.3244 29.0107 2.30219 29.2044 2.29973 29.3812C2.29602 29.6704 2.40214 29.8178 2.65508 29.8852C4.32943 30.3316 5.9421 30.0578 7.52144 29.3742C7.64236 29.3223 7.79783 29.2549 7.75464 29.0626C7.71269 28.8717 7.54859 28.8394 7.39806 28.831C6.78606 28.7959 6.17283 28.8492 5.56083 28.7257C4.51575 28.5138 3.52249 28.1179 2.53416 27.6982C2.43175 27.6547 2.34291 27.5915 2.26641 27.5045C2.30219 26.3605 2.33551 25.2178 2.37746 24.0752C2.3861 23.852 2.34044 23.6232 2.41694 23.4043C2.54897 23.7187 2.76983 23.8169 3.07213 23.8717C3.59158 23.9657 4.08266 23.8464 4.58238 23.7608C4.67985 23.744 4.83408 23.744 4.83162 23.5924C4.82915 23.4379 4.67985 23.452 4.57867 23.4379C3.94817 23.3565 3.35962 23.1053 2.76366 22.8807C2.65385 22.8386 2.53786 22.795 2.4626 22.6757Z" fill="#F6950E"/>
<path d="M2.26888 27.5059C2.73775 27.5775 3.15357 27.8357 3.59406 28.0042C4.37756 28.306 5.1734 28.5544 5.99145 28.6724C6.46526 28.7411 6.95264 28.699 7.43384 28.6976C7.60412 28.6962 7.74848 28.7313 7.86076 28.8899C7.99402 29.0766 7.99155 29.203 7.82374 29.3517C7.75095 29.4163 7.66581 29.4697 7.5782 29.5019C6.76879 29.8037 5.95937 30.069 5.10184 30.1841C4.19371 30.3049 3.32754 30.1448 2.44903 29.9792C2.24174 29.9399 2.18498 29.8206 2.18745 29.6086C2.18992 29.3658 2.18128 29.1229 2.17758 28.8801C2.18251 28.4197 2.17511 27.9579 2.26888 27.5059Z" fill="#C25F04"/>
<path d="M14.0819 34.902C14.0782 35.1758 14.072 35.4481 14.072 35.7218C14.072 35.8748 14.0424 35.9759 13.8808 36.0012C13.6439 36.0376 13.4119 36.105 13.1688 36.091C12.5544 36.0587 11.9485 36.2075 11.3316 36.1822C10.6518 36.1556 9.98053 36.0559 9.30561 35.9871C9.21677 35.9787 9.12917 35.9211 9.04773 35.872C8.97247 35.8257 8.93422 35.7443 8.95273 35.6418C8.97 35.5421 9.03046 35.4804 9.11436 35.4621C9.29697 35.4228 9.48082 35.3793 9.6659 35.3611C10.8245 35.2544 11.9498 34.9568 13.0652 34.5988C13.3848 34.4964 13.6982 34.37 14.014 34.2535C14.1103 34.4599 14.0757 34.6831 14.0819 34.902Z" fill="#C26004"/>
<path d="M13.5772 25.5126C13.2071 25.6459 12.8196 25.6544 12.4408 25.6754C11.6857 25.7175 10.9269 25.7063 10.173 25.594C10.1594 25.5926 10.1459 25.594 10.1335 25.5912C9.89785 25.5533 9.72881 25.4256 9.74732 25.2754C9.78434 24.989 9.99162 25.062 10.1557 25.0452C10.8294 24.9792 11.4883 24.8149 12.1435 24.6325C12.4779 24.5398 12.8085 24.4261 13.138 24.3166C13.4489 24.2128 13.4489 24.2085 13.5661 24.5707C13.6068 24.8851 13.5933 25.1996 13.5772 25.5126Z" fill="#C25F04"/>
<path d="M1.86787 34.9877C2.01716 34.9778 2.15659 35.0227 2.29602 35.0803C3.18563 35.4453 4.10486 35.6656 5.0389 35.8144C5.1191 35.8271 5.1956 35.8369 5.26346 35.8945C5.41893 36.025 5.40906 36.1864 5.22398 36.2622C4.92291 36.3857 4.60458 36.4405 4.28747 36.4489C3.58047 36.4672 2.87347 36.4531 2.16769 36.4573C2.03197 36.4587 1.90241 36.4377 1.78026 36.3703C1.77039 36.0882 1.76669 35.806 1.80617 35.5253C1.8617 35.3821 1.8 35.2235 1.85183 35.0803C1.85799 35.048 1.86293 35.0171 1.86787 34.9877Z" fill="#C25F04"/>
<path d="M2.4626 22.6757C2.97588 22.7782 3.44229 23.0589 3.95311 23.1768C4.20112 23.2344 4.44049 23.334 4.69837 23.3158C4.73785 23.313 4.78103 23.313 4.81805 23.327C4.93527 23.3719 5.05249 23.4421 5.04755 23.6007C5.04261 23.7327 4.94267 23.8099 4.83656 23.8436C4.73415 23.8759 4.62557 23.8773 4.52316 23.9067C3.90499 24.0794 3.28436 24.0359 2.66125 23.9446C2.51936 23.9236 2.4478 23.838 2.44039 23.6765C2.43669 23.5853 2.42805 23.4955 2.42065 23.4042C2.40091 23.16 2.42805 22.9172 2.4626 22.6757Z" fill="#C36005"/>
<path d="M13.8413 30.34C13.8018 30.9801 13.8018 30.9829 13.2379 30.9787C12.8011 30.9759 12.3619 31.0208 11.9325 30.8874C11.8943 30.8762 11.8474 30.8874 11.8153 30.8678C11.6759 30.7836 11.4266 30.8341 11.439 30.5533C11.4488 30.3133 11.6697 30.2923 11.8054 30.2824C12.4335 30.2361 13.0257 30.0255 13.6204 29.8234C13.6932 29.7981 13.7475 29.8473 13.8092 29.8697C13.8364 30.0255 13.8635 30.18 13.8413 30.34Z" fill="#C46105"/>
<path d="M7.97057 8.32282C8.89597 8.32142 9.68071 8.60357 10.3359 9.28296C10.8813 9.84865 11.1527 10.5533 11.0922 11.3983C11.0762 11.63 11.1256 11.7942 11.2736 11.9626C12.0855 12.8877 11.9374 14.071 10.9504 14.7406C10.1323 15.2964 8.89597 15.2249 8.23955 14.5427C8.04583 14.3405 7.91381 14.4346 7.75464 14.5735C7.11303 15.1378 6.39492 15.2389 5.62869 15.0003C5.37081 14.9202 5.12528 14.7939 4.90565 14.617C4.12338 13.9882 4.0148 12.8371 4.67492 12.0455C4.83408 11.856 4.93033 11.6861 4.89208 11.4068C4.79954 10.754 4.97598 10.1729 5.3338 9.66617C6.02353 8.69481 6.94646 8.31159 7.97057 8.32282Z" fill="#F1EADC"/>
<path d="M2.66125 9.20015C2.37746 9.20717 2.13069 9.1412 1.88638 9.0654C1.14853 8.83659 0.779604 7.15916 1.16334 6.57662C1.60506 5.90706 2.66371 5.78213 3.28928 6.36186C3.99135 7.01318 3.97038 7.99998 3.57678 8.73693C3.36578 9.13418 3.00796 9.20436 2.66125 9.20015Z" fill="#F1EADC"/>
<path d="M5.59661 4.89079C5.47446 4.90342 5.30542 4.87113 5.15489 4.75743C4.59225 4.33492 4.27144 3.02526 4.57251 2.33885C4.75882 1.91493 5.05248 1.61453 5.45102 1.46434C5.92112 1.28747 6.33693 1.44328 6.60098 1.91493C6.89957 2.44974 7.05134 3.0421 7.06738 3.67658C7.07602 4.00645 6.95016 4.26473 6.72437 4.45704C6.4085 4.72936 6.05314 4.88658 5.59661 4.89079Z" fill="#F1EADC"/>
<path d="M14.9715 7.36549C14.974 8.49547 14.3336 9.22259 13.2429 9.31102C12.8394 9.34331 12.4878 8.99238 12.4113 8.49126C12.3064 7.80625 12.4384 7.1451 12.7506 6.56818C13.1985 5.7414 14.3065 5.75122 14.7951 6.54572C14.9444 6.78856 14.9752 6.93174 14.9715 7.36549Z" fill="#F1EADC"/>
<path d="M9.38829 4.00925C9.38459 3.57411 9.47713 3.16282 9.63754 2.7754C9.84976 2.26304 10.2212 1.99353 10.7147 1.96405C11.2477 1.93177 11.6759 2.35148 11.7314 2.95507C11.7697 3.36495 11.7302 3.76782 11.6278 4.17068C11.4094 5.02975 10.785 5.28242 10.2446 5.32593C9.83002 5.35822 9.49194 5.01291 9.41667 4.51038C9.39076 4.34474 9.3957 4.17489 9.38829 4.00925Z" fill="#F1EADC"/>
</svg>
