<svg width="91" height="53" viewBox="0 0 91 53" fill="none" xmlns="http://www.w3.org/2000/svg">
<g clip-path="url(#clip0_1_19)">
<path d="M85.6523 -34.8878C85.6651 -34.6724 85.748 -34.4859 85.9012 -34.3315C86.265 -33.9617 86.7469 -33.6112 86.064 -33.087C85.8853 -32.9519 86.0257 -32.7815 86.115 -32.6304C86.3225 -32.2702 86.5714 -31.939 86.9001 -31.611C86.5618 -31.1511 85.8948 -31.0289 85.8055 -30.3986C85.9491 -30.27 86.1182 -30.1478 86.2554 -29.9934C86.5363 -29.6719 86.6065 -29.3921 86.0895 -29.2184C85.7161 -29.093 85.5917 -28.8454 85.8693 -28.5046C86.3129 -27.9611 85.8246 -27.17 86.3799 -26.6426C86.5107 -26.5204 86.2906 -26.3436 86.1661 -26.2278C85.8023 -25.8837 85.7768 -25.3692 85.5278 -24.9576C85.196 -24.4173 85.7927 -24.1022 85.9778 -23.7002C85.7544 -23.3079 85.1991 -23.2886 85.113 -22.7676C85.247 -22.4236 85.7544 -22.5811 85.9363 -22.1952C85.697 -21.7708 85.4225 -21.3045 85.914 -20.8285C86.0321 -20.716 86.0225 -20.5616 85.914 -20.4587C85.6363 -20.2015 85.1864 -20.1018 85.4704 -19.5004C85.5598 -19.3107 85.1353 -18.8766 84.9502 -18.5518C84.8513 -18.3814 85.0045 -18.1916 84.9694 -18.0598C84.8194 -17.497 85.7034 -16.9536 84.9885 -16.4005C85.7097 -16.1046 84.8928 -15.7348 85.0332 -15.3939C85.0906 -15.2556 84.947 -14.9727 85.0204 -14.9083C85.7353 -14.2973 85.2343 -13.8086 84.8832 -13.3165C84.7268 -13.0979 84.6535 -12.966 84.8481 -12.6927C85.0779 -12.3647 85.0204 -12.2425 84.813 -11.4257C84.8034 -11.3935 84.7588 -11.3453 84.7619 -11.3421C85.6363 -10.5767 84.4301 -9.5316 85.1034 -8.73731C85.1353 -8.70194 85.1257 -8.57331 85.0938 -8.54758C84.5003 -8.11345 84.545 -7.69541 84.9502 -7.10049C85.1098 -6.86896 84.8417 -6.31263 84.8098 -5.95568C84.7747 -5.57622 84.9247 -5.27394 84.462 -5.10351C84.4077 -5.08421 84.3599 -5.00382 84.3407 -4.94272C84.2577 -4.62436 84.9183 -4.47644 84.596 -4.19023C84.2673 -3.89438 84.3471 -3.78184 84.6343 -3.59532C84.6822 -3.56316 84.7268 -3.4281 84.7205 -3.42489C84.1492 -3.05508 84.6566 -2.43765 84.3822 -1.98423C84.0854 -1.49221 84.1109 -0.990556 84.5641 -0.566077C84.8066 -0.340974 84.8673 -0.0708541 84.5577 0.128523C84.2354 0.340762 84.162 0.575512 84.3343 0.916381C84.4492 1.1447 84.3854 1.38267 84.3439 1.62707C84.2801 2.01296 84.1014 2.431 84.4652 2.78152C84.5098 2.82332 84.5609 2.93588 84.5418 2.95839C83.9035 3.6948 84.5577 4.48909 84.4779 5.26087C84.4141 5.84935 84.5641 6.39281 83.9833 6.78835C83.8939 6.84945 83.8652 7.03918 83.8588 7.17103C83.8365 7.54406 84.8162 7.75951 84.0695 8.22901C83.6035 8.52164 84.2258 9.09083 83.7089 9.30629C84.028 9.79508 83.5429 10.4157 83.9897 10.8981C84.2354 11.1618 84.2322 11.4705 83.878 11.6827C83.495 11.9143 83.5972 12.178 83.811 12.4642C83.9546 12.6571 84.0727 12.8726 84.2131 13.0687C84.3311 13.2327 84.5322 13.3388 84.5609 13.6636C84.0886 13.8244 83.6354 14.0688 83.9769 14.7377C84.0503 14.8856 84.0088 15.0979 83.8908 15.2329C83.5557 15.6124 83.7599 15.815 83.9929 16.1848C84.1716 16.4678 84.4492 16.9051 84.2099 17.4679C84.0663 17.8023 84.3024 18.3072 83.8557 18.6481C83.7503 18.7284 83.7471 19.0757 83.8205 19.2462C84.028 19.7092 84.3854 20.1402 83.8716 20.6225C84.3631 21.002 83.8971 21.6934 84.4205 22.1371C84.9694 22.6034 84.9758 23.0761 84.5258 23.5874C84.1109 24.0569 84.2801 24.4814 84.5769 24.7741C84.8002 24.9927 84.8928 25.0989 84.8545 25.4204C84.7492 26.3241 85.0906 27.0315 85.8757 27.5332C86.1501 27.71 86.3799 27.9384 86.5682 28.2664C86.8714 28.797 87.2798 29.2793 87.6723 29.7617C88.2787 30.5013 89.0669 31.1316 89.2807 32.1478C89.3031 32.2475 89.3509 32.3729 89.4243 32.4211C90.6051 33.1768 90.3402 34.6271 90.9657 35.6497C91.071 35.8234 90.8891 35.9617 90.8253 36.116C90.6242 36.6145 90.3562 37.1258 90.8763 37.6049C91.0742 37.7882 91.004 37.9812 90.8508 38.1516C90.2572 38.814 89.5584 39.4057 89.3541 40.3383C89.3414 40.3898 89.252 40.4766 89.2169 40.4669C88.3138 40.2225 88.4159 40.8979 88.3042 41.4285C88.2404 41.734 87.9691 41.8497 87.6468 41.7597C87.0851 41.6085 86.6288 41.7372 86.3639 42.2903C86.1948 42.6376 85.9682 42.6086 85.6874 42.4543C85.3779 42.2838 85.0747 42.1263 84.7619 42.4929C84.6694 42.6022 83.645 42.2999 83.6259 42.1681C83.4918 41.3063 83.144 41.7822 82.8217 42.0202C82.7738 42.0555 82.694 42.0491 82.5664 42.078C82.6366 41.2516 82.059 41.0265 81.4303 40.84C81.1654 40.7628 80.9516 40.7917 80.7953 41.0297C80.6517 41.2484 80.7634 41.4928 80.9133 41.5892C81.676 42.0716 81.6856 42.7919 81.5931 43.5541C81.5739 43.7149 81.609 43.8435 81.7558 43.8853C82.1005 43.985 82.209 44.2776 82.11 44.5349C81.9186 45.0333 82.7451 45.4063 82.2058 45.9498C81.8643 46.2939 81.9154 46.892 81.6569 47.2779C81.3505 47.7313 81.4654 48.024 81.7845 48.3166C81.6409 48.606 81.4048 48.4838 81.2229 48.5224C80.8974 48.5932 80.8591 48.8279 80.9165 49.0787C80.9708 49.3103 81.0889 49.5289 81.1846 49.754C81.2548 49.9148 81.3378 50.0885 81.2037 50.2396C81.0506 50.4133 80.8814 50.2814 80.7378 50.2075C80.4762 50.0724 80.3293 50.156 80.1315 50.365C79.873 50.6352 79.5379 50.8378 79.2188 51.0436C78.8965 51.2558 79.1518 51.7607 78.7561 51.9215C78.5104 51.944 78.4146 51.7221 78.2487 51.6127C77.8338 51.3394 77.4987 51.3973 77.1732 51.7993C76.4393 52.6965 76.2701 52.6836 75.4532 51.7896C75.3606 51.6899 75.2138 51.5034 75.1596 51.5259C74.5022 51.8025 74.0267 51.0468 73.3853 51.2204C73.2002 51.2719 72.8906 51.2462 72.8683 51.005C72.8204 50.5226 72.2747 50.4937 72.1822 50.2621C72.0545 49.9406 71.8918 49.5482 71.6907 49.3971C71.2057 49.0305 71.1003 48.5128 70.8961 48.0272C70.7078 47.5802 70.577 47.1107 70.1653 46.7955C69.9579 46.638 69.8685 46.4225 70.0058 46.1524C70.2228 45.7215 69.9515 45.3388 69.843 44.9497C69.7728 44.6989 69.5781 44.5381 69.2909 44.5799C69.0069 44.6249 68.825 44.8404 68.8793 45.0912C68.9878 45.5896 68.7867 45.9144 68.474 46.2585C68.3272 46.4225 68.2442 46.7152 68.2602 46.9403C68.2953 47.3744 68.7133 47.9532 67.7496 47.8021C67.5932 47.7764 67.6155 48.0786 67.5996 48.2459C67.5039 49.217 67.5038 49.2234 66.5848 49.1752C66.3933 49.1656 66.2306 49.1881 66.1763 49.3907C66.0997 49.6801 65.8668 49.8184 65.6849 50.021C65.2796 50.4679 65.0115 51.0757 64.2297 50.6737C64.1595 50.6352 63.9488 50.841 63.8212 50.9503C63.6776 51.0693 63.5308 51.169 63.368 51.0243C63.0425 50.7348 62.6532 50.8185 62.2798 50.8056C62.1777 50.8024 62.0309 50.8217 61.9798 50.7638C61.5267 50.2525 60.9778 50.1431 60.3427 50.3072C60.2949 50.32 60.2279 50.2396 60.1672 50.2203C59.7588 50.1013 59.8705 49.3392 59.3311 49.4582C58.7791 49.5804 58.7631 48.889 58.3099 48.889C58.1217 48.889 58.0547 48.6735 58.061 48.4903C58.0738 48.1237 57.9462 47.8986 57.5473 47.86C57.2856 47.8342 57.1771 47.6059 57.2919 47.4065C57.4802 47.085 57.2026 46.7859 57.3079 46.4965C57.4196 46.191 57.3271 46.0591 57.0271 45.9723C56.7431 45.8887 56.5867 45.7311 56.9505 45.4996C57.2824 45.2906 56.8643 45.0044 56.9409 44.8918C57.2983 44.3773 57.477 43.8982 57.0813 43.3193C57.0079 43.21 57.1388 43.0492 57.2441 42.9624C57.694 42.5893 57.6494 42.0459 57.7611 41.5699C57.5696 41.3706 57.3558 41.3802 57.1611 41.4477C56.9122 41.5346 56.7207 41.5732 56.542 41.2998C56.2835 40.9043 56.0793 41.0233 55.8687 41.3866C55.54 41.9558 54.8028 41.7147 54.372 42.1038C53.9156 41.3288 53.1178 41.6503 52.4668 41.4992C52.403 41.4831 52.3073 41.4445 52.2913 41.3963C52.0552 40.6535 51.5158 40.4862 50.8074 40.4862C50.5393 40.4862 50.5425 40.1003 50.5968 39.8688C50.6989 39.425 50.6797 39.1228 50.1181 39.0874C49.5979 39.0552 49.4416 38.6018 49.3777 38.2063C49.2916 37.6789 49.0778 37.1354 49.349 36.5887C49.4416 36.399 49.499 36.1739 49.2565 36.0389C48.9214 35.8523 48.9342 35.6369 49.1671 35.3764C49.3171 35.206 49.365 34.9937 49.2597 34.7944C48.9533 34.2219 49.349 33.7106 49.6075 33.3987C49.9234 33.0193 49.9649 32.688 49.9585 32.2764C49.9522 31.7201 49.8756 31.1413 50.4978 30.8197C50.734 29.8582 51.6435 29.4015 52.1477 28.6233C52.3775 28.2664 52.9296 28.1088 52.9296 27.5364C52.9296 27.4785 53.0029 27.3756 53.0444 27.3756C53.8869 27.3724 54.139 26.6103 54.6145 26.144C55.1698 25.6005 55.741 25.0635 55.6389 24.1631C55.5942 23.7707 55.7857 23.5296 56.1718 23.3849C56.6122 23.2209 56.6888 22.9411 56.2803 22.6259C56.1367 22.5166 55.9516 22.343 56.1495 22.2336C56.5835 22.0021 56.242 21.4007 56.6952 21.2174C56.3027 20.8926 56.6569 20.4135 56.4686 20.0758C56.242 19.6674 56.3569 19.3748 56.5835 19.0339C56.8069 18.6995 56.8611 18.394 56.5069 18.021C56.0442 17.5354 56.0665 16.7893 56.1367 16.2169C56.2005 15.6992 55.808 15.2265 56.1527 14.6798C56.4367 14.2264 56.258 13.6186 56.2484 13.0752C56.2389 12.6089 56.2484 12.1201 56.3729 11.6763C56.4558 11.3804 56.4495 11.2775 56.1974 11.1039C55.6293 10.7148 55.6006 10.3643 56.0761 9.78543C56.2771 9.54104 56.4399 9.44135 56.0537 9.16479C55.6612 8.88824 55.7634 8.30297 55.9708 8.00391C56.325 7.49582 56.0825 6.91055 56.3442 6.40568C56.4654 6.17736 56.1623 6.00371 55.9804 5.83971C55.6836 5.57601 55.6038 5.2673 55.6293 4.82996C55.6995 3.52758 55.7889 2.23485 56.1144 0.971054C56.1878 0.688067 56.0984 0.514414 55.8655 0.360057C55.3517 0.0224032 55.2017 -0.421372 55.5368 -0.977698C55.7059 -1.25747 55.6804 -1.48579 55.4283 -1.71089C55.0549 -2.04533 55.1953 -2.31224 55.5783 -2.51483C55.9516 -2.71099 56.0442 -3.03578 55.9197 -3.39916C55.6421 -4.22239 55.6581 -5.1421 55.1315 -5.88494C55.039 -6.01678 55.0358 -6.12933 55.1411 -6.25153C55.7346 -6.96543 55.2464 -7.77901 55.3421 -8.54115C55.3645 -8.71801 55.2687 -8.86916 55.1379 -9.001C54.9879 -9.15214 54.9911 -9.30328 55.2177 -9.39011C55.6708 -9.56697 55.5176 -9.80172 55.24 -9.96894C54.8315 -10.2198 54.5603 -10.477 54.9336 -10.953C55.0262 -11.0719 55.0613 -11.1974 54.9815 -11.3324C54.6432 -11.892 54.9049 -12.3968 55.1698 -12.8663C55.3996 -13.2683 55.5017 -13.7539 55.2687 -14.0497C54.9113 -14.5032 55.0389 -14.9887 55.0389 -15.4164C55.0389 -15.9953 55.3262 -16.5645 54.656 -16.9761C54.4901 -17.079 54.6018 -17.3041 54.723 -17.4327C55.0198 -17.7543 54.9177 -18.2045 55.0485 -18.5807C55.2049 -19.0309 54.7039 -19.4876 54.3688 -19.8638C54.2731 -19.9699 54.1007 -20.0825 54.2507 -20.1693C54.8602 -20.5231 54.5092 -20.8125 54.2379 -21.1373C54.1837 -21.2016 54.1741 -21.3366 54.1933 -21.4267C54.2539 -21.7386 54.7326 -21.626 54.7581 -21.9187C54.7773 -22.1406 54.3496 -22.1534 54.3975 -22.4814C54.4805 -23.0474 54.4454 -24.1408 54.2858 -24.4784C54.0656 -24.9511 53.8933 -25.3242 54.522 -25.6618C54.8539 -25.8387 54.7868 -26.2021 54.4039 -26.3822C54.0369 -26.5558 54.088 -26.7423 54.1135 -27.1539C54.1901 -28.3566 54.6177 -29.6912 53.4689 -30.6913C53.3157 -30.8263 53.3827 -30.9775 53.488 -31.1447C53.721 -31.5113 53.8423 -31.8168 53.638 -32.3442C53.4402 -32.8523 53.6252 -33.5276 53.3253 -34.0968C53.2391 -34.2608 53.3827 -34.4794 53.5933 -34.399C54.1103 -34.1964 54.155 -34.6274 54.3209 -34.9007C64.7562 -34.8878 75.2042 -34.8878 85.6523 -34.8878Z" fill="#D9D4C6"/>
<path d="M63.7797 19.4263C65.9242 19.5099 67.7464 19.7672 69.3835 20.748C69.709 20.9441 69.9771 20.9088 70.2515 20.7448C71.6142 19.9312 73.1906 19.7993 74.6714 19.3909C76.3467 18.9279 78.2551 19.2623 79.3433 20.7673C79.8571 21.478 79.9528 22.2047 79.7326 23.0247C79.4071 24.2274 78.737 25.2147 77.9105 26.1151C77.4605 26.6071 76.9467 27.0123 76.3914 27.366C75.7213 27.7905 75.2713 28.2728 75.2298 29.1765C75.1724 30.3599 74.4639 31.2056 73.6246 32.0578C72.8364 32.8585 72.0163 33.3505 70.9823 33.6817C70.2515 33.9165 69.6133 34.3571 68.8665 33.7364C68.7165 33.611 68.3942 33.7203 68.1581 33.6721C67.2518 33.4824 66.4827 33.2122 65.8285 32.3601C65.1328 31.4532 64.6254 30.4853 64.3318 29.453C64.035 28.4047 63.8021 27.5075 62.7266 26.9319C62.1363 26.6167 61.6512 25.9736 61.2044 25.4301C60.4992 24.5715 60.0971 23.5328 60.1609 22.3752C60.1705 22.2047 60.2439 22.0407 60.2471 21.8703C60.2726 20.7737 60.9715 19.8733 62.015 19.6803C62.6852 19.5517 63.3553 19.3459 63.7797 19.4263Z" fill="#E4A1A2"/>
<path d="M84.3535 38.4861C83.227 38.6951 82.5664 37.7336 81.759 37.1419C80.9357 36.5374 80.4411 35.7302 80.8431 34.6176C80.9325 34.3699 80.8687 34.0644 80.8782 33.7879C80.9357 32.299 82.0526 31.2571 83.5078 31.1413C84.4492 31.0674 85.3364 30.987 86.1757 31.5304C86.9926 32.0578 87.6341 32.6978 87.717 33.7332C87.7394 34.0194 87.8287 34.2735 87.9117 34.5372C88.3393 35.9264 87.8574 37.158 86.6033 37.888C85.8534 38.3285 85.2917 38.4829 84.3535 38.4861Z" fill="#E4A1A2"/>
<path d="M72.3641 44.0172C72.3577 42.4319 72.6226 42.1103 73.9278 41.5347C74.9362 41.0877 75.9063 40.8529 77.0137 41.1713C77.6137 41.345 77.9902 41.6215 78.1881 42.1843C78.4625 42.9657 78.8167 43.731 79.0529 44.5125C79.3337 45.4386 79.2092 46.4162 78.5359 47.2137C78.2678 47.5288 77.9679 47.8215 77.6647 48.1013C76.4457 49.2203 75.4596 49.0724 74.1895 48.3617C73.13 47.77 72.9608 46.6735 72.6098 45.6959C72.4024 45.1235 72.246 44.4964 72.3641 44.0172Z" fill="#E4A1A2"/>
<path d="M51.8159 35.4344C52.1797 33.1319 52.5626 32.0321 55.0007 31.0867C56.2038 30.6204 57.1229 30.8841 58.0228 31.6655C58.6802 32.2347 58.7823 32.9872 58.6419 33.7654C58.476 34.6851 58.2558 35.5984 57.9781 36.4892C57.4994 38.0424 55.6741 38.9428 54.1391 38.3768C52.7637 37.8687 51.7808 37.113 51.8159 35.4344Z" fill="#E4A1A2"/>
<path d="M66.3423 43.0429C66.4667 44.2617 65.9976 45.3196 65.4583 46.2394C64.4722 47.918 62.5479 48.246 60.9555 46.8889C60.6268 46.6092 60.4161 46.0593 60.3651 45.6091C60.2534 44.6154 60.2438 43.5992 60.7353 42.6634C60.8789 42.3869 61.0544 42.1135 61.1246 41.8177C61.3448 40.8594 61.9671 40.4349 62.8925 40.3674C63.1 40.3513 63.2883 40.2966 63.4829 40.2098C64.4945 39.7403 65.4806 40.0876 65.9753 41.0813C66.2848 41.7116 66.4157 42.3869 66.3423 43.0429Z" fill="#E4A2A2"/>
</g>
<g clip-path="url(#clip1_1_19)">
<path d="M36.6545 -35.354C36.6673 -35.1385 36.7502 -34.952 36.9034 -34.7977C37.2672 -34.4278 37.7491 -34.0773 37.0662 -33.5532C36.8875 -33.4181 37.0279 -33.2477 37.1172 -33.0965C37.3246 -32.7364 37.5736 -32.4051 37.9023 -32.0771C37.564 -31.6173 36.897 -31.4951 36.8077 -30.8648C36.9513 -30.7362 37.1204 -30.614 37.2576 -30.4596C37.5385 -30.138 37.6087 -29.8583 37.0917 -29.6846C36.7183 -29.5592 36.5939 -29.3116 36.8715 -28.9707C37.3151 -28.4272 36.8268 -27.6362 37.3821 -27.1088C37.5129 -26.9866 37.2927 -26.8097 37.1683 -26.694C36.8045 -26.3499 36.779 -25.8353 36.53 -25.4237C36.1982 -24.8835 36.7949 -24.5683 36.98 -24.1664C36.7566 -23.774 36.2013 -23.7548 36.1152 -23.2338C36.2492 -22.8897 36.7566 -23.0473 36.9385 -22.6614C36.6992 -22.2369 36.4247 -21.7706 36.9162 -21.2947C37.0342 -21.1822 37.0247 -21.0278 36.9162 -20.9249C36.6385 -20.6676 36.1886 -20.5679 36.4726 -19.9666C36.562 -19.7769 36.1375 -19.3427 35.9524 -19.0179C35.8535 -18.8475 36.0067 -18.6578 35.9716 -18.5259C35.8216 -17.9632 36.7056 -17.4197 35.9907 -16.8666C36.7119 -16.5708 35.895 -16.2009 36.0354 -15.8601C36.0928 -15.7218 35.9492 -15.4388 36.0226 -15.3745C36.7375 -14.7635 36.2364 -14.2747 35.8854 -13.7827C35.729 -13.564 35.6557 -13.4322 35.8503 -13.1588C36.0801 -12.8308 36.0226 -12.7086 35.8152 -11.8918C35.8056 -11.8597 35.761 -11.8114 35.7641 -11.8082C36.6385 -11.0429 35.4323 -9.99776 36.1056 -9.20347C36.1375 -9.16809 36.1279 -9.03946 36.096 -9.01374C35.5025 -8.57961 35.5472 -8.16156 35.9524 -7.56665C36.112 -7.33511 35.8439 -6.77879 35.812 -6.42184C35.7769 -6.04238 35.9269 -5.7401 35.4642 -5.56966C35.4099 -5.55037 35.3621 -5.46997 35.3429 -5.40887C35.2599 -5.09051 35.9205 -4.94259 35.5982 -4.65639C35.2695 -4.36054 35.3493 -4.24799 35.6365 -4.06148C35.6844 -4.02932 35.729 -3.89426 35.7227 -3.89104C35.1514 -3.52123 35.6588 -2.9038 35.3844 -2.45038C35.0876 -1.95837 35.1131 -1.45671 35.5663 -1.03223C35.8088 -0.80713 35.8695 -0.53701 35.5599 -0.337633C35.2376 -0.125394 35.1642 0.109356 35.3365 0.450225C35.4514 0.678544 35.3876 0.916512 35.3461 1.16091C35.2823 1.5468 35.1036 1.96485 35.4674 2.31536C35.512 2.35717 35.5631 2.46972 35.544 2.49223C34.9057 3.22864 35.5599 4.02293 35.4801 4.79471C35.4163 5.3832 35.5663 5.92666 34.9855 6.3222C34.8961 6.3833 34.8674 6.57303 34.861 6.70487C34.8387 7.0779 35.8184 7.29335 35.0717 7.76285C34.6057 8.05549 35.228 8.62468 34.711 8.84013C35.0302 9.32893 34.5451 9.94957 34.9919 10.4319C35.2376 10.6956 35.2344 11.0043 34.8802 11.2166C34.4972 11.4481 34.5994 11.7118 34.8132 11.998C34.9568 12.1909 35.0749 12.4064 35.2153 12.6026C35.3333 12.7666 35.5344 12.8727 35.5631 13.1975C35.0908 13.3583 34.6376 13.6027 34.9791 14.2715C35.0525 14.4195 35.011 14.6317 34.893 14.7668C34.5579 15.1462 34.7621 15.3488 34.9951 15.7186C35.1738 16.0016 35.4514 16.439 35.2121 17.0017C35.0685 17.3361 35.3046 17.841 34.8579 18.1819C34.7525 18.2623 34.7493 18.6096 34.8227 18.78C35.0302 19.2431 35.3876 19.674 34.8738 20.1564C35.3653 20.5358 34.8993 21.2272 35.4227 21.671C35.9716 22.1373 35.978 22.61 35.528 23.1213C35.1131 23.5908 35.2823 24.0153 35.5791 24.3079C35.8024 24.5266 35.895 24.6327 35.8567 24.9543C35.7514 25.8579 36.0928 26.5654 36.8779 27.067C37.1523 27.2439 37.3821 27.4722 37.5704 27.8002C37.8736 28.3308 38.282 28.8132 38.6745 29.2955C39.2809 30.0352 40.0691 30.6655 40.2829 31.6816C40.3053 31.7813 40.3531 31.9067 40.4265 31.955C41.6073 32.7107 41.3424 34.161 41.9679 35.1836C42.0732 35.3572 41.8913 35.4955 41.8275 35.6499C41.6264 36.1483 41.3584 36.6596 41.8785 37.1388C42.0764 37.3221 42.0062 37.515 41.853 37.6854C41.2594 38.3479 40.5606 38.9396 40.3563 39.8722C40.3435 39.9236 40.2542 40.0104 40.2191 40.0008C39.316 39.7564 39.4181 40.4317 39.3064 40.9623C39.2426 41.2678 38.9713 41.3836 38.649 41.2935C38.0873 41.1424 37.631 41.271 37.3661 41.8241C37.197 42.1714 36.9704 42.1425 36.6896 41.9881C36.3801 41.8177 36.0769 41.6601 35.7641 42.0267C35.6716 42.136 34.6472 41.8338 34.6281 41.7019C34.494 40.8401 34.1462 41.316 33.8239 41.554C33.776 41.5894 33.6962 41.5829 33.5686 41.6119C33.6388 40.7854 33.0612 40.5603 32.4325 40.3738C32.1676 40.2966 31.9538 40.3256 31.7975 40.5635C31.6539 40.7822 31.7656 41.0266 31.9155 41.1231C32.6782 41.6055 32.6878 42.3258 32.5953 43.0879C32.5761 43.2487 32.6112 43.3773 32.758 43.4191C33.1027 43.5188 33.2112 43.8115 33.1122 44.0687C32.9208 44.5672 33.7473 44.9402 33.208 45.4836C32.8665 45.8277 32.9176 46.4259 32.6591 46.8118C32.3527 47.2652 32.4676 47.5578 32.7867 47.8504C32.6431 48.1399 32.407 48.0177 32.2251 48.0563C31.8996 48.127 31.8613 48.3617 31.9187 48.6126C31.973 48.8441 32.091 49.0628 32.1868 49.2879C32.257 49.4487 32.34 49.6223 32.2059 49.7735C32.0528 49.9471 31.8836 49.8153 31.74 49.7413C31.4783 49.6062 31.3315 49.6899 31.1337 49.8989C30.8752 50.169 30.5401 50.3716 30.221 50.5774C29.8987 50.7896 30.154 51.2945 29.7583 51.4553C29.5126 51.4778 29.4168 51.2559 29.2509 51.1466C28.836 50.8733 28.5009 50.9311 28.1754 51.3331C27.4415 52.2303 27.2723 52.2174 26.4554 51.3235C26.3628 51.2238 26.216 51.0373 26.1618 51.0598C25.5044 51.3363 25.0289 50.5806 24.3874 50.7543C24.2024 50.8057 23.8928 50.78 23.8705 50.5388C23.8226 50.0565 23.2769 50.0275 23.1844 49.796C23.0567 49.4744 22.894 49.0821 22.6929 48.9309C22.2078 48.5643 22.1025 48.0466 21.8983 47.561C21.71 47.114 21.5792 46.6445 21.1675 46.3294C20.9601 46.1718 20.8707 45.9564 21.008 45.6862C21.225 45.2553 20.9537 44.8727 20.8452 44.4835C20.775 44.2327 20.5803 44.0719 20.2931 44.1137C20.0091 44.1588 19.8272 44.3742 19.8815 44.625C19.99 45.1235 19.7889 45.4483 19.4762 45.7924C19.3294 45.9564 19.2464 46.249 19.2624 46.4741C19.2975 46.9082 19.7155 47.4871 18.7518 47.3359C18.5954 47.3102 18.6177 47.6125 18.6018 47.7797C18.5061 48.7509 18.506 48.7573 17.587 48.7091C17.3955 48.6994 17.2327 48.7219 17.1785 48.9245C17.1019 49.2139 16.869 49.3522 16.6871 49.5548C16.2818 50.0018 16.0137 50.6096 15.2319 50.2076C15.1617 50.169 14.951 50.3748 14.8234 50.4841C14.6798 50.6031 14.533 50.7028 14.3702 50.5581C14.0447 50.2687 13.6554 50.3523 13.282 50.3394C13.1799 50.3362 13.0331 50.3555 12.982 50.2976C12.5289 49.7863 11.98 49.677 11.3449 49.841C11.2971 49.8539 11.2301 49.7735 11.1694 49.7542C10.761 49.6352 10.8726 48.8731 10.3333 48.992C9.78125 49.1142 9.76529 48.4228 9.31214 48.4228C9.12386 48.4228 9.05685 48.2074 9.06324 48.0241C9.076 47.6575 8.94836 47.4324 8.54945 47.3938C8.28777 47.3681 8.17926 47.1398 8.29414 46.9404C8.48242 46.6188 8.2048 46.3197 8.31011 46.0303C8.42181 45.7248 8.32926 45.593 8.02928 45.5062C7.74527 45.4225 7.58888 45.265 7.95268 45.0334C8.28456 44.8244 7.86653 44.5382 7.94311 44.4257C8.30053 43.9111 8.47924 43.432 8.08353 42.8532C8.01013 42.7438 8.14097 42.583 8.24628 42.4962C8.69625 42.1232 8.65157 41.5797 8.76326 41.1038C8.57179 40.9044 8.35797 40.9141 8.16331 40.9816C7.91439 41.0684 7.72292 41.107 7.54421 40.8337C7.28572 40.4381 7.08149 40.5571 6.87087 40.9205C6.54218 41.4897 5.805 41.2485 5.37419 41.6376C4.91784 40.8626 4.12003 41.1842 3.46902 41.033C3.4052 41.017 3.30946 40.9784 3.29351 40.9301C3.05736 40.1873 2.51803 40.0201 1.80958 40.0201C1.54152 40.0201 1.54472 39.6342 1.59897 39.4027C1.70109 38.9589 1.68195 38.6566 1.12029 38.6212C0.600124 38.5891 0.443752 38.1357 0.379928 37.7401C0.293765 37.2127 0.0799644 36.6693 0.351218 36.1226C0.443763 35.9329 0.501193 35.7078 0.25866 35.5727C-0.0764177 35.3862 -0.0636427 35.1707 0.169316 34.9102C0.319303 34.7398 0.367165 34.5276 0.261854 34.3282C-0.0445024 33.7558 0.351217 33.2445 0.609706 32.9326C0.925636 32.5531 0.967114 32.2219 0.960732 31.8103C0.954349 31.2539 0.877759 30.6751 1.50005 30.3535C1.7362 29.392 2.64569 28.9354 3.1499 28.1572C3.37967 27.8002 3.93175 27.6426 3.93175 27.0702C3.93175 27.0124 4.00515 26.9095 4.04663 26.9095C4.88911 26.9062 5.14123 26.1441 5.61672 25.6778C6.172 25.1344 6.74321 24.5973 6.64109 23.6969C6.59642 23.3046 6.7879 23.0634 7.17404 22.9187C7.61443 22.7547 7.69101 22.4749 7.28253 22.1598C7.13893 22.0504 6.95384 21.8768 7.1517 21.7675C7.5857 21.5359 7.24423 20.9346 7.69738 20.7513C7.30487 20.4265 7.6591 19.9473 7.47082 19.6097C7.24424 19.2013 7.35912 18.9087 7.5857 18.5678C7.80909 18.2333 7.86334 17.9278 7.50911 17.5548C7.04639 17.0692 7.06871 16.3232 7.13892 15.7508C7.20275 15.233 6.81022 14.7603 7.15487 14.2137C7.43889 13.7602 7.2602 13.1525 7.25063 12.609C7.24105 12.1427 7.25061 11.6539 7.37507 11.2101C7.45804 10.9143 7.45166 10.8114 7.19956 10.6377C6.63152 10.2486 6.6028 9.89811 7.07829 9.31928C7.27933 9.07488 7.44208 8.97519 7.05595 8.69864C6.66343 8.42208 6.76556 7.83682 6.97299 7.53775C7.32722 7.02966 7.08468 6.44439 7.34636 5.93952C7.46762 5.7112 7.16445 5.53755 6.98256 5.37355C6.68577 5.10986 6.606 4.80115 6.63153 4.3638C6.70174 3.06142 6.79108 1.76869 7.11658 0.504898C7.18998 0.221911 7.10063 0.0482576 6.86768 -0.106099C6.35389 -0.443753 6.20389 -0.887528 6.53897 -1.44385C6.70811 -1.72362 6.68259 -1.95194 6.43048 -2.17705C6.05711 -2.51148 6.19751 -2.77839 6.58046 -2.98098C6.95383 -3.17714 7.04638 -3.50194 6.92192 -3.86532C6.64429 -4.68855 6.66025 -5.60825 6.1337 -6.35109C6.04115 -6.48294 6.03795 -6.59549 6.14326 -6.71769C6.73683 -7.43159 6.24858 -8.24517 6.34431 -9.0073C6.36665 -9.18417 6.27091 -9.33531 6.14007 -9.46716C5.99008 -9.6183 5.99327 -9.76944 6.21985 -9.85626C6.673 -10.0331 6.51983 -10.2679 6.24219 -10.4351C5.83371 -10.6859 5.56247 -10.9432 5.93585 -11.4191C6.02839 -11.5381 6.06348 -11.6635 5.9837 -11.7986C5.64543 -12.3581 5.90712 -12.863 6.17199 -13.3325C6.40176 -13.7345 6.50388 -14.22 6.27092 -14.5159C5.9135 -14.9693 6.04114 -15.4549 6.04114 -15.8826C6.04114 -16.4614 6.32837 -17.0306 5.65821 -17.4422C5.49227 -17.5451 5.60395 -17.7702 5.72521 -17.8989C6.022 -18.2204 5.91989 -18.6707 6.05073 -19.0469C6.20709 -19.4971 5.70607 -19.9537 5.37099 -20.33C5.27526 -20.4361 5.10293 -20.5487 5.25292 -20.6355C5.86244 -20.9892 5.5114 -21.2786 5.24014 -21.6034C5.18589 -21.6677 5.17633 -21.8028 5.19548 -21.8928C5.25611 -22.2048 5.73478 -22.0922 5.76031 -22.3848C5.77946 -22.6067 5.35184 -22.6196 5.3997 -22.9476C5.48268 -23.5136 5.44758 -24.6069 5.28802 -24.9446C5.06783 -25.4173 4.8955 -25.7903 5.52417 -26.128C5.85605 -26.3048 5.78904 -26.6682 5.40609 -26.8483C5.0391 -27.022 5.09017 -27.2085 5.1157 -27.6201C5.19229 -28.8228 5.61991 -30.1573 4.47107 -31.1574C4.31789 -31.2925 4.3849 -31.4436 4.49022 -31.6108C4.72317 -31.9774 4.84445 -32.2829 4.64021 -32.8103C4.44236 -33.3184 4.62743 -33.9937 4.32746 -34.5629C4.2413 -34.7269 4.38491 -34.9456 4.59553 -34.8652C5.11251 -34.6626 5.15717 -35.0935 5.32312 -35.3668C15.7584 -35.354 26.2064 -35.354 36.6545 -35.354Z" fill="#D9D4C6"/>
<path d="M14.7819 18.9601C16.9264 19.0438 18.7486 19.301 20.3857 20.2818C20.7112 20.478 20.9793 20.4426 21.2537 20.2786C22.6164 19.465 24.1928 19.3332 25.6736 18.9248C27.3489 18.4617 29.2573 18.7961 30.3455 20.3011C30.8593 21.0118 30.955 21.7386 30.7348 22.5586C30.4093 23.7613 29.7392 24.7485 28.9126 25.6489C28.4627 26.1409 27.9489 26.5461 27.3936 26.8998C26.7235 27.3243 26.2735 27.8067 26.232 28.7103C26.1746 29.8937 25.4661 30.7395 24.6268 31.5916C23.8386 32.3924 23.0185 32.8844 21.9845 33.2156C21.2537 33.4503 20.6155 33.8909 19.8687 33.2703C19.7187 33.1448 19.3964 33.2542 19.1603 33.2059C18.254 33.0162 17.4849 32.7461 16.8307 31.8939C16.135 30.9871 15.6276 30.0191 15.334 28.9869C15.0372 27.9385 14.8043 27.0413 13.7288 26.4657C13.1385 26.1506 12.6534 25.5074 12.2066 24.964C11.5014 24.1054 11.0993 23.0667 11.1631 21.909C11.1727 21.7386 11.2461 21.5746 11.2492 21.4041C11.2748 20.3075 11.9737 19.4071 13.0172 19.2142C13.6874 19.0856 14.3575 18.8798 14.7819 18.9601Z" fill="#E4A1A2"/>
<path d="M35.3557 38.02C34.2292 38.229 33.5686 37.2675 32.7612 36.6758C31.9379 36.0712 31.4433 35.2641 31.8453 34.1514C31.9347 33.9038 31.8709 33.5983 31.8804 33.3217C31.9379 31.8328 33.0548 30.7909 34.51 30.6752C35.4514 30.6012 36.3386 30.5208 37.1779 31.0643C37.9948 31.5917 38.6363 32.2316 38.7192 33.2671C38.7416 33.5533 38.8309 33.8073 38.9139 34.071C39.3415 35.4602 38.8596 36.6918 37.6055 37.4218C36.8556 37.8624 36.2939 38.0167 35.3557 38.02Z" fill="#E4A1A2"/>
<path d="M23.3663 43.5511C23.3599 41.9657 23.6248 41.6441 24.93 41.0685C25.9384 40.6215 26.9085 40.3868 28.0159 40.7051C28.6158 40.8788 28.9924 41.1554 29.1903 41.7181C29.4647 42.4995 29.8189 43.2649 30.0551 44.0463C30.3359 44.9725 30.2114 45.95 29.5381 46.7475C29.27 47.0627 28.9701 47.3553 28.6669 47.6351C27.4479 48.7542 26.4618 48.6063 25.1917 47.8956C24.1322 47.3039 23.963 46.2073 23.612 45.2297C23.4046 44.6573 23.2482 44.0302 23.3663 43.5511Z" fill="#E4A1A2"/>
<path d="M2.81808 34.9682C3.18188 32.6658 3.56482 31.566 6.00291 30.6205C7.206 30.1543 8.12508 30.418 9.025 31.1994C9.68239 31.7686 9.78451 32.5211 9.6441 33.2993C9.47815 34.219 9.25796 35.1323 8.98032 36.023C8.50164 37.5762 6.67625 38.4766 5.14128 37.9107C3.76586 37.4026 2.78298 36.6469 2.81808 34.9682Z" fill="#E4A1A2"/>
<path d="M17.3445 42.5767C17.4689 43.7955 16.9998 44.8535 16.4605 45.7732C15.4744 47.4518 13.5501 47.7798 11.9577 46.4228C11.629 46.143 11.4183 45.5931 11.3673 45.1429C11.2556 44.1492 11.246 43.1331 11.7375 42.1973C11.8811 41.9207 12.0566 41.6474 12.1268 41.3515C12.347 40.3932 12.9693 39.9688 13.8947 39.9012C14.1022 39.8852 14.2904 39.8305 14.4851 39.7437C15.4967 39.2742 16.4828 39.6215 16.9775 40.6151C17.287 41.2454 17.4178 41.9207 17.3445 42.5767Z" fill="#E4A2A2"/>
</g>
<defs>
<clipPath id="clip0_1_19">
<rect width="42" height="52" fill="white" transform="matrix(-1 0 0 -1 90.9978 52.4662)"/>
</clipPath>
<clipPath id="clip1_1_19">
<rect width="42" height="52" fill="white" transform="matrix(-1 0 0 -1 42 52)"/>
</clipPath>
</defs>
</svg>
