<svg width="13" height="14" viewBox="0 0 13 14" fill="none" xmlns="http://www.w3.org/2000/svg">
<path d="M3.66375 14C3.52125 14 3.40278 13.9521 3.30833 13.8563C3.21389 13.7604 3.16667 13.6417 3.16667 13.5V10.1667H2.16667C1.9 10.1667 1.66667 10.0667 1.46667 9.86667C1.26667 9.66667 1.16667 9.43334 1.16667 9.16667V3.83334H1C0.858333 3.83334 0.739583 3.78514 0.64375 3.68875C0.547917 3.59235 0.5 3.47291 0.5 3.33042C0.5 3.18792 0.547917 3.06945 0.64375 2.975C0.739583 2.88056 0.858333 2.83334 1 2.83334H3.16667V1.33334H2.66667C2.525 1.33334 2.40625 1.28514 2.31042 1.18875C2.21458 1.09235 2.16667 0.972908 2.16667 0.830419C2.16667 0.687919 2.21458 0.569447 2.31042 0.475003C2.40625 0.380558 2.525 0.333336 2.66667 0.333336H4.66667C4.80833 0.333336 4.92708 0.38153 5.02292 0.477919C5.11875 0.574319 5.16667 0.693764 5.16667 0.836253C5.16667 0.978753 5.11875 1.09722 5.02292 1.19167C4.92708 1.28611 4.80833 1.33334 4.66667 1.33334H4.16667V2.83334H6.33333C6.475 2.83334 6.59375 2.88153 6.68958 2.97792C6.78542 3.07432 6.83333 3.19376 6.83333 3.33625C6.83333 3.47875 6.78542 3.59722 6.68958 3.69167C6.59375 3.78611 6.475 3.83334 6.33333 3.83334H6.16667V9.16667C6.16667 9.43334 6.06667 9.66667 5.86667 9.86667C5.66667 10.0667 5.43333 10.1667 5.16667 10.1667H4.16667V13.5C4.16667 13.6417 4.11847 13.7604 4.02208 13.8563C3.92568 13.9521 3.80624 14 3.66375 14ZM2.16667 9.16667H5.16667V7.83334H3.83333C3.74444 7.83334 3.66667 7.8 3.6 7.73334C3.53333 7.66667 3.5 7.58889 3.5 7.5C3.5 7.41111 3.53333 7.33334 3.6 7.26667C3.66667 7.2 3.74444 7.16667 3.83333 7.16667H5.16667V5.83334H3.83333C3.74444 5.83334 3.66667 5.8 3.6 5.73334C3.53333 5.66667 3.5 5.58889 3.5 5.5C3.5 5.41111 3.53333 5.33334 3.6 5.26667C3.66667 5.2 3.74444 5.16667 3.83333 5.16667H5.16667V3.83334H2.16667V9.16667ZM9 13.6667C8.73333 13.6667 8.5 13.5667 8.3 13.3667C8.1 13.1667 8 12.9333 8 12.6667V8.23334C8 7.87778 8.04445 7.60834 8.13333 7.425C8.22222 7.24167 8.33889 7.07223 8.48333 6.91667C8.69444 6.69445 8.83333 6.52222 8.9 6.4C8.96667 6.27778 9 6.14445 9 6V5.5H8.83333C8.69167 5.5 8.57292 5.45181 8.47708 5.35542C8.38125 5.25902 8.33333 5.13958 8.33333 4.99709C8.33333 4.85459 8.38333 4.73611 8.48333 4.64167C8.58333 4.54722 8.7 4.5 8.83333 4.5H12.1667C12.3083 4.5 12.4271 4.5482 12.5229 4.64459C12.6188 4.74099 12.6667 4.86043 12.6667 5.00292C12.6667 5.14542 12.6188 5.26389 12.5229 5.35834C12.4271 5.45278 12.3083 5.5 12.1667 5.5H12V6C12 6.13334 12.0417 6.27222 12.125 6.41667C12.2083 6.56111 12.3556 6.74445 12.5667 6.96667C12.7111 7.12223 12.8194 7.28334 12.8917 7.45C12.9639 7.61667 13 7.87778 13 8.23334V12.6667C13 12.9333 12.9 13.1667 12.7 13.3667C12.5 13.5667 12.2667 13.6667 12 13.6667H9ZM9 8.66667H12V8.23334C12 8.03334 11.9444 7.85556 11.8333 7.7C11.7222 7.54445 11.6 7.38334 11.4667 7.21667C11.3 7.00556 11.1806 6.81111 11.1083 6.63334C11.0361 6.45556 11 6.24445 11 6V5.5H10V6C10 6.23334 9.96667 6.43889 9.9 6.61667C9.83333 6.79445 9.71667 6.98889 9.55 7.2C9.41667 7.36667 9.29167 7.53056 9.175 7.69167C9.05833 7.85278 9 8.03334 9 8.23334V8.66667ZM9 10.6667H12V9.33334H9V10.6667ZM9 12.6667H12V11.3333H9V12.6667Z" fill="#7A5267"/>
</svg>
