<svg width="95" height="59" viewBox="0 0 95 59" fill="none" xmlns="http://www.w3.org/2000/svg">
<path d="M36.392 27.7136C34.045 26.7411 31.8886 27.0048 29.807 27.9832C28.6593 25.2332 27.0876 24.5644 24.3518 25.685C23.1772 26.1664 22.0153 26.7293 20.9491 27.4114C14.6475 31.4428 9.30669 36.5955 4.00178 41.7852C3.94496 41.8407 3.89486 41.9029 3.84551 41.9652C2.6649 43.4487 3.02081 44.6833 4.84743 45.1736C5.64372 45.3877 6.51404 45.5284 7.32679 45.4521C13.7517 44.85 18.5467 41.6874 21.8269 36.22C22.6172 34.9023 23.3783 33.567 24.1963 32.1649C24.2711 32.3345 24.307 32.3767 24.2972 32.3997C24.218 32.5812 24.129 32.7574 24.046 32.9374C23.0471 35.0994 22.5611 37.3124 22.9245 39.7277C23.2871 42.137 24.2823 44.2508 25.507 46.3054C26.0857 47.2756 26.6166 48.274 27.2387 49.3835C26.3497 49.5035 25.676 49.5598 25.018 49.6909C23.1877 50.056 21.3476 50.3908 19.5464 50.867C18.768 51.0729 18.0263 51.5551 17.9889 52.8519C19.0619 52.8519 20.0787 52.8868 21.0919 52.8453C23.7619 52.7364 26.4297 52.5512 29.1004 52.4794C31.1566 52.4238 31.1581 52.4794 31.0744 50.4811C30.9899 48.4643 31.828 47.4126 33.6128 47.2993C35.3123 47.1912 36.5176 48.3695 36.6432 50.2693C36.6641 50.5848 36.6768 50.9033 36.6596 51.2188C36.62 51.9424 36.9662 52.3964 37.6758 52.4194C40.9791 52.5268 44.2832 52.6149 47.5872 52.6505C48.0426 52.6557 48.5017 52.3239 49.3234 52.0083C48.557 51.4951 48.1286 51.0322 47.6134 50.8966C46.1173 50.5033 44.5987 50.1189 43.0652 49.9686C41.9982 49.8642 41.7275 49.4931 41.966 48.5569C42.3451 47.0667 42.7571 45.584 43.0921 44.0849C43.4353 42.5488 43.9243 41.0023 43.9616 39.4507C44.0559 35.4926 43.2252 31.8153 39.8658 29.3793C40.8707 27.1085 41.812 24.9332 42.7937 22.7765C44.1381 19.8235 44.2121 16.7461 43.8637 13.5939C43.5302 10.5728 43.3082 7.53985 43.0255 4.51357C42.9837 4.0677 42.8775 3.62701 42.793 3.13818C37.4103 5.90747 34.0793 18.7133 36.392 27.7136Z" fill="white"/>
<path d="M36.3919 27.7136C34.0792 18.7132 37.4102 5.90741 42.7906 3.13739C42.8751 3.62696 42.982 4.0669 43.0232 4.51277C43.3058 7.53906 43.5279 10.572 43.8613 13.5931C44.2098 16.7453 44.135 19.8227 42.7914 22.7757C41.8097 24.9324 40.8683 27.1077 39.8634 29.3785C43.2228 31.8145 44.0535 35.4918 43.9593 39.4499C43.9226 41.0008 43.4337 42.548 43.0897 44.0841C42.7547 45.5839 42.342 47.066 41.9637 48.5561C41.7259 49.4923 41.9966 49.8634 43.0628 49.9678C44.5963 50.1174 46.1149 50.5018 47.611 50.8958C48.1262 51.0314 48.5546 51.4943 49.321 52.0076C48.4993 52.3231 48.041 52.6541 47.5849 52.6497C44.2808 52.6149 40.976 52.526 37.6734 52.4186C36.9646 52.3957 36.6184 51.9416 36.6573 51.218C36.6745 50.9025 36.6618 50.584 36.6408 50.2685C36.516 48.3688 35.3107 47.1904 33.6104 47.2985C31.8257 47.4126 30.9875 48.4636 31.072 50.4803C31.1557 52.4793 31.1542 52.4231 29.0981 52.4786C26.4273 52.5504 23.7595 52.7356 21.0895 52.8445C20.0764 52.886 19.0603 52.8512 17.9866 52.8512C18.024 51.5543 18.7657 51.0721 19.544 50.8662C21.3452 50.39 23.186 50.0559 25.0157 49.6901C25.6736 49.5582 26.3481 49.5027 27.2363 49.3827C26.6142 48.2732 26.0834 47.2748 25.5047 46.3046C24.2799 44.2507 23.2855 42.1362 22.9221 39.7269C22.5587 37.3116 23.0447 35.0986 24.0437 32.9366C24.1267 32.7574 24.2156 32.5804 24.2949 32.3989C24.3046 32.3759 24.2687 32.3337 24.1939 32.1641C23.376 33.5662 22.6148 34.9015 21.8245 36.2192C18.5444 41.6866 13.7494 44.8484 7.32443 45.4513C6.51168 45.5276 5.64136 45.3862 4.84507 45.1729C3.01845 44.6825 2.6618 43.4479 3.84316 41.9644C3.8925 41.9022 3.9426 41.8399 3.99942 41.7844C9.30433 36.5947 14.6451 31.442 20.9467 27.4106C22.0129 26.7285 23.1748 26.1656 24.3495 25.6842C27.0853 24.5636 28.6569 25.2324 29.8047 27.9824C31.8885 27.0048 34.0448 26.7411 36.3919 27.7136ZM27.5361 29.1312C26.6255 30.2614 25.6198 31.2361 24.9431 32.3982C22.4914 36.608 22.9573 40.806 25.2609 44.9284C26.1267 46.4779 26.9948 48.0258 27.9638 49.7567C26.1215 50.0182 24.5132 50.2337 22.9101 50.4774C20.1497 50.8966 19.2016 51.3099 18.5974 52.4297C22.6784 52.2297 26.6778 52.0342 30.7363 51.8357C30.6817 51.2736 30.6152 50.8047 30.595 50.333C30.5097 48.3465 31.4309 47.1022 33.1199 46.8986C35.3249 46.6327 36.6139 47.5318 36.9982 49.6278C37.1321 50.3574 37.2136 51.0966 37.3287 51.9016C40.9812 52.312 44.5806 52.6808 48.2167 51.8209C47.1594 51.2847 46.079 50.9255 44.9709 50.6988C43.8546 50.4707 42.7099 50.3752 41.4919 50.21C41.4919 49.7056 41.4156 49.2583 41.5053 48.8472C41.8493 47.2711 42.1342 45.6691 42.6426 44.1426C44.6113 38.2374 43.3828 33.0766 39.0215 29.4556C39.1972 29.1623 39.3916 28.8682 39.5561 28.5586C41.1906 25.4738 43.2258 22.3824 43.3312 18.8991C43.4815 13.9627 42.8856 9.00406 42.6082 4.05505C42.4265 4.04394 42.2448 4.03209 42.0624 4.02098C36.3238 11.3623 34.2243 19.4687 37.2188 28.7742C34.5219 27.0625 31.9804 27.3255 29.4772 28.7194C28.4222 25.5664 27.3126 24.9784 24.2545 26.2782C22.4384 27.0499 20.6237 28.0091 19.1029 29.2408C14.9614 32.5959 10.9687 36.1303 6.93787 39.6173C6.00624 40.4231 5.12172 41.2911 4.2813 42.1903C3.17696 43.3709 3.49996 44.4092 5.10003 44.7492C5.94717 44.9292 6.8631 45.0499 7.71024 44.9329C13.7225 44.1048 18.3888 41.2489 21.4581 35.9414C22.5453 34.0609 23.8007 32.2671 25.0874 30.5117C25.6557 29.7385 26.434 29.046 27.5361 29.1312Z" fill="black"/>
<path d="M27.5361 29.1312C26.434 29.046 25.6549 29.7385 25.0874 30.5125C23.7999 32.2678 22.5452 34.0617 21.4581 35.9422C18.3895 41.2496 13.7224 44.1048 7.71021 44.9336C6.86232 45.0506 5.94714 44.9299 5.1 44.7499C3.49993 44.41 3.17693 43.3716 4.28128 42.191C5.12243 41.2919 6.00621 40.4238 6.93784 39.618C10.9687 36.131 14.9621 32.5967 19.1029 29.2423C20.6237 28.0106 22.4383 27.0507 24.2545 26.2797C27.3133 24.9798 28.4221 25.5679 29.4771 28.7208C31.9797 27.3262 34.5211 27.0633 37.2188 28.7757C34.2243 19.4702 36.3238 11.3638 42.0623 4.02246C42.244 4.03357 42.4257 4.04542 42.6082 4.05653C42.8856 9.00554 43.4815 13.9642 43.3312 18.9006C43.225 22.3839 41.1898 25.4761 39.5561 28.5601C39.3923 28.8697 39.1979 29.163 39.0215 29.457C43.3828 33.0781 44.6105 38.2389 42.6426 44.1441C42.1341 45.6706 41.8493 47.2718 41.5053 48.8487C41.4156 49.2605 41.4919 49.7071 41.4919 50.2115C42.7099 50.3766 43.8546 50.4722 44.9709 50.7003C46.079 50.9262 47.1594 51.2862 48.2166 51.8224C44.5806 52.683 40.9812 52.3134 37.3287 51.9031C37.2135 51.098 37.132 50.3589 36.9982 49.6293C36.6139 47.5333 35.3249 46.6341 33.1199 46.9C31.4309 47.1037 30.5104 48.348 30.5949 50.3344C30.6151 50.8055 30.6824 51.275 30.7362 51.8372C26.6778 52.0357 22.6783 52.232 18.5974 52.4312C19.2015 51.3121 20.1496 50.8981 22.9101 50.4789C24.5139 50.2352 26.1215 50.0204 27.9638 49.7582C26.9948 48.0273 26.1267 46.4794 25.2609 44.9299C22.9572 40.8075 22.4914 36.6095 24.9431 32.3996C25.6205 31.2361 26.6262 30.2614 27.5361 29.1312ZM33.6044 30.8976C32.6541 30.5895 31.8361 30.7339 31.2245 31.582C31.1228 31.642 31.0256 31.7456 30.9194 31.756C29.4457 31.899 29.288 32.2189 29.7628 33.5565C29.9788 34.1653 30.2009 35.0978 29.8988 35.4985C29.0263 36.6569 30.0843 36.7606 30.6159 37.1776C30.8873 37.3901 31.1826 37.5731 31.4675 37.7693C32.6661 37.7382 33.8684 37.7493 35.0609 37.6449C35.3383 37.6205 35.7099 37.2487 35.8153 36.9583C36.2146 35.8511 37.0191 34.803 36.4868 33.5143C37.1238 32.4515 37.1208 32.4463 35.4722 31.5486C35.2867 31.0872 35.0931 30.5458 34.7125 30.3355C34.5106 30.2244 33.9842 30.6917 33.6044 30.8976Z" fill="white"/>
<path d="M36.5041 33.3729C36.4936 33.4632 36.5033 33.5565 36.534 33.6424C36.9639 34.8727 36.1997 35.8874 35.8139 36.9576C35.7093 37.2487 35.3369 37.6205 35.0595 37.6442C34.0068 37.7367 32.9458 37.7382 31.887 37.759C31.6276 37.7642 31.3876 37.6219 31.2694 37.3931C31.1842 37.2272 31.0915 37.0694 30.9591 36.9576C30.8111 36.8324 30.6459 36.7265 30.4784 36.631C30.1703 36.4554 30.0574 36.0784 30.2025 35.7577C30.6369 34.8001 30.1898 33.8728 30.0013 33.0114C29.8967 32.533 30.3139 32.0901 30.7976 32.1886C31.0309 32.236 31.2111 32.2011 31.2283 31.7893C31.235 31.6294 31.2986 31.4761 31.407 31.3568C31.9618 30.7465 32.6616 30.631 33.4602 30.8539C33.5634 30.8828 33.6733 30.8828 33.778 30.8598C33.8767 30.8384 33.9754 30.8161 34.074 30.7947C34.4726 30.7073 34.8591 30.9843 34.8988 31.3864C34.9025 31.4205 34.9055 31.4553 34.9092 31.4901C34.9429 31.8293 35.2277 32.0812 35.5717 32.0989C36.2214 32.1323 36.6028 32.5011 36.5041 33.3729Z" fill="white" stroke="black" stroke-width="3" stroke-miterlimit="10"/>
<path d="M60.7705 48.9635C59.7858 49.0872 59.071 49.1427 58.3696 49.2723C56.7262 49.576 55.0701 49.8411 53.4588 50.2678C52.563 50.5048 51.6658 50.9536 51.4116 52.4156C52.5645 52.4156 53.6135 52.4519 54.6588 52.4082C57.2496 52.3016 59.8366 52.1142 62.4281 52.0438C64.6122 51.9846 64.6136 52.0379 64.5815 49.8774C64.5531 47.9777 65.3038 47.0837 67.0781 46.903C68.6512 46.7423 69.8535 47.7303 70.1152 49.4353C70.187 49.9019 70.0449 50.43 70.2139 50.8447C70.3918 51.2817 70.8098 51.9327 71.1485 51.9483C74.4877 52.106 77.8314 52.1727 81.1751 52.2023C81.6155 52.206 82.0596 51.8579 82.5023 51.6728C82.5157 51.5454 82.5284 51.4187 82.5419 51.2913C81.9445 50.9543 81.3837 50.4811 80.7415 50.31C79.4001 49.953 78.0243 49.6582 76.6441 49.5293C75.7319 49.4442 75.379 49.1101 75.5524 48.2843C75.8762 46.7445 76.1745 45.1914 76.6366 43.6893C78.0834 38.9795 77.9383 34.4979 74.9565 30.3451C74.8152 30.1488 74.801 29.8629 74.7277 29.6185C74.8429 29.5615 74.9573 29.5044 75.0724 29.4474C75.3184 29.7637 75.628 30.0503 75.7992 30.4028C76.4228 31.6834 77.0104 32.9818 77.5937 34.2816C79.3148 38.1122 81.8563 41.263 85.597 43.2894C86.7455 43.9115 88.1287 44.2937 89.4357 44.3989C91.4544 44.5611 92.2724 43.4094 91.746 41.4644C89.6413 33.6943 84.4037 28.6868 77.1959 25.4998C75.9861 24.965 74.5991 24.7213 73.2697 24.5895C72.4562 24.5088 71.4476 24.6895 70.8016 25.1398C70.2341 25.5353 70.0479 26.47 69.6815 27.1899C67.3255 26.43 67.0205 26.4404 63.3231 27.4588C61.9376 24.651 60.5275 24.0888 57.5741 25.3701C56.1565 25.9849 54.7037 26.6722 53.5178 27.6306C49.0676 31.2272 44.7047 34.9304 40.3464 38.6374C39.2294 39.5876 38.1661 40.6275 37.233 41.7525C36.199 42.999 36.6042 44.2122 38.1661 44.6736C39.029 44.9284 39.986 45.0951 40.8728 45.0121C47.3479 44.4063 52.1518 41.1911 55.423 35.6651C56.1774 34.3905 56.9206 33.1099 57.669 31.8316C55.2824 36.6932 56.1452 41.2119 58.8758 45.5987C59.5181 46.6327 60.0729 47.7192 60.7705 48.9635Z" fill="white"/>
<path d="M60.7705 48.9636C60.0729 47.7193 59.5181 46.6328 58.8758 45.6003C56.1452 41.2134 55.2831 36.6947 57.669 31.8331C56.9206 33.1108 56.1774 34.3921 55.423 35.6667C52.1518 41.1927 47.3479 44.4079 40.8728 45.0137C39.986 45.0967 39.029 44.93 38.1661 44.6752C36.6042 44.2138 36.199 43.0006 37.233 41.7541C38.1661 40.6291 39.2301 39.5885 40.3464 38.639C44.704 34.932 49.0676 31.2288 53.5178 27.6322C54.7037 26.6738 56.1572 25.9865 57.5741 25.3717C60.5275 24.0904 61.9376 24.6526 63.3231 27.4604C67.0212 26.442 67.3255 26.4316 69.6815 27.1915C70.0479 26.4716 70.2333 25.5369 70.8016 25.1414C71.4476 24.6911 72.457 24.5104 73.2697 24.5911C74.5999 24.7229 75.9861 24.9666 77.1959 25.5013C84.4037 28.6883 89.6413 33.6959 91.746 41.466C92.2732 43.4109 91.4544 44.5634 89.4357 44.4004C88.1279 44.2953 86.7454 43.9131 85.597 43.291C81.8555 41.2645 79.3148 38.1138 77.5936 34.2832C77.0097 32.9841 76.4228 31.685 75.7992 30.4044C75.628 30.0519 75.3184 29.766 75.0724 29.449C74.9573 29.506 74.8429 29.5631 74.7277 29.6201C74.801 29.8645 74.8152 30.1504 74.9565 30.3467C77.9383 34.4995 78.0834 38.9811 76.6366 43.6909C76.1753 45.1929 75.8762 46.7461 75.5524 48.2859C75.379 49.111 75.7319 49.445 76.6441 49.5309C78.0243 49.6605 79.3993 49.9553 80.7414 50.3116C81.3837 50.4826 81.9445 50.9567 82.5419 51.2929C82.5284 51.4203 82.5157 51.547 82.5023 51.6744C82.0596 51.8595 81.6163 52.2076 81.1751 52.2039C77.8322 52.1743 74.4877 52.1076 71.1485 51.9499C70.8098 51.9336 70.3918 51.2833 70.2139 50.8463C70.0449 50.4315 70.187 49.9035 70.1152 49.4369C69.8535 47.7319 68.6512 46.7446 67.0781 46.9046C65.303 47.0853 64.5531 47.9793 64.5815 49.879C64.6136 52.0395 64.6122 51.9862 62.4281 52.0454C59.8366 52.1158 57.2496 52.3032 54.6588 52.4098C53.6135 52.4528 52.5653 52.4172 51.4116 52.4172C51.6658 50.9544 52.563 50.5063 53.4588 50.2693C55.0701 49.842 56.7269 49.5768 58.3696 49.2739C59.071 49.1428 59.7858 49.0873 60.7705 48.9636ZM72.6192 28.9883C73.4671 27.8218 74.2746 27.7299 75.2541 28.8172C75.6736 29.2831 76.025 29.8319 76.3039 30.3933C77.0239 31.8472 77.6699 33.3374 78.375 34.7987C80.0551 38.2827 82.4731 41.1557 85.9484 42.948C87.1582 43.5724 88.664 43.8405 90.0443 43.8731C91.266 43.902 91.6705 43.1169 91.3438 41.9082C89.0708 33.4915 83.49 28.1951 75.3274 25.3791C74.6208 25.1355 73.8462 25.0355 73.0948 24.9814C71.2741 24.8518 69.9133 25.7109 70.6864 27.7448C70.7328 27.867 70.6797 28.0255 70.6655 28.3084C68.0665 26.6212 65.5258 26.8967 63.0233 28.2691C61.8576 25.1088 60.6927 24.557 57.5696 25.9006C56.0092 26.5716 54.4397 27.3818 53.132 28.4417C48.9928 31.7954 44.9649 35.2838 40.9184 38.7486C39.9225 39.6011 38.9639 40.512 38.1011 41.4934C37.6682 41.9852 37.1126 42.8555 37.2906 43.2687C37.5194 43.802 38.3867 44.2279 39.0529 44.3753C39.9255 44.5686 40.8848 44.5575 41.7798 44.4375C45.6177 43.9242 48.9816 42.3259 51.7181 39.6314C52.972 38.3975 53.953 36.8799 54.9878 35.4416C56.3494 33.5477 57.5689 31.5495 58.9932 29.7053C59.7596 28.7135 60.3406 28.6528 61.1174 28.8661C57.7416 31.7302 56.2125 35.3801 57.1098 39.7062C57.5479 41.8215 58.6784 43.8057 59.5742 45.8151C60.0931 46.9786 60.7675 48.0741 61.4472 49.3406C59.6175 49.5976 58.0406 49.8057 56.4682 50.0427C53.722 50.4567 52.8382 50.8315 52.0546 51.9958C56.1707 51.7958 60.1634 51.6018 64.1493 51.4085C64.346 47.4556 64.7699 46.5809 66.7446 46.4935C67.579 46.4565 68.569 46.5743 69.2456 46.9994C70.827 47.9933 70.5391 49.8309 70.836 51.4647C74.4915 51.8936 78.1043 52.2239 81.7426 51.4944C79.7508 50.096 77.403 50.156 75.0051 49.7901C75.0051 49.3613 74.9274 48.9199 75.0186 48.517C75.4276 46.7135 75.9001 44.9241 76.3226 43.1236C77.5735 37.7828 77.5705 32.7627 72.6192 28.9883Z" fill="black"/>
<path d="M72.6192 28.9882C77.5705 32.7625 77.5735 37.7827 76.3196 43.1249C75.8971 44.9255 75.4246 46.7149 75.0156 48.5183C74.9244 48.9213 75.0022 49.3627 75.0022 49.7915C77.4008 50.1574 79.7478 50.0974 81.7396 51.4958C78.1021 52.2253 74.4885 51.895 70.833 51.4661C70.5362 49.8323 70.824 47.9947 69.2427 47.0008C68.566 46.5756 67.576 46.4579 66.7416 46.4949C64.7669 46.583 64.343 47.4577 64.1464 51.4098C60.1604 51.6031 56.1677 51.7972 52.0516 51.9972C52.8352 50.8321 53.719 50.4574 56.4653 50.0441C58.0377 49.8071 59.6146 49.599 61.4442 49.3419C60.7645 48.0754 60.0901 46.98 59.5712 45.8165C58.6755 43.8071 57.5457 41.8229 57.1068 39.7076C56.2103 35.3807 57.7394 31.7316 61.1145 28.8675C60.3376 28.6542 59.7559 28.7149 58.9902 29.7066C57.5659 31.5508 56.3464 33.5491 54.9848 35.4429C53.9508 36.8813 52.9691 38.3981 51.7152 39.6328C48.9786 42.3265 45.6147 43.9256 41.7768 44.4389C40.8818 44.5588 39.9225 44.5699 39.0499 44.3766C38.3845 44.2293 37.5172 43.8034 37.2876 43.2701C37.1104 42.8568 37.666 41.9866 38.0981 41.4948C38.961 40.5134 39.9203 39.6024 40.9154 38.7499C44.962 35.2852 48.9898 31.7967 53.1291 28.4431C54.4368 27.3832 56.0062 26.5729 57.5666 25.9019C60.6898 24.5584 61.8547 25.1102 63.0203 28.2705C65.5236 26.8974 68.0643 26.6226 70.6625 28.3098C70.6767 28.0276 70.7298 27.8683 70.6835 27.7461C69.9103 25.7116 71.2719 24.8532 73.0918 24.9828C73.8432 25.0361 74.6186 25.1368 75.3244 25.3805C83.487 28.1964 89.0686 33.4928 91.3408 41.9095C91.6676 43.1183 91.2631 43.9034 90.0413 43.8745C88.6611 43.8419 87.1552 43.5738 85.9454 42.9494C82.4701 41.157 80.0521 38.2841 78.372 34.8001C77.667 33.338 77.0209 31.8486 76.3009 30.3947C76.0228 29.8325 75.6706 29.2837 75.2511 28.8186C74.2746 27.7298 73.4671 27.8217 72.6192 28.9882Z" fill="#CDCDCD"/>
<path d="M65.1109 31.2501C65.2148 31.1316 65.3718 30.9524 65.475 30.8346C65.872 30.5695 66.2571 30.3317 66.5405 30.5539C66.7528 30.7206 67.0481 30.7421 67.2971 30.6369C67.3569 30.6117 67.416 30.5865 67.4736 30.5621C67.9274 30.3703 68.4441 30.6413 68.5383 31.122C68.539 31.1272 68.5405 31.1324 68.5413 31.1376C68.6063 31.4723 68.8867 31.7256 69.2299 31.756C69.9387 31.8182 70.5586 32.0019 69.7922 33.2558C69.7398 33.3417 69.8505 33.5328 69.8984 33.6706C70.4195 35.166 69.1873 37.2205 67.6321 37.4271C67.2321 37.4805 66.8186 37.4353 66.4171 37.4753C65.8974 37.3131 65.4458 37.1724 64.9262 37.0094C64.6435 36.7613 64.3609 36.5124 64.0783 36.2643C63.8218 36.0384 63.7463 35.6733 63.8914 35.3652C64.2862 34.5268 63.9018 33.641 63.7089 32.7092C63.6117 32.2411 63.9714 31.7753 64.4536 31.7901C64.7557 31.7997 64.9524 31.5708 65.1109 31.2501Z" fill="white" stroke="black" stroke-width="3" stroke-miterlimit="10"/>
</svg>
