<svg width="12" height="20" viewBox="0 0 12 20" fill="none" xmlns="http://www.w3.org/2000/svg">
<path d="M0.899816 19.2253C0.716483 19.0253 0.62065 18.792 0.612316 18.5253C0.603983 18.2586 0.699816 18.0253 0.899816 17.8253L8.77482 9.9503L0.899816 2.0753C0.716483 1.89197 0.62065 1.6628 0.612316 1.3878C0.603983 1.1128 0.699816 0.875305 0.899816 0.675305C1.08315 0.475305 1.31232 0.371138 1.58732 0.362805C1.86232 0.354471 2.09982 0.450305 2.29982 0.650305L11.0748 9.42531C11.1581 9.50864 11.2165 9.59197 11.2498 9.67531C11.2831 9.75864 11.2998 9.8503 11.2998 9.9503C11.2998 10.0503 11.2831 10.142 11.2498 10.2253C11.2165 10.3086 11.1581 10.392 11.0748 10.4753L2.29982 19.2503C2.11648 19.4336 1.88732 19.5253 1.61232 19.5253C1.33732 19.5253 1.09982 19.4253 0.899816 19.2253Z" fill="#47464F"/>
</svg>
