<svg width="11" height="20" viewBox="0 0 11 20" fill="none" xmlns="http://www.w3.org/2000/svg">
<path d="M8.7 19.1004L0.275 10.7004C0.175 10.6004 0.104167 10.4921 0.0625 10.3754C0.0208333 10.2587 0 10.1337 0 10.0004C0 9.86706 0.0208333 9.74206 0.0625 9.62539C0.104167 9.50872 0.175 9.40039 0.275 9.30039L8.7 0.875391C8.93333 0.642057 9.225 0.525391 9.575 0.525391C9.925 0.525391 10.225 0.650391 10.475 0.900391C10.725 1.15039 10.85 1.44206 10.85 1.77539C10.85 2.10872 10.725 2.40039 10.475 2.65039L3.125 10.0004L10.475 17.3504C10.7083 17.5837 10.825 17.8712 10.825 18.2129C10.825 18.5546 10.7 18.8504 10.45 19.1004C10.2 19.3504 9.90833 19.4754 9.575 19.4754C9.24167 19.4754 8.95 19.3504 8.7 19.1004Z" fill="#5954A8"/>
</svg>
