<svg width="14" height="14" viewBox="0 0 14 14" fill="none" xmlns="http://www.w3.org/2000/svg">
<path d="M7.00078 8.3998L2.10078 13.2998C1.91745 13.4831 1.68411 13.5748 1.40078 13.5748C1.11745 13.5748 0.884115 13.4831 0.700781 13.2998C0.517448 13.1165 0.425781 12.8831 0.425781 12.5998C0.425781 12.3165 0.517448 12.0831 0.700781 11.8998L5.60078 6.9998L0.700781 2.0998C0.517448 1.91647 0.425781 1.68314 0.425781 1.3998C0.425781 1.11647 0.517448 0.883138 0.700781 0.699805C0.884115 0.516471 1.11745 0.424805 1.40078 0.424805C1.68411 0.424805 1.91745 0.516471 2.10078 0.699805L7.00078 5.5998L11.9008 0.699805C12.0841 0.516471 12.3174 0.424805 12.6008 0.424805C12.8841 0.424805 13.1174 0.516471 13.3008 0.699805C13.4841 0.883138 13.5758 1.11647 13.5758 1.3998C13.5758 1.68314 13.4841 1.91647 13.3008 2.0998L8.40078 6.9998L13.3008 11.8998C13.4841 12.0831 13.5758 12.3165 13.5758 12.5998C13.5758 12.8831 13.4841 13.1165 13.3008 13.2998C13.1174 13.4831 12.8841 13.5748 12.6008 13.5748C12.3174 13.5748 12.0841 13.4831 11.9008 13.2998L7.00078 8.3998Z" fill="#47464F"/>
</svg>
