<svg width="40" height="40" viewBox="0 0 40 40" fill="none" xmlns="http://www.w3.org/2000/svg">
<rect width="40" height="40" rx="20" fill="#CEE5FF"/>
<path d="M21 26.65C19.7556 26.65 18.7222 26.2139 17.9 25.3417C17.0778 24.4694 16.6667 23.4278 16.6667 22.2167V21.6333C15.7222 21.5111 14.9306 21.0905 14.2917 20.3715C13.6528 19.6525 13.3333 18.8064 13.3333 17.8333V14.5C13.3333 14.3583 13.3812 14.2396 13.4771 14.1437C13.5729 14.0479 13.6917 14 13.8333 14H15.3333V13.8333C15.3333 13.6917 15.3815 13.5729 15.4779 13.4771C15.5743 13.3812 15.6938 13.3333 15.8362 13.3333C15.9787 13.3333 16.0972 13.3812 16.1917 13.4771C16.2861 13.5729 16.3333 13.6917 16.3333 13.8333V15.1667C16.3333 15.3 16.2851 15.4167 16.1887 15.5167C16.0923 15.6167 15.9729 15.6667 15.8304 15.6667C15.6879 15.6667 15.5694 15.6187 15.475 15.5229C15.3806 15.4271 15.3333 15.3083 15.3333 15.1667V15H14.3333V17.8333C14.3333 18.6222 14.6083 19.2917 15.1583 19.8417C15.7083 20.3917 16.3778 20.6667 17.1667 20.6667C17.9556 20.6667 18.625 20.3917 19.175 19.8417C19.725 19.2917 20 18.6222 20 17.8333V15H19V15.1667C19 15.3 18.9518 15.4167 18.8554 15.5167C18.759 15.6167 18.6396 15.6667 18.4971 15.6667C18.3546 15.6667 18.2361 15.6187 18.1417 15.5229C18.0472 15.4271 18 15.3083 18 15.1667V13.8333C18 13.6917 18.0482 13.5729 18.1446 13.4771C18.241 13.3812 18.3604 13.3333 18.5029 13.3333C18.6454 13.3333 18.7639 13.3812 18.8583 13.4771C18.9528 13.5729 19 13.6917 19 13.8333V14H20.5C20.6417 14 20.7604 14.0479 20.8562 14.1437C20.9521 14.2396 21 14.3583 21 14.5V17.8333C21 18.8064 20.6806 19.6525 20.0417 20.3715C19.4028 21.0905 18.6111 21.5111 17.6667 21.6333V22.2167C17.6667 23.1611 17.9806 23.9694 18.6083 24.6417C19.2361 25.3139 20.0333 25.65 21 25.65V26.65ZM23.5667 24.5667L26.2833 21.8667C26.3833 21.7667 26.5 21.7194 26.6333 21.725C26.7667 21.7306 26.8833 21.7825 26.9833 21.8807C27.0833 21.9789 27.1333 22.0956 27.1333 22.2307C27.1333 22.3658 27.0833 22.4833 26.9833 22.5833L23.9167 25.6333C23.8189 25.7333 23.7028 25.7833 23.5683 25.7833C23.4339 25.7833 23.3167 25.7333 23.2167 25.6333L21.5667 23.9833C21.4667 23.8856 21.4167 23.7694 21.4167 23.635C21.4167 23.5006 21.4667 23.3833 21.5667 23.2833C21.6667 23.1833 21.7833 23.1333 21.9167 23.1333C22.05 23.1333 22.1667 23.1833 22.2667 23.2833L23.5667 24.5667Z" fill="#00639B"/>
</svg>
