<svg width="40" height="40" viewBox="0 0 40 40" fill="none" xmlns="http://www.w3.org/2000/svg">
<rect width="40" height="40" rx="20" fill="#FFD8E9"/>
<path d="M16.6638 27C16.5213 27 16.4028 26.9521 16.3083 26.8563C16.2139 26.7604 16.1667 26.6417 16.1667 26.5V23.1667H15.1667C14.9 23.1667 14.6667 23.0667 14.4667 22.8667C14.2667 22.6667 14.1667 22.4333 14.1667 22.1667V16.8333H14C13.8583 16.8333 13.7396 16.7851 13.6438 16.6888C13.5479 16.5924 13.5 16.4729 13.5 16.3304C13.5 16.1879 13.5479 16.0694 13.6438 15.975C13.7396 15.8806 13.8583 15.8333 14 15.8333H16.1667V14.3333H15.6667C15.525 14.3333 15.4063 14.2851 15.3104 14.1888C15.2146 14.0924 15.1667 13.9729 15.1667 13.8304C15.1667 13.6879 15.2146 13.5694 15.3104 13.475C15.4063 13.3806 15.525 13.3333 15.6667 13.3333H17.6667C17.8083 13.3333 17.9271 13.3815 18.0229 13.4779C18.1188 13.5743 18.1667 13.6938 18.1667 13.8363C18.1667 13.9788 18.1188 14.0972 18.0229 14.1917C17.9271 14.2861 17.8083 14.3333 17.6667 14.3333H17.1667V15.8333H19.3333C19.475 15.8333 19.5938 15.8815 19.6896 15.9779C19.7854 16.0743 19.8333 16.1938 19.8333 16.3363C19.8333 16.4788 19.7854 16.5972 19.6896 16.6917C19.5938 16.7861 19.475 16.8333 19.3333 16.8333H19.1667V22.1667C19.1667 22.4333 19.0667 22.6667 18.8667 22.8667C18.6667 23.0667 18.4333 23.1667 18.1667 23.1667H17.1667V26.5C17.1667 26.6417 17.1185 26.7604 17.0221 26.8563C16.9257 26.9521 16.8062 27 16.6638 27ZM15.1667 22.1667H18.1667V20.8333H16.8333C16.7444 20.8333 16.6667 20.8 16.6 20.7333C16.5333 20.6667 16.5 20.5889 16.5 20.5C16.5 20.4111 16.5333 20.3333 16.6 20.2667C16.6667 20.2 16.7444 20.1667 16.8333 20.1667H18.1667V18.8333H16.8333C16.7444 18.8333 16.6667 18.8 16.6 18.7333C16.5333 18.6667 16.5 18.5889 16.5 18.5C16.5 18.4111 16.5333 18.3333 16.6 18.2667C16.6667 18.2 16.7444 18.1667 16.8333 18.1667H18.1667V16.8333H15.1667V22.1667ZM22 26.6667C21.7333 26.6667 21.5 26.5667 21.3 26.3667C21.1 26.1667 21 25.9333 21 25.6667V21.2333C21 20.8778 21.0444 20.6083 21.1333 20.425C21.2222 20.2417 21.3389 20.0722 21.4833 19.9167C21.6944 19.6944 21.8333 19.5222 21.9 19.4C21.9667 19.2778 22 19.1444 22 19V18.5H21.8333C21.6917 18.5 21.5729 18.4518 21.4771 18.3554C21.3813 18.259 21.3333 18.1396 21.3333 17.9971C21.3333 17.8546 21.3833 17.7361 21.4833 17.6417C21.5833 17.5472 21.7 17.5 21.8333 17.5H25.1667C25.3083 17.5 25.4271 17.5482 25.5229 17.6446C25.6188 17.741 25.6667 17.8604 25.6667 18.0029C25.6667 18.1454 25.6188 18.2639 25.5229 18.3583C25.4271 18.4528 25.3083 18.5 25.1667 18.5H25V19C25 19.1333 25.0417 19.2722 25.125 19.4167C25.2083 19.5611 25.3556 19.7444 25.5667 19.9667C25.7111 20.1222 25.8194 20.2833 25.8917 20.45C25.9639 20.6167 26 20.8778 26 21.2333V25.6667C26 25.9333 25.9 26.1667 25.7 26.3667C25.5 26.5667 25.2667 26.6667 25 26.6667H22ZM22 21.6667H25V21.2333C25 21.0333 24.9444 20.8556 24.8333 20.7C24.7222 20.5444 24.6 20.3833 24.4667 20.2167C24.3 20.0056 24.1806 19.8111 24.1083 19.6333C24.0361 19.4556 24 19.2444 24 19V18.5H23V19C23 19.2333 22.9667 19.4389 22.9 19.6167C22.8333 19.7944 22.7167 19.9889 22.55 20.2C22.4167 20.3667 22.2917 20.5306 22.175 20.6917C22.0583 20.8528 22 21.0333 22 21.2333V21.6667ZM22 23.6667H25V22.3333H22V23.6667ZM22 25.6667H25V24.3333H22V25.6667Z" fill="#7A5267"/>
</svg>
