<svg width="40" height="40" viewBox="0 0 40 40" fill="none" xmlns="http://www.w3.org/2000/svg">
<rect width="40" height="40" rx="20" fill="#E3DFFF"/>
<mask id="mask0_773_7627" style="mask-type:alpha" maskUnits="userSpaceOnUse" x="0" y="0" width="40" height="40">
<circle cx="20" cy="20" r="20" fill="#FFD8E9"/>
</mask>
<g mask="url(#mask0_773_7627)">
<path d="M14.4626 30.6757C14.4182 29.7479 14.5181 28.8242 14.5194 27.8978C14.5206 26.3944 14.581 24.8897 14.565 23.3863C14.5551 22.4472 14.5379 21.5053 14.4404 20.5662C14.3404 19.6061 13.9987 18.7919 13.4138 18.1027C13.2287 17.8837 13.035 17.6732 12.8364 17.4697C12.4452 17.0696 12.1985 16.5783 12.0862 15.9972C11.969 15.3936 11.9677 14.79 12.1047 14.192C12.4452 12.7083 13.8703 11.9896 15.1005 12.6311C15.3806 12.7771 15.62 12.9974 15.9112 13.2234C15.9124 12.9427 15.8124 12.7392 15.7372 12.53C15.4879 11.8338 15.3127 11.1263 15.372 10.3599C15.4423 9.46431 15.7816 8.69649 16.4689 8.30204C17.2561 7.85145 18.1642 7.84303 18.9526 8.70491C19.5177 9.32254 19.8398 10.1016 20.0508 10.948C20.0915 11.1081 20.1236 11.2709 20.1643 11.4534C20.3395 11.3439 20.3148 11.1375 20.3531 10.9831C20.5221 10.3107 20.7849 9.70575 21.2723 9.25937C21.6967 8.87195 22.1607 8.5898 22.7295 8.59963C24.2903 8.6263 25.2836 10.197 24.8024 11.8801C24.6741 12.3279 24.484 12.7448 24.2805 13.2557C24.4495 13.1575 24.5618 13.1013 24.6654 13.0297C25.0171 12.7911 25.4033 12.669 25.8055 12.6283C26.7938 12.5272 27.6649 13.2431 27.9068 14.3787C28.1178 15.3655 27.9586 16.3088 27.5502 17.2015C27.4268 17.4725 27.2639 17.7139 27.0875 17.9441C26.7198 18.4256 26.3484 18.9042 25.9869 19.3899C25.4847 20.0651 25.217 20.8456 25.2367 21.7355C25.2787 23.7105 25.3231 25.6842 25.3786 27.6578C25.4168 29.0095 25.4748 30.3599 25.5242 31.7103C25.5341 31.998 25.6155 32.2802 25.5674 32.5707C25.3453 32.436 25.1269 32.4444 24.8851 32.5258C23.9868 32.8276 23.0774 33.0761 22.1409 33.1799C22.0755 33.187 22.0077 33.1996 21.9694 33.281C22.0447 33.4789 22.2063 33.4466 22.3458 33.4649C23.2243 33.5884 24.104 33.6081 24.985 33.4817C25.1799 33.4537 25.3835 33.4116 25.5772 33.5098C25.6019 33.6432 25.6426 33.7751 25.6488 33.9099C25.7056 35.2294 25.7574 36.5488 25.8092 37.8669C25.2626 38.1112 24.695 38.2614 24.1164 38.3624C24.0115 38.3807 23.9041 38.3779 23.8017 38.4158C23.7388 38.4396 23.6635 38.4635 23.6524 38.5463C23.6376 38.6656 23.7339 38.6895 23.8054 38.7148C24.3644 38.9071 24.9381 38.8579 25.5082 38.8383C25.7895 38.8285 25.671 38.4537 25.8401 38.3358C25.845 38.3498 25.8561 38.3624 25.8561 38.3765C25.887 39.6693 26.0276 40.9551 26.0116 42.2507C25.9141 42.4402 25.7426 42.4921 25.5772 42.5511C24.299 43.0101 22.9985 43.3512 21.661 43.4958C21.4932 43.514 21.313 43.5098 21.1761 43.6656C21.2143 43.8495 21.3513 43.8425 21.4611 43.8579C22.4691 43.9983 23.4772 44.1457 24.4964 43.9787C24.8147 43.9267 25.138 43.9674 25.4576 43.9422C25.7821 43.9155 25.9968 43.792 25.9597 43.3582C25.9462 43.1982 25.9462 43.0185 26.0807 42.8978C26.0942 42.9399 26.1177 42.982 26.1177 43.0227C26.1214 44.0166 26.2522 45.0048 26.2287 46C22.0287 46 17.8273 46 13.6273 46C13.7124 45.4582 13.6606 44.9009 13.779 44.3633C14.3898 44.265 15.003 44.3422 15.6138 44.324C16.0012 44.3127 16.3899 44.3366 16.7712 44.2383C16.897 44.2061 17.0401 44.2215 17.145 44.0488C16.9809 43.8902 16.7736 43.9029 16.5873 43.865C15.7841 43.7021 14.9895 43.5 14.2195 43.187C14.0937 43.1364 13.9616 43.1013 13.8666 42.9834C13.8284 42.0429 13.9456 41.1109 13.9826 40.1732C14.0221 39.1457 14.1146 38.121 14.1344 37.0921C14.1356 37.0163 14.1332 36.9405 14.1776 36.8759C14.3244 37.0107 14.3022 37.2044 14.2997 37.3812C14.296 37.6704 14.4021 37.8178 14.6551 37.8852C16.3294 38.3316 17.9421 38.0578 19.5214 37.3742C19.6424 37.3223 19.7978 37.2549 19.7546 37.0626C19.7127 36.8717 19.5486 36.8394 19.3981 36.831C18.7861 36.7959 18.1728 36.8492 17.5608 36.7257C16.5157 36.5138 15.5225 36.1179 14.5342 35.6982C14.4317 35.6547 14.3429 35.5915 14.2664 35.5045C14.3022 34.3605 14.3355 33.2178 14.3775 32.0752C14.3861 31.852 14.3404 31.6232 14.4169 31.4043C14.549 31.7187 14.7698 31.8169 15.0721 31.8717C15.5916 31.9657 16.0827 31.8464 16.5824 31.7608C16.6799 31.744 16.8341 31.744 16.8316 31.5924C16.8291 31.4379 16.6799 31.452 16.5787 31.4379C15.9482 31.3565 15.3596 31.1053 14.7637 30.8807C14.6538 30.8386 14.5379 30.795 14.4626 30.6757Z" fill="#F6950E"/>
<path d="M14.2689 35.5059C14.7378 35.5775 15.1536 35.8357 15.5941 36.0042C16.3776 36.306 17.1734 36.5544 17.9915 36.6724C18.4653 36.7411 18.9526 36.699 19.4338 36.6976C19.6041 36.6962 19.7485 36.7313 19.8608 36.8899C19.994 37.0766 19.9915 37.203 19.8237 37.3517C19.7509 37.4163 19.6658 37.4697 19.5782 37.5019C18.7688 37.8037 17.9594 38.069 17.1018 38.1841C16.1937 38.3049 15.3275 38.1448 14.449 37.9792C14.2417 37.9399 14.185 37.8206 14.1874 37.6086C14.1899 37.3658 14.1813 37.1229 14.1776 36.8801C14.1825 36.4197 14.1751 35.9579 14.2689 35.5059Z" fill="#C25F04"/>
<path d="M26.0819 42.902C26.0782 43.1758 26.072 43.4481 26.072 43.7218C26.072 43.8748 26.0424 43.9759 25.8808 44.0012C25.6439 44.0376 25.4119 44.105 25.1688 44.091C24.5544 44.0587 23.9485 44.2075 23.3316 44.1822C22.6518 44.1556 21.9805 44.0559 21.3056 43.9871C21.2168 43.9787 21.1292 43.9211 21.0477 43.872C20.9725 43.8257 20.9342 43.7443 20.9527 43.6418C20.97 43.5421 21.0305 43.4804 21.1144 43.4621C21.297 43.4228 21.4808 43.3793 21.6659 43.3611C22.8245 43.2544 23.9498 42.9568 25.0652 42.5988C25.3848 42.4964 25.6982 42.37 26.014 42.2535C26.1103 42.4599 26.0757 42.6831 26.0819 42.902Z" fill="#C26004"/>
<path d="M25.5772 33.5126C25.2071 33.6459 24.8196 33.6544 24.4408 33.6754C23.6857 33.7175 22.9269 33.7063 22.173 33.594C22.1594 33.5926 22.1459 33.594 22.1335 33.5912C21.8979 33.5533 21.7288 33.4256 21.7473 33.2754C21.7843 32.989 21.9916 33.062 22.1557 33.0452C22.8294 32.9792 23.4883 32.8149 24.1435 32.6325C24.4779 32.5398 24.8085 32.4261 25.138 32.3166C25.4489 32.2128 25.4489 32.2085 25.5661 32.5707C25.6068 32.8851 25.5933 33.1996 25.5772 33.5126Z" fill="#C25F04"/>
<path d="M13.8679 42.9877C14.0172 42.9778 14.1566 43.0227 14.296 43.0803C15.1856 43.4453 16.1049 43.6656 17.0389 43.8144C17.1191 43.8271 17.1956 43.8369 17.2635 43.8945C17.4189 44.025 17.4091 44.1864 17.224 44.2622C16.9229 44.3857 16.6046 44.4405 16.2875 44.4489C15.5805 44.4672 14.8735 44.4531 14.1677 44.4573C14.032 44.4587 13.9024 44.4377 13.7803 44.3703C13.7704 44.0882 13.7667 43.806 13.8062 43.5253C13.8617 43.3821 13.8 43.2235 13.8518 43.0803C13.858 43.048 13.8629 43.0171 13.8679 42.9877Z" fill="#C25F04"/>
<path d="M14.4626 30.6757C14.9759 30.7782 15.4423 31.0589 15.9531 31.1768C16.2011 31.2344 16.4405 31.334 16.6984 31.3158C16.7378 31.313 16.781 31.313 16.8181 31.327C16.9353 31.3719 17.0525 31.4421 17.0475 31.6007C17.0426 31.7327 16.9427 31.8099 16.8366 31.8436C16.7341 31.8759 16.6256 31.8773 16.5232 31.9067C15.905 32.0794 15.2844 32.0359 14.6613 31.9446C14.5194 31.9236 14.4478 31.838 14.4404 31.6765C14.4367 31.5853 14.4281 31.4955 14.4207 31.4042C14.4009 31.16 14.428 30.9172 14.4626 30.6757Z" fill="#C36005"/>
<path d="M25.8413 38.34C25.8018 38.9801 25.8018 38.9829 25.2379 38.9787C24.8011 38.9759 24.3619 39.0208 23.9325 38.8874C23.8943 38.8762 23.8474 38.8874 23.8153 38.8678C23.6759 38.7836 23.4266 38.8341 23.439 38.5533C23.4488 38.3133 23.6697 38.2923 23.8054 38.2824C24.4335 38.2361 25.0257 38.0255 25.6204 37.8234C25.6932 37.7981 25.7475 37.8473 25.8092 37.8697C25.8364 38.0255 25.8635 38.18 25.8413 38.34Z" fill="#C46105"/>
<path d="M19.9706 16.3228C20.896 16.3214 21.6807 16.6036 22.3359 17.283C22.8813 17.8487 23.1527 18.5533 23.0922 19.3983C23.0762 19.63 23.1256 19.7942 23.2736 19.9626C24.0855 20.8877 23.9374 22.071 22.9504 22.7406C22.1323 23.2964 20.896 23.2249 20.2396 22.5427C20.0458 22.3405 19.9138 22.4346 19.7546 22.5735C19.113 23.1378 18.3949 23.2389 17.6287 23.0003C17.3708 22.9202 17.1253 22.7939 16.9056 22.617C16.1234 21.9882 16.0148 20.8371 16.6749 20.0455C16.8341 19.856 16.9303 19.6861 16.8921 19.4068C16.7995 18.754 16.976 18.1729 17.3338 17.6662C18.0235 16.6948 18.9465 16.3116 19.9706 16.3228Z" fill="#F1EADC"/>
<path d="M14.6612 17.2002C14.3775 17.2072 14.1307 17.1412 13.8864 17.0654C13.1485 16.8366 12.7796 15.1592 13.1633 14.5766C13.6051 13.9071 14.6637 13.7821 15.2893 14.3619C15.9914 15.0132 15.9704 16 15.5768 16.7369C15.3658 17.1342 15.008 17.2044 14.6612 17.2002Z" fill="#F1EADC"/>
<path d="M17.5966 12.8908C17.4745 12.9034 17.3054 12.8711 17.1549 12.7574C16.5922 12.3349 16.2714 11.0253 16.5725 10.3388C16.7588 9.91493 17.0525 9.61453 17.451 9.46434C17.9211 9.28747 18.3369 9.44328 18.601 9.91493C18.8996 10.4497 19.0513 11.0421 19.0674 11.6766C19.076 12.0065 18.9502 12.2647 18.7244 12.457C18.4085 12.7294 18.0531 12.8866 17.5966 12.8908Z" fill="#F1EADC"/>
<path d="M26.9715 15.3655C26.974 16.4955 26.3336 17.2226 25.2429 17.311C24.8394 17.3433 24.4878 16.9924 24.4113 16.4913C24.3064 15.8063 24.4384 15.1451 24.7506 14.5682C25.1985 13.7414 26.3065 13.7512 26.7951 14.5457C26.9444 14.7886 26.9752 14.9317 26.9715 15.3655Z" fill="#F1EADC"/>
<path d="M21.3883 12.0093C21.3846 11.5741 21.4771 11.1628 21.6375 10.7754C21.8498 10.263 22.2212 9.99353 22.7147 9.96405C23.2477 9.93177 23.6759 10.3515 23.7314 10.9551C23.7697 11.365 23.7302 11.7678 23.6278 12.1707C23.4094 13.0297 22.785 13.2824 22.2446 13.3259C21.83 13.3582 21.4919 13.0129 21.4167 12.5104C21.3908 12.3447 21.3957 12.1749 21.3883 12.0093Z" fill="#F1EADC"/>
</g>
</svg>
