<svg width="40" height="40" viewBox="0 0 40 40" fill="none" xmlns="http://www.w3.org/2000/svg">
<rect width="40" height="40" rx="20" fill="#E3DFFF"/>
<mask id="mask0_773_7637" style="mask-type:alpha" maskUnits="userSpaceOnUse" x="0" y="0" width="40" height="40">
<circle cx="20" cy="20" r="20" fill="#FFD8E9"/>
</mask>
<g mask="url(#mask0_773_7637)">
<path d="M17.1786 9.06919C17.25 9.15478 17.3079 9.25259 17.4359 9.24852C18.6572 9.21591 19.2641 10.1003 19.7553 11.1505C19.9326 11.5309 20.0286 11.9452 20.132 12.3555C20.1443 12.4058 20.132 12.4778 20.2453 12.4887C20.3105 12.2509 20.3708 12.0023 20.4484 11.7605C20.7463 10.8272 21.3163 10.1941 22.1707 9.87617C22.4181 9.78378 22.6705 9.7702 22.9217 9.80552C23.1753 9.84084 23.3267 9.71722 23.4301 9.48762C23.5249 9.27976 23.6123 9.06783 23.7169 8.82465C23.9398 8.9836 23.9447 9.21863 23.9447 9.44415C23.9447 9.58951 23.9213 9.73759 23.8942 9.88024C23.8585 10.0609 23.9016 10.1778 24.0506 10.2824C24.8471 10.8448 25.0859 11.8841 24.8249 12.8935C24.7117 13.3337 24.4987 13.7277 24.3547 14.176C24.5012 14.2249 24.591 14.1176 24.6858 14.0619C25.3826 13.6557 26.0991 13.5442 26.839 13.8948C27.0581 13.998 27.233 13.9396 27.3905 13.7874C27.5666 13.6176 27.7254 13.4261 27.9211 13.2141C28.0627 13.6611 27.9187 13.9939 27.7229 14.3105C27.6281 14.464 27.5777 14.5835 27.6663 14.7846C28.2597 16.1296 28.0209 17.393 27.2723 18.56C26.9116 19.1211 26.4684 19.6183 26.0597 20.1427C25.5168 20.8397 25.2226 21.6385 25.2312 22.5637C25.2497 24.4018 25.2989 26.2385 25.3752 28.0753C25.4429 29.7205 25.4799 31.3671 25.5587 33.0123C25.6781 35.5079 25.8233 38.0022 25.9551 40.4965C26.0449 42.1838 26.1311 43.8725 26.2161 45.5598C26.2235 45.7066 26.2148 45.8533 26.2136 46C22.023 46 17.8311 46 13.6405 46C13.7685 43.9486 13.9064 41.8972 14.0233 39.8458C14.1403 37.8079 14.2486 35.7701 14.3385 33.7309C14.4296 31.6469 14.5035 29.5616 14.5355 27.4748C14.5613 25.7848 14.5699 24.0947 14.5133 22.4047C14.4998 21.9944 14.4505 21.5855 14.4074 21.1766C14.2929 20.1033 13.7352 19.3099 13.0458 18.6089C12.5965 18.1525 12.2185 17.6593 12.0905 16.9719C11.9243 16.0752 11.9588 15.2153 12.434 14.4327C12.5411 14.2575 12.5152 14.1203 12.4524 13.945C12.2998 13.5184 12.3109 13.2318 12.4598 12.8813C12.6236 12.9845 12.6679 13.1802 12.7615 13.3337C12.9929 13.7141 13.0606 13.7412 13.4459 13.6027C14.0886 13.3717 14.7066 13.4315 15.2926 13.8065C15.4859 13.9301 15.6705 14.0714 15.8687 14.2127C15.918 14.0741 15.8564 13.9763 15.8232 13.873C15.6705 13.403 15.4772 12.9478 15.3935 12.4533C15.247 11.5839 15.4034 10.7891 15.8687 10.0691C15.9537 9.9373 16.0386 9.79737 16.1716 9.72265C16.419 9.58408 16.5421 9.35856 16.5938 9.07055C16.7921 9.36128 16.9853 9.23493 17.1786 9.06919Z" fill="#362F2B"/>
<path d="M17.1786 9.06919C17.1651 9.35177 16.9558 9.3898 16.7785 9.40338C16.5816 9.41833 16.6456 9.19281 16.5988 9.07054C16.5914 8.63308 16.765 8.29481 17.0728 8C17.218 8.1834 17.122 8.3736 17.1368 8.5475C17.1516 8.72139 17.1651 8.89529 17.1786 9.06919Z" fill="#141314"/>
<path d="M20.1087 24.1844C19.6803 24.2388 19.3122 24.0621 19.0069 23.766C18.7644 23.5309 18.5071 23.4562 18.2018 23.4752C17.9088 23.4929 17.6244 23.4685 17.3375 23.3598C16.6715 23.1084 16.2899 22.5868 16.2308 21.8463C16.1852 21.2703 16.4056 20.7337 16.6974 20.2446C16.9941 19.7474 17.4286 19.4417 17.8817 19.1659C18.1587 18.9975 18.3716 18.7774 18.5526 18.4962C19.1374 17.5887 20.2983 17.3414 21.1416 17.9025C21.442 18.1022 21.6722 18.3929 21.879 18.6986C22.0021 18.8806 22.1413 19.0219 22.3198 19.132C22.9858 19.5409 23.5336 20.0762 23.8315 20.8777C24.0938 21.5841 24.0433 22.4876 23.5004 22.9835C23.1606 23.2932 22.7666 23.4494 22.3296 23.4766C22.1967 23.4848 22.0625 23.4861 21.9295 23.4766C21.7325 23.4617 21.5799 23.5296 21.4211 23.6695C21.0443 24.0051 20.6208 24.2469 20.1087 24.1844Z" fill="#0C0A0C"/>
<path d="M23.8131 12.4329C23.8143 13.0565 23.5964 13.5999 23.2899 14.1053C23.0215 14.5482 22.6103 14.517 22.2089 14.4517C22.0009 14.4178 21.8015 14.3145 21.6205 14.1855C21.2253 13.9029 21.1108 13.5646 21.213 13.0524C21.3226 12.5009 21.4974 11.9819 21.8236 11.5431C22.0477 11.2415 22.3234 11.054 22.7014 11.016C23.4167 10.9467 23.7577 11.5866 23.8106 12.1232C23.8217 12.2264 23.8131 12.3297 23.8131 12.4329Z" fill="#0C0A0C"/>
<path d="M13.3229 16.0861C13.3291 15.2383 13.9139 14.7466 14.618 14.9666C15.321 15.1867 15.8442 15.6595 16.1754 16.3741C16.3219 16.6906 16.3366 17.018 16.1532 17.3387C15.987 17.6294 15.774 17.8766 15.5192 18.0614C15.2324 18.2679 14.8938 18.2666 14.6057 18.0818C14.0788 17.7462 13.6689 17.2748 13.4202 16.6458C13.3439 16.4502 13.3131 16.2559 13.3229 16.0861Z" fill="#0C0A0C"/>
<path d="M25.0626 18.2829C24.5468 18.2068 24.2009 17.8699 23.9842 17.3686C23.7872 16.9107 23.8796 16.4855 24.2267 16.0915C24.4028 15.8918 24.58 15.6935 24.7635 15.5006C25.1574 15.0876 25.6191 14.9422 26.1497 15.0903C26.6569 15.2316 26.9585 15.7668 26.8403 16.3361C26.6631 17.1906 26.2026 17.7965 25.4935 18.1851C25.3556 18.2625 25.2165 18.2788 25.0626 18.2829Z" fill="#0C0A0C"/>
<path d="M16.6111 12.1123C16.5877 11.6694 16.6271 11.285 16.9349 10.9643C17.2599 10.6261 17.6132 10.6071 18.0023 10.7443C18.2386 10.8271 18.4258 11.001 18.5686 11.213C18.9834 11.8243 19.1423 12.5212 19.0832 13.2793C19.0745 13.3962 19.0228 13.5062 18.9551 13.5972C18.6277 14.0387 18.1746 14.2031 17.6883 14.1882C17.3165 14.1773 17.058 13.8852 16.9066 13.5239C16.7182 13.0715 16.5557 12.6055 16.6111 12.1123Z" fill="#0C0A0C"/>
</g>
</svg>
