<svg width="40" height="40" viewBox="0 0 40 40" fill="none" xmlns="http://www.w3.org/2000/svg">
<rect width="40" height="40" rx="20" fill="#E3DFFF"/>
<mask id="mask0_773_7672" style="mask-type:alpha" maskUnits="userSpaceOnUse" x="0" y="0" width="40" height="40">
<circle cx="20" cy="20" r="20" fill="#FFD8E9"/>
</mask>
<g mask="url(#mask0_773_7672)">
<path d="M13.6092 46C13.7547 44.1274 13.8608 42.2506 13.9632 40.3737C14.0384 38.997 14.147 37.6217 14.1827 36.2422C14.1852 36.1523 14.179 36.061 14.1778 35.9697C14.253 35.6564 14.1963 35.3361 14.2111 35.0186C14.2296 34.6478 14.3739 34.5059 14.6773 34.645C15.3496 34.954 16.0711 35.0734 16.7434 35.3502C17.4711 35.6494 18.2174 35.6058 18.9525 35.7196C19.7752 35.8475 20.614 35.832 21.4268 35.7042C22.6146 35.5159 23.8037 35.2855 24.9298 34.7644C25.1494 34.6632 25.3652 34.4525 25.6341 34.6084C25.7143 34.8079 25.7143 35.0214 25.7254 35.2336C25.8339 37.3225 25.9412 39.4129 26.0498 41.5018C26.1275 43.0007 26.2077 44.4997 26.2854 45.9986C22.0596 46 17.8338 46 13.6092 46Z" fill="#766A5E"/>
<path d="M25.6341 34.6099C24.8719 34.9175 24.1256 35.2771 23.3263 35.4541C22.9464 35.5384 22.5542 35.575 22.1879 35.6958C21.5243 35.9149 20.8372 35.7885 20.1736 35.9458C20.1218 35.9585 20.0626 35.9697 20.0145 35.9528C19.547 35.7885 19.0586 35.9374 18.5862 35.8166C18.3679 35.7604 18.1347 35.7716 17.9078 35.7772C17.65 35.7829 17.3996 35.7337 17.1615 35.6382C16.5103 35.3755 15.8331 35.2308 15.167 35.0313C15.0622 35.0004 14.9648 34.9554 14.8796 34.8782C14.7736 34.7784 14.6428 34.7405 14.5145 34.6998C14.3702 34.6548 14.279 34.7138 14.2666 34.8908C14.2531 35.0875 14.2481 35.2856 14.2321 35.4822C14.2185 35.6466 14.2555 35.818 14.1741 35.9725C14.1716 35.6382 14.1679 35.3038 14.1667 34.9695C14.1667 34.9091 14.1544 34.8318 14.1815 34.7897C14.406 34.4343 14.3049 34.0283 14.3283 33.6419C14.3826 32.7794 14.3641 31.9112 14.427 31.0543C14.4948 30.1271 14.427 29.2013 14.4948 28.2812C14.6465 26.2316 14.5367 24.1806 14.5614 22.131C14.5701 21.437 14.4973 20.7402 14.385 20.0575C14.2568 19.275 13.8584 18.6414 13.4007 18.0598C13.2133 17.8224 13.0134 17.5962 12.8062 17.3813C11.944 16.4878 11.7109 14.6377 12.414 13.3973C12.763 12.782 13.2922 12.4476 13.9521 12.3956C14.5799 12.3451 15.1424 12.5066 15.621 12.9871C15.6703 13.0362 15.7332 13.07 15.8134 13.0573C15.9059 12.8761 15.8319 12.7103 15.7591 12.553C15.4137 11.8028 15.2781 10.9922 15.3829 10.169C15.5149 9.13228 16.2278 7.9972 17.4082 8.00001C18.4234 8.00281 19.0524 8.59564 19.5162 9.5172C19.7678 10.0173 19.9923 10.5371 20.1033 11.1074C20.1181 11.1847 20.1292 11.2704 20.2143 11.2592C20.2834 11.2493 20.3192 11.1749 20.3401 11.0976C20.4154 10.8237 20.4734 10.5441 20.577 10.28C20.9421 9.34862 21.9584 8.44814 22.8749 8.56474C23.7704 8.67853 24.6868 9.3416 24.8928 10.4668C25.0273 11.2058 24.825 11.9082 24.5573 12.5825C24.4944 12.7412 24.392 12.8859 24.3846 13.0784C24.5401 13.1079 24.6227 12.9955 24.7275 12.9421C25.348 12.6331 25.961 12.4532 26.6554 12.7244C27.4646 13.0405 27.8223 13.7499 27.9432 14.59C28.0431 15.2783 28.0307 16.006 27.747 16.6887C27.5398 17.1874 27.2697 17.6271 26.9724 18.0556C26.5432 18.6723 26.0387 19.2188 25.6687 19.8889C25.4072 20.3623 25.2641 20.8849 25.2481 21.4328C25.2222 22.3445 25.1839 23.2646 25.2567 24.1693C25.3393 25.2033 25.2481 26.2372 25.3369 27.2613C25.4072 28.0677 25.3369 28.8726 25.4133 29.6691C25.4824 30.3968 25.4294 31.1273 25.4947 31.848C25.5725 32.6923 25.5725 33.5394 25.6403 34.3823C25.6489 34.4581 25.6378 34.534 25.6341 34.6099Z" fill="#F1EADC"/>
<path d="M21.6686 22.8081C21.2455 22.8179 20.8927 22.7533 20.5363 22.5777C20.0688 22.3487 19.5668 22.3796 19.0956 22.6114C18.5701 22.8699 18.0139 22.8826 17.481 22.7758C16.5559 22.5918 15.7603 21.4145 15.9602 20.2064C16.123 19.2216 16.5288 18.3731 17.1369 17.6693C17.7314 16.9824 18.485 16.6171 19.3114 16.4064C20.2464 16.1676 21.0432 16.5455 21.8178 17.0442C22.7898 17.6693 23.3831 18.6527 23.652 19.8552C23.8506 20.7402 23.7913 21.6182 23.1043 22.2701C22.6775 22.6761 22.1829 22.8699 21.6686 22.8081Z" fill="#E4A1A2"/>
<path d="M16.4979 10.9094C16.4511 10.5596 16.5473 10.2126 16.6595 9.86983C16.863 9.24189 17.2676 9.04943 17.8005 9.35568C18.4665 9.73778 18.8341 10.3854 18.9759 11.2002C19.0068 11.3744 19.0795 11.5472 19.0512 11.7354C19.0092 12.0178 18.8773 12.2355 18.6898 12.4224C18.3086 12.8031 17.5871 12.9632 17.1911 12.7525C17.0024 12.6514 16.8643 12.5053 16.7668 12.2917C16.5732 11.8633 16.4609 11.4193 16.4979 10.9094Z" fill="#E4A2A2"/>
<path d="M22.4259 13.4183C21.8721 13.3045 21.3417 13.1402 21.0654 12.4827C21.0124 12.3563 20.9704 12.2242 21 12.088C21.2307 11.0344 21.6094 10.2716 22.696 9.91193C23.0414 9.79814 23.2795 9.91052 23.4669 10.2659C23.6483 10.6115 23.7432 10.9936 23.7124 11.394C23.6618 12.0571 23.4781 12.6569 23.0402 13.1388C22.8626 13.3354 22.6825 13.4492 22.4259 13.4183Z" fill="#E4A2A2"/>
<path d="M26.8478 15.0704C26.8454 15.8192 26.6246 16.464 26.1423 16.9809C25.7167 17.4375 25.068 17.453 24.619 17.0245C24.5474 16.9556 24.4882 16.8714 24.4167 16.8025C23.9529 16.3628 23.9504 15.7883 24.2724 15.2193C24.614 14.6166 25.0532 14.1966 25.6674 14.0112C25.8117 13.9676 25.9536 13.9437 26.1004 13.9437C26.5419 13.9466 26.8182 14.243 26.8466 14.7501C26.8528 14.8569 26.8478 14.9636 26.8478 15.0704Z" fill="#E4A2A2"/>
<path d="M14.1174 13.8538C14.8735 13.8833 15.4668 14.2767 15.9232 14.9397C16.1871 15.3247 16.1822 15.9428 15.9256 16.3333C15.6259 16.7899 15.2596 17.0891 14.7144 17.068C14.3332 17.0526 14.0853 16.7997 13.8645 16.5384C13.418 16.0116 13.1491 15.3808 13.1997 14.6124C13.2293 14.1615 13.4427 13.8833 13.8374 13.8552C13.9311 13.8482 14.0249 13.8538 14.1174 13.8538Z" fill="#E4A2A2"/>
</g>
</svg>
