<svg width="40" height="40" viewBox="0 0 40 40" fill="none" xmlns="http://www.w3.org/2000/svg">
<rect width="40" height="40" rx="20" fill="#E3DFFF"/>
<mask id="mask0_773_7662" style="mask-type:alpha" maskUnits="userSpaceOnUse" x="0" y="0" width="40" height="40">
<circle cx="20" cy="20" r="20" fill="#FFD8E9"/>
</mask>
<g mask="url(#mask0_773_7662)">
<path d="M14.5029 30.7637C14.4475 29.9848 14.4918 29.2058 14.5153 28.4283C14.5781 26.3821 14.5916 24.3345 14.5571 22.2883C14.5448 21.6039 14.5079 20.9167 14.4044 20.2379C14.28 19.4265 13.9351 18.7519 13.446 18.1635C13.2625 17.9419 13.0826 17.7119 12.8782 17.5186C11.9937 16.679 11.7042 14.8684 12.3497 13.5589C12.6614 12.9281 13.1701 12.5231 13.8242 12.4215C14.4315 12.3269 14.9907 12.4666 15.4945 12.8759C15.6116 12.9718 15.7298 13.0664 15.8468 13.1595C15.9713 13.0523 15.8838 12.9521 15.8579 12.8674C15.7348 12.4638 15.582 12.0715 15.4761 11.6623C15.3172 11.0513 15.3024 10.4219 15.465 9.81085C15.7101 8.88654 16.2028 8.20777 17.0737 8.04266C17.9619 7.87332 18.7022 8.20777 19.2479 9.05164C19.6667 9.69936 19.9611 10.4106 20.1126 11.198C20.1286 11.2841 20.1163 11.3857 20.2186 11.4492C20.3134 11.3039 20.3233 11.1246 20.3639 10.9581C20.5869 10.0338 21.0168 9.30001 21.783 8.84843C22.5713 8.38275 23.3129 8.52105 24.0113 9.06011C24.8083 9.67678 25.0695 10.5291 24.8576 11.6171C24.7775 12.0235 24.6272 12.3961 24.4807 12.7729C24.4375 12.8829 24.3957 12.993 24.355 13.1003C24.4671 13.2244 24.5385 13.1101 24.6088 13.0636C25.0214 12.7926 25.4587 12.6318 25.9391 12.6219C26.8802 12.6021 27.5072 13.1821 27.8287 14.1417C28.1268 15.0279 28.0012 15.9183 27.7166 16.782C27.5503 17.2872 27.2781 17.719 26.9603 18.1197C26.5932 18.5826 26.2311 19.0539 25.8923 19.545C25.4698 20.1603 25.2357 20.8546 25.237 21.6589C25.2382 23.6458 25.3109 25.6299 25.3528 27.614C25.386 29.1846 25.4747 30.7538 25.54 32.3231C25.4439 32.4698 25.2937 32.498 25.1557 32.5488C24.238 32.8875 23.3018 33.1288 22.3459 33.2671C22.2178 33.2855 22.0749 33.2657 21.9727 33.3885C21.9677 33.5197 22.0552 33.5409 22.1291 33.555C23.149 33.7554 24.1702 33.761 25.1939 33.5846C25.4033 33.5479 25.4415 33.4026 25.4525 33.1994C25.4636 32.9778 25.4033 32.7351 25.572 32.5503C25.6558 32.7944 25.6509 33.0526 25.6435 33.3052C25.6127 34.4581 25.694 35.6054 25.7704 36.7527C25.7962 37.1436 25.7802 37.5401 25.7839 37.9324C25.2678 38.3219 24.6629 38.3727 24.0815 38.5096C23.9177 38.5477 23.7305 38.5039 23.5913 38.7466C24.0532 38.9696 24.5336 38.9343 24.998 38.9964C25.2863 39.0345 25.5819 38.9273 25.8652 39.0599C25.9206 40.0633 25.9773 41.0652 26.0303 42.0685C26.0364 42.1899 26.0253 42.3112 26.0216 42.4326C25.8627 42.6711 25.6139 42.7078 25.3885 42.7882C24.1628 43.2243 22.9027 43.474 21.6315 43.6518C21.4812 43.673 21.3063 43.6391 21.1979 43.855C21.3235 44.0272 21.5021 44.0145 21.6672 44.0328C22.9828 44.1754 24.2983 44.1796 25.6152 44.0413C25.7778 44.0244 25.9576 43.9284 26.1079 44.0978C26.2126 44.7257 26.1966 45.3692 26.2816 46C22.0885 46 17.8954 46 13.701 46C13.669 45.5075 13.7035 45.0207 13.7922 44.538C13.9154 44.3955 14.0644 44.4548 14.2085 44.4689C15.077 44.5479 15.9417 44.4915 16.8052 44.3715C16.9185 44.356 17.0454 44.3518 17.1439 44.2078C16.9949 44.047 16.804 44.0512 16.6254 44.023C15.7348 43.8819 14.886 43.5587 14.0348 43.2454C13.9708 43.2214 13.9191 43.1706 13.8649 43.1269C13.8353 42.3649 13.9437 41.6099 13.9708 40.8521C14.009 39.805 14.1235 38.7622 14.1001 37.7109C14.0927 37.3962 14.0792 37.0787 14.1777 36.7738C14.3453 36.9785 14.2935 37.2367 14.2874 37.471C14.2787 37.8266 14.413 37.9846 14.7148 38.058C16.3186 38.4489 17.8683 38.2344 19.3785 37.5401C19.4647 37.5006 19.5571 37.4738 19.6334 37.4103C19.8084 37.2663 19.7936 37.0998 19.5916 37.0053C19.4401 36.9347 19.2762 36.9531 19.1173 36.9545C17.5012 36.97 15.986 36.4563 14.4968 35.8058C14.4069 35.7663 14.3329 35.7056 14.2738 35.6195C14.3354 34.3975 14.3219 33.1726 14.4376 31.9533C14.567 31.8249 14.7148 31.8912 14.8577 31.9025C15.3627 31.942 15.869 31.9646 16.3716 31.8842C16.5342 31.8588 16.7202 31.863 16.836 31.6782C16.7806 31.5286 16.6598 31.5497 16.5613 31.5342C15.9774 31.4453 15.4182 31.2463 14.8639 31.0248C14.7247 30.9754 14.5855 30.919 14.5029 30.7637Z" fill="#BC8849"/>
<path d="M14.2726 35.6251C14.5325 35.6364 14.7554 35.7888 14.9907 35.8876C15.8789 36.263 16.7818 36.5805 17.7204 36.7343C18.2612 36.8232 18.8081 36.8571 19.3563 36.8444C19.7665 36.8345 19.9094 36.922 19.9266 37.1746C19.9488 37.5105 19.695 37.5528 19.5078 37.6375C18.3671 38.1525 17.187 38.4404 15.9565 38.3614C15.4255 38.3275 14.9008 38.216 14.3785 38.0919C14.2073 38.0509 14.1765 37.9521 14.1642 37.7786C14.1395 37.4427 14.2492 37.1125 14.179 36.7781C14.1876 36.7527 14.1925 36.7258 14.195 36.699C14.2726 36.3914 14.1777 36.0697 14.2467 35.7606C14.2553 35.7155 14.264 35.6703 14.2726 35.6251Z" fill="#020203"/>
<path d="M26.1065 44.102C25.6988 44.157 25.2911 44.2459 24.8821 44.2572C24.0432 44.2826 23.2044 44.284 22.3655 44.2586C21.9689 44.2459 21.5747 44.15 21.1805 44.0921C21.0573 44.0737 20.9859 44.006 20.9834 43.8564C20.981 43.7125 21.0499 43.6321 21.1645 43.5954C21.2027 43.5827 21.2421 43.5742 21.2815 43.57C22.9014 43.4162 24.4732 42.9956 26.0179 42.4354C26.1324 42.9857 26.1312 43.5432 26.1065 44.102Z" fill="#020204"/>
<path d="M25.5683 32.5502C25.4944 32.8226 25.5893 33.0935 25.5782 33.3673C25.5708 33.5635 25.5388 33.6749 25.3405 33.6933C24.8243 33.7399 24.3057 33.8866 23.7958 33.8485C23.202 33.8048 22.5997 33.8146 22.0133 33.6693C21.9369 33.6509 21.8581 33.6143 21.7953 33.5635C21.6721 33.4647 21.682 33.3221 21.815 33.2347C21.8704 33.198 21.9382 33.1712 22.0022 33.1669C23.1367 33.078 24.2269 32.7478 25.3023 32.3484C25.3823 32.3188 25.4587 32.3259 25.5363 32.323C25.5474 32.3993 25.5573 32.4755 25.5683 32.5502Z" fill="#030304"/>
<path d="M13.8648 43.1311C13.9904 43.0817 14.1001 43.1593 14.2097 43.1988C15.1114 43.5248 16.0155 43.8353 16.9603 43.9552C16.9874 43.958 17.0145 43.9552 17.0404 43.9637C17.1771 44.0117 17.3594 44.0244 17.357 44.2403C17.3545 44.4407 17.1845 44.4237 17.0577 44.4647C16.6807 44.5888 16.289 44.579 15.9071 44.5917C15.2025 44.6171 14.4942 44.6566 13.7909 44.5409C13.781 44.0695 13.749 43.5954 13.8648 43.1311Z" fill="#040304"/>
<path d="M14.5029 30.7637C14.8552 30.8936 15.2087 31.0205 15.5598 31.1546C15.901 31.2844 16.2533 31.3522 16.6056 31.4128C16.6709 31.4241 16.7411 31.4171 16.8027 31.4382C16.9135 31.4778 17.0539 31.5032 17.0515 31.681C17.0503 31.8531 16.9098 31.9025 16.8014 31.9307C16.5698 31.9914 16.3333 32.0352 16.0968 32.0592C15.54 32.1156 14.9845 32.0944 14.4363 31.959C14.355 31.554 14.4179 31.1574 14.5029 30.7637Z" fill="#040305"/>
<path d="M25.8614 39.0627C25.4266 39.1714 24.9831 39.1418 24.5495 39.091C24.2477 39.0557 23.9373 39.0599 23.6417 38.947C23.532 38.9047 23.4286 38.8666 23.415 38.7297C23.4002 38.5829 23.4988 38.5209 23.6097 38.4856C23.6737 38.4658 23.7365 38.4207 23.8006 38.4193C24.4608 38.3995 25.073 38.1314 25.7 37.9437C25.7259 37.9366 25.753 37.9366 25.7789 37.9338C25.7912 37.9733 25.8035 38.0128 25.8158 38.0524C25.8491 38.1187 25.822 38.2019 25.8602 38.2668C25.8614 38.5321 25.8614 38.7974 25.8614 39.0627Z" fill="#040405"/>
<path d="M20.0017 16.3417C20.8935 16.3247 21.6831 16.6183 22.3458 17.3196C22.8558 17.8587 23.1231 18.5106 23.08 19.315C23.0665 19.5619 23.0788 19.7779 23.2623 19.9768C24.217 21.0126 23.8055 22.3941 22.7105 22.9318C21.8433 23.358 20.9859 23.2761 20.2234 22.5875C20.0608 22.4407 19.9635 22.4562 19.8108 22.5889C19.2909 23.0362 18.7107 23.2648 18.0505 23.1618C17.5639 23.0856 17.118 22.8979 16.7521 22.5141C16.1178 21.848 16.0796 20.8249 16.6672 20.1067C16.8187 19.9204 16.9172 19.7496 16.9049 19.4688C16.8507 18.1748 17.442 17.1573 18.5186 16.6606C18.7526 16.5534 18.9953 16.4574 19.2429 16.4052C19.4917 16.3502 19.7492 16.36 20.0017 16.3417Z" fill="#F1EADC"/>
<path d="M14.6556 17.2096C14.3994 17.2434 14.1777 17.1715 13.9621 17.0995C13.6394 16.9922 13.393 16.7721 13.2637 16.4024C13.0998 15.9339 12.9385 15.4682 13.0444 14.9418C13.1023 14.6539 13.2427 14.4409 13.4484 14.2856C14.052 13.8298 14.9094 13.9131 15.4317 14.5185C16.0426 15.2255 15.8887 16.2246 15.5758 16.7537C15.3528 17.1291 15.0215 17.2646 14.6556 17.2096Z" fill="#F1EADC"/>
<path d="M17.7967 9.39032C18.144 9.38891 18.4126 9.54132 18.6035 9.88141C18.9065 10.4233 19.042 11.0202 19.0679 11.6538C19.0815 11.9939 18.9644 12.2733 18.7082 12.4709C18.3695 12.7319 18.0085 12.9055 17.5922 12.8999C17.4271 12.8971 17.2768 12.8533 17.1426 12.7404C16.5809 12.2719 16.2852 10.9948 16.5993 10.2991C16.8469 9.75017 17.2362 9.41431 17.7967 9.39032Z" fill="#F1EADC"/>
<path d="M25.2763 17.3069C24.8378 17.3168 24.5397 17.0698 24.4325 16.5802C24.2662 15.821 24.4584 15.1224 24.8033 14.4945C25.0817 13.9865 25.7826 13.8298 26.279 14.0768C26.7939 14.3322 27.0674 14.9164 26.9762 15.5655C26.8223 16.6535 26.2051 17.2857 25.2763 17.3069Z" fill="#F1EADC"/>
<path d="M21.3776 12.0419C21.3603 11.6185 21.4687 11.2262 21.6005 10.8396C21.8124 10.2158 22.3729 9.85035 22.9469 9.95901C23.3534 10.0352 23.6688 10.4275 23.723 10.9398C23.7809 11.4845 23.6959 12.0066 23.4877 12.4977C23.2684 13.017 22.6106 13.3994 22.1105 13.3176C21.7471 13.2583 21.4589 12.9295 21.4034 12.4991C21.3825 12.3481 21.385 12.1943 21.3776 12.0419Z" fill="#F1EADC"/>
</g>
</svg>
