<svg width="40" height="40" viewBox="0 0 40 40" fill="none" xmlns="http://www.w3.org/2000/svg">
<rect width="40" height="40" rx="20" fill="#E3DFFF"/>
<mask id="mask0_773_7652" style="mask-type:alpha" maskUnits="userSpaceOnUse" x="0" y="0" width="40" height="40">
<circle cx="20" cy="20" r="20" fill="#FFD8E9"/>
</mask>
<g mask="url(#mask0_773_7652)">
<path d="M13.9346 46C13.9236 45.9566 13.9261 45.8992 13.9016 45.8711C13.6902 45.633 13.6426 45.3529 13.6804 45.0224C13.6914 44.9285 13.645 44.8277 13.7208 44.7381C13.755 44.6961 13.8063 44.619 13.7929 44.5868C13.7 44.3543 13.8344 44.1064 13.755 43.8837C13.6768 43.6638 13.6829 43.4677 13.755 43.2436C13.8149 43.0588 13.9762 42.8599 13.8002 42.6428C14.0153 42.2198 13.7415 41.7296 13.9505 41.2884C14.025 41.1316 13.9444 40.8795 13.9432 40.6708C13.9419 40.203 13.9089 39.7324 14.0165 39.2716C14.0324 39.2029 14.0385 39.1049 14.0079 39.0517C13.9102 38.8822 13.9762 38.7085 14.0287 38.5769C14.2034 38.1441 14.1827 37.7155 14.0849 37.2743C14.069 37.2043 14.102 37.1217 14.0874 37.0516C14.0373 36.8079 14.3391 36.6595 14.1851 36.3528C14.0849 36.1525 14.2071 35.8583 14.2389 35.6048C14.2706 35.3527 14.2658 35.0922 14.2584 34.8359C14.245 34.3947 14.2609 33.9507 14.19 33.5138C14.1827 33.4703 14.1692 33.4129 14.1863 33.3807C14.3489 33.081 14.2389 32.7364 14.3036 32.4171C14.3366 32.2518 14.5273 32.074 14.3427 31.8387C14.2743 31.7518 14.4197 31.5165 14.3232 31.3274C14.2841 31.2504 14.366 31.0992 14.3757 30.9787C14.3928 30.777 14.5077 30.5711 14.3599 30.3736C14.3024 30.2966 14.3562 30.242 14.3904 30.1762C14.5004 29.9633 14.5529 29.7588 14.4051 29.5207C14.2988 29.3498 14.4442 29.1523 14.4356 28.9577C14.4295 28.8064 14.4772 28.6579 14.4332 28.4941C14.3965 28.361 14.3574 28.1901 14.5456 28.1215C14.5932 28.1047 14.6385 28.0333 14.6006 27.9744C14.4442 27.7293 14.6042 27.438 14.5016 27.1859C14.4576 27.0781 14.4894 26.9688 14.5529 26.889C14.6751 26.7363 14.6482 26.522 14.5774 26.4268C14.3635 26.1397 14.4955 25.875 14.5517 25.5976C14.5639 25.5402 14.6116 25.4604 14.5932 25.4296C14.3611 25.0416 14.6055 24.5976 14.4723 24.2027C14.4393 24.1046 14.4649 24.0262 14.4943 23.9421C14.5407 23.8091 14.5431 23.6774 14.4857 23.5472C14.4576 23.4828 14.3965 23.4001 14.4698 23.3469C14.7631 23.1368 14.5896 22.7881 14.6653 22.5149C14.6788 22.4673 14.6556 22.3609 14.6287 22.3511C14.3635 22.2488 14.3782 22.0205 14.4466 21.7964C14.5554 21.4351 14.4698 21.0821 14.4442 20.725C14.4307 20.5415 14.5016 20.3314 14.3183 20.1942C14.278 20.1634 14.2975 20.0975 14.3183 20.0345C14.3721 19.8692 14.3134 19.6872 14.245 19.5667C13.9395 19.0303 13.7037 18.4392 13.2699 18.0037C13.0145 17.7473 12.7469 17.4924 12.6112 17.1157C12.2483 16.9924 12.3155 16.5106 12.0784 16.2767C11.9648 16.1633 12.0589 15.9868 12.043 15.8398C12.0112 15.547 11.9819 15.2431 12.0137 14.9532C12.0662 14.4854 12.1139 13.998 12.4096 13.6268C12.5685 13.4279 12.5758 13.1562 12.7664 12.9503C13.0572 12.6366 13.3297 12.4097 13.7403 12.4755C13.7758 12.4811 13.8405 12.4727 13.8466 12.4517C13.9688 12.0596 14.1521 12.3537 14.2719 12.4265C14.4307 12.5232 14.5493 12.5736 14.7411 12.5092C14.9721 12.4321 15.2164 12.5596 15.4156 12.7066C15.5256 12.7879 15.605 12.9083 15.7749 12.8635C15.77 12.6156 15.6747 12.4083 15.5659 12.2038C15.4706 12.0231 15.3582 11.8397 15.4633 11.6128C15.5012 11.5315 15.4877 11.4447 15.4291 11.4153C15.1969 11.2948 15.2458 11.0806 15.335 10.9223C15.4682 10.6814 15.4266 10.4391 15.346 10.2374C15.181 9.82283 15.4193 9.5245 15.5989 9.31301C15.7834 9.09592 15.9374 8.83541 16.1549 8.63933C16.3333 8.47966 16.4286 8.19815 16.7207 8.3228C16.739 8.3312 16.7793 8.31299 16.7928 8.29339C17.0115 7.95164 17.3194 8.02307 17.6298 8.00066C17.851 7.98526 17.9756 8.24437 18.187 8.16033C18.363 8.38302 18.6111 8.43765 18.8396 8.54829C19.1878 8.71776 19.2782 9.17015 19.5373 9.44327C19.5459 9.45307 19.5581 9.47408 19.5556 9.48248C19.4249 9.81582 19.7181 9.90826 19.822 10.1071C19.9173 10.2906 20.0469 10.4307 19.9968 10.7108C19.9638 10.8901 20.0725 11.131 20.0786 11.3537C20.0799 11.4027 20.1263 11.4237 20.1678 11.4223C20.2118 11.4195 20.2522 11.3831 20.2387 11.3369C20.1593 11.0623 20.4367 10.8761 20.3731 10.603C20.3536 10.5189 20.4037 10.4629 20.4745 10.4363C20.5222 10.4181 20.6077 10.4125 20.6029 10.3565C20.5601 9.89426 20.9939 9.72339 21.0721 9.33682C21.0819 9.2892 21.1393 9.24719 21.1833 9.21777C21.4876 9.01049 21.7759 8.70936 22.1046 8.62813C22.4578 8.54129 22.8598 8.54129 23.2227 8.69956C23.373 8.76538 23.549 8.78359 23.6565 8.97127C23.7005 9.0483 23.8093 9.10153 23.896 9.11833C24.1355 9.16735 24.4215 9.12814 24.408 9.55812C24.7673 10.0861 24.9286 10.6184 24.9139 11.2038C24.9115 11.285 24.8993 11.3551 24.8418 11.4027C24.7477 11.4825 24.7587 11.5708 24.8101 11.6758C24.8577 11.7724 24.8846 11.8803 24.7575 11.9349C24.6818 11.9671 24.6439 12.0358 24.6854 12.1086C24.8247 12.3537 24.6866 12.4811 24.5522 12.6436C24.4423 12.7781 24.3531 12.9545 24.3702 13.2417C24.7258 12.7571 25.2194 12.8047 25.6361 12.6226C25.8964 12.5092 26.1444 12.6492 26.4487 12.7024C27.1 12.8173 27.3835 13.3971 27.7403 13.8971C27.8051 13.9868 27.8894 14.103 27.8515 14.2249C27.7843 14.4378 27.8882 14.6184 27.9432 14.7837C28.025 15.0302 28.0055 15.2459 27.9652 15.4896C27.9053 15.8468 27.7 16.1787 27.821 16.5709C27.8528 16.6759 27.7525 16.6745 27.7037 16.7137C27.5069 16.8762 27.3139 17.0359 27.3908 17.3748C27.4165 17.4882 27.3481 17.5849 27.2601 17.6311C27.001 17.7656 26.8947 18.0625 26.7285 18.2922C26.6723 18.3692 26.6699 18.4897 26.5452 18.4869C26.4927 18.4855 26.4377 18.5233 26.4573 18.6017C26.5318 18.9056 26.3375 18.9407 26.1628 19.0261C25.9123 19.1479 25.7913 19.4351 25.641 19.669C25.4052 20.0345 25.2292 20.4435 25.2817 20.9295C25.2891 20.9981 25.2524 21.0779 25.2231 21.1438C25.107 21.4029 25.1718 21.6858 25.2145 21.9267C25.3013 22.4155 25.3184 22.8889 25.2414 23.3777C25.2219 23.501 25.1461 23.6578 25.2915 23.7923C25.4027 23.8959 25.1339 23.9155 25.2158 24.1172C25.3184 24.3721 25.3709 24.6971 25.2023 24.9828C25.184 25.0136 25.1828 25.0808 25.1999 25.1144C25.3746 25.4492 25.2964 25.8245 25.338 26.1803C25.3624 26.389 25.3771 26.5949 25.3074 26.805C25.272 26.9114 25.294 27.0444 25.2976 27.1649C25.3086 27.4296 25.4895 27.6915 25.3001 27.9618C25.2781 27.994 25.3025 28.0823 25.3233 28.1355C25.3978 28.3358 25.432 28.5277 25.3648 28.749C25.3355 28.8484 25.3575 29.0179 25.4174 29.0935C25.5811 29.3008 25.3037 29.3638 25.3355 29.5193C25.3697 29.6846 25.5787 29.8148 25.5139 29.9507C25.4174 30.1538 25.5762 30.3484 25.5359 30.4283C25.3661 30.7672 25.4821 31.0613 25.5677 31.3667C25.6251 31.5711 25.3819 31.623 25.4101 31.7868C25.4333 31.9255 25.597 32.0249 25.5237 32.1958C25.4699 32.3205 25.5347 32.4129 25.5445 32.5179C25.5799 32.9157 25.8328 33.3373 25.4968 33.7197C25.4956 33.8457 25.6043 33.8793 25.6544 33.9606C25.6838 34.0082 25.7388 34.0866 25.7253 34.1104C25.5726 34.3863 25.6972 34.6959 25.6422 34.9634C25.5921 35.2043 25.6581 35.3807 25.7216 35.5586C25.7827 35.7295 25.8133 35.8625 25.7229 36.0236C25.6887 36.0838 25.6471 36.1903 25.6703 36.2337C25.8341 36.5418 25.6728 36.8878 25.773 37.2015C25.8035 37.2968 25.8133 37.4158 25.7974 37.5152C25.7363 37.8892 25.7925 38.259 25.85 38.6175C25.8903 38.8752 25.7962 39.0993 25.8121 39.357C25.8548 40.0237 25.9709 40.6708 26.0614 41.3262C26.0882 41.5279 26.1567 41.71 25.9868 41.9117C25.8658 42.0559 25.9343 42.3333 25.9832 42.5055C26.1115 42.9495 26.1542 43.3809 26.1347 43.8501C26.1127 44.3697 26.0931 44.9061 26.2605 45.4118C26.3143 45.5728 26.2141 45.6358 26.1359 45.7059C26.0467 45.7843 25.9025 45.8039 25.9416 45.993C21.936 46 17.9353 46 13.9346 46Z" fill="#34120F"/>
<path d="M22.14 22.6382C21.8456 22.6382 21.65 22.62 21.4582 22.5457C21.3714 22.5121 21.2834 22.4967 21.2162 22.6186C21.0452 22.9337 20.7592 22.9911 20.4708 23.1018C19.9918 23.2853 19.5629 23.1424 19.1169 23.0135C19.0656 22.9995 18.9959 22.9925 18.9703 22.9519C18.6636 22.4645 18.2004 22.6452 17.7996 22.6074C17.5577 22.5836 17.3463 22.4883 17.1227 22.4337C16.5117 22.2824 16.5068 21.6452 16.2685 21.197C16.2306 21.1256 16.2135 21.0093 16.2355 20.9309C16.3211 20.6269 16.3932 20.3286 16.3027 20.0065C16.2905 19.9617 16.3198 19.8692 16.3541 19.844C16.5325 19.7152 16.5752 19.5065 16.5972 19.2978C16.6204 19.0751 16.8184 19.0709 16.9125 18.9238C17.1373 18.5709 17.3561 18.2095 17.6603 17.9238C17.9133 17.6871 18.2371 17.5597 18.4412 17.2473C18.4876 17.1773 18.578 17.1577 18.6611 17.1661C18.7821 17.1787 18.9055 17.1983 18.9471 17.0162C19.3014 16.984 19.6191 16.7137 19.9857 16.7851C20.2203 16.8299 20.4537 16.8692 20.6896 16.8972C20.8814 16.921 21.0916 16.9238 21.2138 17.1549C21.2321 17.1899 21.2749 17.2221 21.3103 17.2277C21.7331 17.2907 21.9775 17.6927 22.3099 17.9252C22.481 18.0457 22.6068 18.2571 22.7425 18.4378C23.0797 18.886 23.3119 19.4154 23.5893 19.9098C23.5612 20.2726 23.8691 20.6087 23.6553 20.9869C23.8019 21.3426 23.5111 21.5877 23.4793 21.8987C23.4744 21.9407 23.4634 22.0023 23.4378 22.0163C22.9917 22.2782 22.6227 22.767 22.14 22.6382Z" fill="#F1EADC"/>
<path d="M15.8506 15.6661C15.8152 15.991 15.7859 16.2599 15.7565 16.5288C15.7529 16.5582 15.7529 16.5974 15.737 16.6157C15.4401 16.928 15.1883 17.3524 14.724 17.3174C14.4381 17.2963 14.1423 17.2515 13.8796 17.1073C13.6707 16.9924 13.4422 16.8734 13.4079 16.547C13.3982 16.4546 13.32 16.4014 13.2613 16.3397C13.1562 16.2277 13.1134 16.0876 13.1489 15.928C13.1831 15.7753 13.1819 15.6507 13.089 15.5078C12.99 15.3537 13.1293 14.7109 13.2686 14.5932C13.6609 14.2613 14.0507 14.0442 14.5945 14.1114C15.038 14.166 15.2885 14.4279 15.5305 14.7445C15.7346 15.0092 15.8286 15.3593 15.8506 15.6661Z" fill="#F1EADC"/>
<path d="M16.491 10.9615C16.3407 10.4027 16.695 10.1155 16.9565 9.78781C17.1301 9.57072 17.7875 9.46427 18.0086 9.60853C18.0954 9.66456 18.1785 9.68136 18.2714 9.68837C18.3716 9.69677 18.4852 9.7556 18.4974 9.84383C18.5451 10.194 18.8445 10.3901 18.8885 10.7388C18.9056 10.8719 18.9325 11.0161 18.996 11.124C19.0766 11.2612 19.1133 11.3649 19.0498 11.5343C19.0021 11.6632 19.0327 11.8285 19.0204 11.9769C19.0131 12.0638 19.0302 12.1618 18.963 12.2318C18.6868 12.5218 18.3899 12.8313 18.0355 12.9209C17.6787 13.0106 17.2743 13.061 16.9908 12.5848C16.7745 12.2206 16.6107 11.8383 16.4653 11.4377C16.4091 11.278 16.5179 11.1128 16.491 10.9615Z" fill="#F1EADC"/>
<path d="M24.9152 17.3454C24.727 17.365 24.5791 17.2838 24.4533 17.1311C24.215 16.8412 24.2272 16.4266 24.0561 16.1031C24.2235 15.9392 24.1246 15.6759 24.2321 15.491C24.3005 15.372 24.3189 15.2431 24.3311 15.1044C24.3641 14.7571 24.5425 14.4966 24.7465 14.2571C24.8235 14.1674 24.9201 14.124 25.0313 14.1184C25.1241 14.1142 25.2378 14.1422 25.3037 14.0918C25.6435 13.8285 25.9074 14.0918 26.1689 14.2557C26.4438 14.428 26.5746 14.8033 26.5746 15.096C26.5746 15.3986 26.6357 15.7319 26.4878 16.0624C26.3925 16.2753 26.3119 16.5036 26.2043 16.7193C26.076 16.9798 25.861 17.0947 25.6483 17.1843C25.4174 17.2796 25.1608 17.295 24.9152 17.3454Z" fill="#F1EADC"/>
<path d="M23.6113 11.2976C23.6907 11.694 23.5502 12.0582 23.4793 12.4139C23.4158 12.7304 23.224 13.0358 22.9026 13.152C22.7902 13.1926 22.6704 13.2361 22.5751 13.3131C22.2586 13.5666 21.9727 13.3635 21.6794 13.2543C21.655 13.2445 21.611 13.2235 21.6122 13.2122C21.6476 12.8915 21.3263 12.7388 21.3446 12.4125C21.3751 11.8691 21.4802 11.3425 21.5731 10.813C21.5902 10.7164 21.6513 10.6576 21.7161 10.6044C21.8016 10.5329 21.9128 10.4839 21.9715 10.3915C22.156 10.0973 22.4395 10.0847 22.6985 10.0567C23.2447 9.9993 23.6529 10.4923 23.6223 11.1296C23.6187 11.1884 23.6138 11.2486 23.6113 11.2976Z" fill="#F1EADC"/>
</g>
</svg>
