<svg width="40" height="40" viewBox="0 0 40 40" fill="none" xmlns="http://www.w3.org/2000/svg">
<rect width="40" height="40" rx="20" fill="#E3DFFF"/>
<mask id="mask0_773_7647" style="mask-type:alpha" maskUnits="userSpaceOnUse" x="0" y="0" width="40" height="40">
<circle cx="20" cy="20" r="20" fill="#FFD8E9"/>
</mask>
<g mask="url(#mask0_773_7647)">
<path d="M14.0364 45.9944C14.0315 45.9007 13.9999 45.8196 13.9416 45.7524C13.803 45.5916 13.6194 45.4391 13.8796 45.2111C13.9476 45.1524 13.8941 45.0783 13.8601 45.0125C13.7811 44.8559 13.6863 44.7118 13.561 44.5691C13.6899 44.3691 13.944 44.316 13.978 44.0418C13.9233 43.9859 13.8589 43.9327 13.8066 43.8656C13.6996 43.7257 13.6729 43.604 13.8698 43.5285C14.0121 43.474 14.0595 43.3663 13.9537 43.218C13.7847 42.9816 13.9707 42.6376 13.7592 42.4082C13.7094 42.355 13.7932 42.2781 13.8407 42.2277C13.9792 42.0781 13.989 41.8543 14.0838 41.6753C14.2102 41.4403 13.9829 41.3032 13.9124 41.1284C13.9975 40.9577 14.209 40.9493 14.2418 40.7228C14.1908 40.5731 13.9975 40.6416 13.9282 40.4738C14.0194 40.2892 14.1239 40.0864 13.9367 39.8794C13.8917 39.8304 13.8954 39.7633 13.9367 39.7185C14.0425 39.6066 14.2139 39.5632 14.1057 39.3017C14.0716 39.2192 14.2333 39.0303 14.3038 38.8891C14.3415 38.815 14.2832 38.7324 14.2965 38.6751C14.3537 38.4303 14.0169 38.1939 14.2892 37.9534C14.0145 37.8247 14.3257 37.6638 14.2722 37.5156C14.2503 37.4554 14.3051 37.3323 14.2771 37.3044C14.0048 37.0386 14.1956 36.826 14.3294 36.612C14.3889 36.5169 14.4169 36.4596 14.3427 36.3407C14.2552 36.198 14.2771 36.1449 14.3561 35.7896C14.3598 35.7756 14.3768 35.7546 14.3756 35.7532C14.0425 35.4203 14.502 34.9658 14.2455 34.6203C14.2333 34.6049 14.237 34.549 14.2491 34.5378C14.4753 34.349 14.4582 34.1671 14.3038 33.9084C14.243 33.8077 14.3452 33.5657 14.3573 33.4104C14.3707 33.2454 14.3136 33.1139 14.4898 33.0398C14.5105 33.0314 14.5287 32.9964 14.536 32.9699C14.5676 32.8314 14.316 32.767 14.4388 32.6426C14.564 32.5139 14.5336 32.4649 14.4242 32.3838C14.406 32.3698 14.3889 32.3111 14.3914 32.3097C14.609 32.1488 14.4157 31.8803 14.5202 31.6831C14.6333 31.4691 14.6236 31.2509 14.4509 31.0662C14.3585 30.9683 14.3354 30.8508 14.4534 30.7641C14.5762 30.6718 14.6041 30.5697 14.5385 30.4214C14.4947 30.3221 14.519 30.2186 14.5348 30.1123C14.5591 29.9445 14.6272 29.7627 14.4886 29.6102C14.4716 29.592 14.4522 29.5431 14.4594 29.5333C14.7026 29.213 14.4534 28.8675 14.4838 28.5318C14.5081 28.2759 14.4509 28.0395 14.6722 27.8675C14.7062 27.8409 14.7172 27.7584 14.7196 27.701C14.7281 27.5388 14.3549 27.445 14.6394 27.2408C14.8169 27.1136 14.5798 26.866 14.7767 26.7723C14.6552 26.5597 14.84 26.2897 14.6698 26.0799C14.5762 25.9652 14.5774 25.831 14.7123 25.7387C14.8582 25.6379 14.8193 25.5233 14.7378 25.3988C14.6831 25.3149 14.6382 25.2211 14.5847 25.1358C14.5397 25.0645 14.4631 25.0183 14.4522 24.8771C14.6321 24.8071 14.8047 24.7008 14.6746 24.4099C14.6467 24.3456 14.6625 24.2533 14.7074 24.1945C14.8351 24.0295 14.7573 23.9413 14.6685 23.7805C14.6005 23.6574 14.4947 23.4672 14.5859 23.2224C14.6406 23.077 14.5506 22.8574 14.7208 22.7091C14.7609 22.6741 14.7622 22.5231 14.7342 22.4489C14.6552 22.2475 14.519 22.0601 14.7147 21.8503C14.5275 21.6853 14.705 21.3845 14.5056 21.1915C14.2965 20.9887 14.2941 20.7831 14.4655 20.5607C14.6236 20.3565 14.5591 20.1719 14.4461 20.0446C14.361 19.9495 14.3257 19.9033 14.3403 19.7635C14.3804 19.3704 14.2503 19.0627 13.9513 18.8445C13.8467 18.7676 13.7592 18.6683 13.6875 18.5256C13.572 18.2949 13.4164 18.0851 13.2668 17.8752C13.0359 17.5536 12.7356 17.2794 12.6541 16.8374C12.6456 16.7941 12.6274 16.7395 12.5994 16.7185C12.1496 16.3898 12.2505 15.759 12.0122 15.3143C11.9721 15.2387 12.0414 15.1786 12.0657 15.1114C12.1423 14.8947 12.2444 14.6723 12.0463 14.4639C11.9709 14.3841 11.9976 14.3002 12.056 14.2261C12.2821 13.938 12.5484 13.6806 12.6262 13.275C12.631 13.2526 12.6651 13.2148 12.6784 13.219C13.0225 13.3253 12.9836 13.0316 13.0261 12.8008C13.0505 12.6679 13.1538 12.6176 13.2766 12.6568C13.4905 12.7225 13.6644 12.6665 13.7653 12.426C13.8297 12.2749 13.916 12.2875 14.023 12.3546C14.1409 12.4288 14.2564 12.4973 14.3756 12.3379C14.4108 12.2903 14.8011 12.4218 14.8084 12.4791C14.8594 12.854 14.9919 12.647 15.1147 12.5435C15.1329 12.5281 15.1633 12.5309 15.212 12.5183C15.1852 12.8777 15.4053 12.9757 15.6448 13.0568C15.7457 13.0903 15.8271 13.0778 15.8867 12.9743C15.9414 12.8791 15.8988 12.7728 15.8417 12.7309C15.5511 12.5211 15.5475 12.2078 15.5828 11.8763C15.59 11.8064 15.5767 11.7504 15.5208 11.7322C15.3895 11.6889 15.3481 11.5616 15.3858 11.4497C15.4588 11.2329 15.1439 11.0706 15.3493 10.8343C15.4794 10.6846 15.46 10.4245 15.5584 10.2566C15.6751 10.0594 15.6314 9.93212 15.5098 9.80484C15.5645 9.67896 15.6545 9.73211 15.7238 9.71532C15.8478 9.68455 15.8624 9.58245 15.8405 9.47335C15.8198 9.37265 15.7748 9.27754 15.7384 9.17963C15.7116 9.10969 15.68 9.03416 15.7311 8.96843C15.7894 8.8929 15.8539 8.95024 15.9086 8.98241C16.0082 9.04116 16.0642 9.00479 16.1395 8.91388C16.238 8.79639 16.3657 8.70827 16.4872 8.61875C16.61 8.52644 16.5128 8.30685 16.6635 8.23691C16.7571 8.22712 16.7936 8.32363 16.8568 8.37119C17.0148 8.49008 17.1425 8.4649 17.2665 8.29006C17.5461 7.89983 17.6105 7.90543 17.9218 8.29426C17.957 8.33762 18.0129 8.41874 18.0336 8.40895C18.284 8.28866 18.4652 8.61736 18.7095 8.54183C18.7801 8.51945 18.898 8.53064 18.9065 8.63554C18.9247 8.84534 19.1326 8.85793 19.1679 8.95863C19.2165 9.0985 19.2785 9.26914 19.3551 9.33488C19.5399 9.49433 19.58 9.71952 19.6578 9.93072C19.7295 10.1251 19.7794 10.3293 19.9362 10.4664C20.0152 10.535 20.0492 10.6287 19.997 10.7462C19.9143 10.9336 20.0176 11.1 20.059 11.2693C20.0857 11.3784 20.1599 11.4483 20.2693 11.4301C20.3775 11.4105 20.4468 11.3168 20.4261 11.2077C20.3848 10.9909 20.4614 10.8497 20.5805 10.7C20.6364 10.6287 20.668 10.5014 20.662 10.4035C20.6486 10.2147 20.4893 9.96289 20.8565 10.0286C20.916 10.0398 20.9075 9.90834 20.9136 9.83561C20.9501 9.41321 20.9501 9.41041 21.3002 9.43139C21.3731 9.43559 21.4351 9.4258 21.4558 9.33768C21.485 9.2118 21.5737 9.15165 21.643 9.06354C21.7974 8.86912 21.8995 8.60477 22.1974 8.7796C22.2241 8.79639 22.3044 8.70687 22.353 8.65932C22.4077 8.60757 22.4636 8.56421 22.5256 8.62715C22.6496 8.75303 22.7979 8.71666 22.9402 8.72226C22.9791 8.72366 23.035 8.71526 23.0545 8.74044C23.2271 8.96283 23.4362 9.01039 23.6781 8.93905C23.6964 8.93346 23.7219 8.96843 23.745 8.97682C23.9006 9.02857 23.858 9.36006 24.0635 9.30831C24.2738 9.25516 24.2799 9.55587 24.4525 9.55587C24.5242 9.55587 24.5498 9.64959 24.5473 9.72931C24.5425 9.88876 24.5911 9.98667 24.7431 10.0035C24.8428 10.0146 24.8841 10.1139 24.8403 10.2007C24.7686 10.3405 24.8744 10.4706 24.8342 10.5965C24.7917 10.7294 24.8269 10.7867 24.9412 10.8245C25.0494 10.8608 25.109 10.9294 24.9704 11.0301C24.844 11.121 25.0032 11.2455 24.9741 11.2944C24.8379 11.5182 24.7698 11.7266 24.9206 11.9784C24.9485 12.0259 24.8987 12.0959 24.8586 12.1336C24.6871 12.2959 24.7042 12.5323 24.6616 12.7393C24.7346 12.826 24.816 12.8218 24.8902 12.7924C24.985 12.7547 25.0579 12.7379 25.126 12.8568C25.2245 13.0288 25.3023 12.9771 25.3825 12.819C25.5077 12.5714 25.7886 12.6763 25.9527 12.5071C26.1265 12.8442 26.4305 12.7043 26.6785 12.7701C26.7028 12.777 26.7393 12.7938 26.7453 12.8148C26.8353 13.1379 27.0407 13.2106 27.3106 13.2106C27.4128 13.2106 27.4115 13.3785 27.3909 13.4792C27.352 13.6722 27.3593 13.8037 27.5732 13.8191C27.7714 13.8331 27.831 14.0303 27.8553 14.2023C27.8881 14.4317 27.9695 14.6681 27.8662 14.9058C27.8309 14.9884 27.8091 15.0863 27.9015 15.145C28.0291 15.2261 28.0242 15.3199 27.9355 15.4331C27.8784 15.5073 27.8601 15.5996 27.9002 15.6863C28.017 15.9353 27.8662 16.1577 27.7677 16.2933C27.6474 16.4584 27.6316 16.6024 27.634 16.7815C27.6364 17.0235 27.6656 17.2752 27.4286 17.4151C27.3386 17.8333 26.9921 18.0319 26.8 18.3704C26.7125 18.5256 26.5022 18.5942 26.5022 18.8431C26.5022 18.8683 26.4742 18.9131 26.4584 18.9131C26.1375 18.9145 26.0414 19.246 25.8603 19.4488C25.6488 19.6851 25.4312 19.9187 25.4701 20.3104C25.4871 20.481 25.4141 20.5859 25.267 20.6488C25.0993 20.7202 25.0701 20.8419 25.2257 20.9789C25.2804 21.0265 25.3509 21.102 25.2755 21.1496C25.1102 21.2503 25.2403 21.5118 25.0677 21.5916C25.2172 21.7328 25.0822 21.9412 25.154 22.0881C25.2403 22.2657 25.1965 22.393 25.1102 22.5413C25.0251 22.6867 25.0044 22.8196 25.1394 22.9818C25.3157 23.193 25.3072 23.5175 25.2804 23.7665C25.2561 23.9917 25.4056 24.1973 25.2743 24.4351C25.1661 24.6323 25.2342 24.8966 25.2379 25.133C25.2415 25.3358 25.2379 25.5484 25.1905 25.7415C25.1588 25.8701 25.1613 25.9149 25.2573 25.9904C25.4737 26.1597 25.4846 26.3121 25.3035 26.5639C25.2269 26.6702 25.1649 26.7135 25.312 26.8338C25.4616 26.9541 25.4226 27.2087 25.3436 27.3387C25.2087 27.5597 25.3011 27.8143 25.2014 28.0339C25.1552 28.1332 25.2707 28.2087 25.34 28.2801C25.453 28.3948 25.4834 28.529 25.4737 28.7192C25.447 29.2857 25.4129 29.848 25.2889 30.3977C25.261 30.5208 25.295 30.5963 25.3837 30.6634C25.5795 30.8103 25.6366 31.0033 25.509 31.2453C25.4445 31.367 25.4543 31.4663 25.5503 31.5642C25.6925 31.7096 25.639 31.8257 25.4932 31.9138C25.3509 31.9992 25.3157 32.1404 25.3631 32.2985C25.4688 32.6565 25.4628 33.0566 25.6634 33.3797C25.6986 33.437 25.6998 33.486 25.6597 33.5391C25.4336 33.8496 25.6196 34.2035 25.5831 34.535C25.5746 34.6119 25.6111 34.6776 25.6609 34.735C25.7181 34.8007 25.7168 34.8665 25.6305 34.9042C25.4579 34.9812 25.5163 35.0833 25.622 35.156C25.7776 35.2651 25.881 35.377 25.7387 35.584C25.7035 35.6357 25.6901 35.6903 25.7205 35.749C25.8494 35.9924 25.7497 36.212 25.6488 36.4162C25.5612 36.591 25.5223 36.8022 25.6111 36.9309C25.7472 37.1281 25.6986 37.3393 25.6986 37.5254C25.6986 37.7771 25.5892 38.0247 25.8445 38.2037C25.9077 38.2485 25.8652 38.3464 25.819 38.4023C25.7059 38.5422 25.7448 38.738 25.695 38.9017C25.6354 39.0975 25.8263 39.2961 25.9539 39.4597C25.9904 39.5059 26.056 39.5549 25.9989 39.5926C25.7667 39.7465 25.9004 39.8724 26.0038 40.0136C26.0244 40.0416 26.0281 40.1003 26.0208 40.1395C25.9977 40.2752 25.8153 40.2262 25.8056 40.3535C25.7983 40.45 25.9612 40.4556 25.943 40.5983C25.9114 40.8444 25.9247 41.32 25.9855 41.4669C26.0694 41.6725 26.135 41.8347 25.8956 41.9816C25.7691 42.0585 25.7947 42.2166 25.9405 42.2949C26.0803 42.3704 26.0609 42.4515 26.0512 42.6306C26.022 43.1537 25.8591 43.7341 26.2967 44.1691C26.3551 44.2279 26.3296 44.2936 26.2894 44.3663C26.2007 44.5258 26.1545 44.6587 26.2323 44.888C26.3077 45.109 26.2372 45.4028 26.3514 45.6503C26.3843 45.7217 26.3296 45.8168 26.2493 45.7818C26.0524 45.6937 26.0354 45.8811 25.9721 46C21.9968 45.9944 18.0166 45.9944 14.0364 45.9944Z" fill="#D9D4C6"/>
<path d="M22.3688 22.3706C21.5518 22.3342 20.8576 22.2223 20.234 21.7957C20.11 21.7104 20.0079 21.7258 19.9033 21.7971C19.3842 22.151 18.7837 22.2084 18.2196 22.386C17.5813 22.5874 16.8543 22.4419 16.4398 21.7874C16.2441 21.4782 16.2076 21.1621 16.2915 20.8055C16.4155 20.2824 16.6708 19.853 16.9856 19.4613C17.157 19.2473 17.3528 19.0711 17.5643 18.9173C17.8196 18.7326 17.991 18.5228 18.0068 18.1298C18.0287 17.6151 18.2986 17.2472 18.6183 16.8766C18.9186 16.5283 19.231 16.3143 19.6249 16.1702C19.9033 16.0681 20.1465 15.8765 20.4309 16.1465C20.4881 16.201 20.6109 16.1535 20.7008 16.1744C21.0461 16.257 21.3391 16.3744 21.5883 16.7451C21.8533 17.1395 22.0466 17.5605 22.1584 18.0095C22.2715 18.4655 22.3602 18.8557 22.7699 19.1061C22.9948 19.2431 23.1796 19.5229 23.3498 19.7593C23.6185 20.1327 23.7717 20.5845 23.7474 21.088C23.7437 21.1621 23.7158 21.2335 23.7145 21.3076C23.7048 21.7846 23.4386 22.1762 23.041 22.2601C22.7857 22.3161 22.5304 22.4056 22.3688 22.3706Z" fill="#E4A1A2"/>
<path d="M14.5312 14.0806C14.9603 13.9897 15.212 14.4079 15.5195 14.6652C15.8332 14.9282 16.0216 15.2793 15.8684 15.7632C15.8344 15.8709 15.8587 16.0038 15.8551 16.1241C15.8332 16.7717 15.4077 17.2248 14.8533 17.2752C14.4947 17.3074 14.1567 17.3423 13.837 17.1059C13.5258 16.8766 13.2814 16.5982 13.2498 16.1478C13.2413 16.0234 13.2073 15.9129 13.1757 15.7982C13.0128 15.1939 13.1963 14.6582 13.6741 14.3407C13.9598 14.1491 14.1738 14.082 14.5312 14.0806Z" fill="#E4A1A2"/>
<path d="M19.0986 11.6748C19.1011 12.3644 19.0002 12.5043 18.503 12.7546C18.1188 12.949 17.7492 13.0511 17.3274 12.9127C17.0988 12.8371 16.9554 12.7169 16.88 12.4721C16.7754 12.1322 16.6405 11.7993 16.5505 11.4594C16.4436 11.0566 16.491 10.6314 16.7475 10.2845C16.8496 10.1475 16.9639 10.0202 17.0794 9.8985C17.5438 9.41176 17.9194 9.4761 18.4033 9.78521C18.8069 10.0426 18.8713 10.5195 19.005 10.9447C19.0841 11.1937 19.1436 11.4664 19.0986 11.6748Z" fill="#E4A1A2"/>
<path d="M26.9265 15.4079C26.7879 16.4094 26.642 16.8877 25.7132 17.2989C25.2549 17.5017 24.9048 17.3871 24.562 17.0472C24.3115 16.7996 24.2726 16.4723 24.3261 16.1338C24.3893 15.7338 24.4732 15.3366 24.579 14.9492C24.7613 14.2736 25.4567 13.882 26.0415 14.1281C26.5654 14.3491 26.9399 14.6778 26.9265 15.4079Z" fill="#E4A1A2"/>
<path d="M21.3926 12.0986C21.3452 11.5685 21.5239 11.1084 21.7293 10.7083C22.105 9.97822 22.8381 9.83555 23.4447 10.4258C23.5699 10.5475 23.6502 10.7867 23.6696 10.9825C23.7122 11.4147 23.7158 11.8567 23.5286 12.2637C23.4739 12.384 23.407 12.5028 23.3803 12.6315C23.2964 13.0483 23.0593 13.233 22.7068 13.2623C22.6277 13.2693 22.556 13.2931 22.4819 13.3309C22.0965 13.5351 21.7208 13.384 21.5324 12.9518C21.4145 12.6777 21.3646 12.384 21.3926 12.0986Z" fill="#E4A2A2"/>
</g>
</svg>
