<svg width="41" height="40" viewBox="0 0 41 40" fill="none" xmlns="http://www.w3.org/2000/svg">
<rect x="1" width="40" height="40" rx="20" fill="#E3DFFF"/>
<mask id="mask0_773_7667" style="mask-type:alpha" maskUnits="userSpaceOnUse" x="0" y="0" width="40" height="40">
<circle cx="20" cy="20" r="20" fill="#FFD8E9"/>
</mask>
<g mask="url(#mask0_773_7667)">
<path d="M13.6744 46C13.63 45.2976 13.752 44.6065 13.784 43.9083C13.8419 42.6022 13.9306 41.2989 14.007 39.9942C14.0624 39.0548 14.1216 38.1141 14.1782 37.1747C14.2374 36.7628 14.1462 36.3439 14.2275 35.9335C14.2214 35.7952 14.2053 35.657 14.2546 35.5244C14.3187 35.2903 14.2275 35.0406 14.3088 34.8079H14.3076C14.4419 34.6923 14.5836 34.7134 14.7228 34.7868C15.5889 35.2409 16.5314 35.4031 17.4356 35.7134C17.9519 35.8897 18.5174 35.839 19.0594 35.9053C19.8245 35.9984 20.6031 35.9899 21.3657 35.87C22.6051 35.6725 23.8297 35.3777 25.0088 34.8742C25.2256 34.7811 25.504 34.5174 25.6716 34.9786C25.7923 36.0971 25.8009 37.2241 25.8613 38.3468C25.9833 40.6092 26.088 42.873 26.2001 45.1368C26.2149 45.4245 26.2765 45.7094 26.2568 46C22.0631 46 17.8693 46 13.6744 46Z" fill="#7FC31D"/>
<path d="M25.6716 34.9786C25.5964 34.8629 25.5249 34.791 25.3746 34.8516C25.0026 34.9997 24.6403 35.1775 24.2572 35.2988C23.566 35.5174 22.8712 35.7007 22.1653 35.8446C21.8006 35.918 21.4371 36.052 21.0712 36.028C20.56 35.9927 20.0536 36.2184 19.5423 36.0294C19.3021 35.9405 19.0594 36.1338 18.7994 36.0195C18.5013 35.8883 18.1711 35.8996 17.852 35.9194C17.634 35.9335 17.4196 35.8926 17.2249 35.8094C16.551 35.5244 15.8488 35.3693 15.1601 35.1535C15.0468 35.1182 14.9285 35.0844 14.8324 34.9927C14.6821 34.8502 14.5022 34.8023 14.31 34.8093C14.331 33.2225 14.4295 31.6386 14.48 30.0518C14.5675 27.2746 14.6242 24.496 14.5343 21.7173C14.5182 21.2011 14.4603 20.682 14.3852 20.1715C14.2706 19.3957 13.9256 18.7455 13.455 18.1827C13.1963 17.8738 12.9203 17.5847 12.6678 17.2701C11.8768 16.2884 11.7733 14.4562 12.4386 13.3885C13.0805 12.3574 14.4073 12.088 15.3745 12.7933C15.5408 12.9146 15.6997 13.05 15.8697 13.184C15.9621 13.0006 15.8537 12.8709 15.8143 12.7411C15.6628 12.2531 15.4755 11.7792 15.3991 11.2629C15.2759 10.4265 15.4164 9.64652 15.8316 8.94975C16.4759 7.86792 17.9173 7.67892 18.8118 8.54494C19.514 9.22479 19.87 10.1345 20.0955 11.1275C20.1189 11.2277 20.1029 11.3447 20.2101 11.4223C20.3382 11.3095 20.3197 11.1317 20.3567 10.9794C20.5932 9.98363 21.0885 9.2262 21.9189 8.78614C23.1829 8.11475 25.1122 9.28262 24.92 11.215C24.867 11.7439 24.7069 12.2192 24.5159 12.6903C24.4568 12.837 24.3767 12.9752 24.3545 13.1417C24.5024 13.2009 24.5701 13.0838 24.6588 13.0317C25.0789 12.782 25.5175 12.6254 25.9992 12.6339C26.9208 12.6494 27.644 13.2644 27.8768 14.2912C28.17 15.5902 27.9384 16.7722 27.1968 17.8117C26.8419 18.3082 26.4736 18.7906 26.1015 19.2688C25.5163 20.0219 25.2218 20.8979 25.2428 21.9035C25.2945 24.283 25.3401 26.6624 25.4116 29.0419C25.4621 30.7345 25.5545 32.4242 25.6198 34.1168C25.6247 34.4045 25.711 34.6866 25.6716 34.9786Z" fill="#CBE719"/>
<path d="M21.5715 22.8965C21.2635 22.9247 20.9518 22.8654 20.6499 22.7258C20.1202 22.4804 19.5879 22.4804 19.0545 22.7188C18.5161 22.9585 17.9494 22.9769 17.3999 22.8513C16.4291 22.6299 15.8082 21.2533 15.9572 20.2533C16.211 18.5593 17.6364 16.7934 19.2898 16.4534C20.231 16.2602 21.0503 16.555 21.8018 17.0797C22.7098 17.713 23.3616 18.6312 23.6498 19.8456C23.7903 20.4409 23.8051 21.0177 23.5907 21.5847C23.2876 22.3845 22.7308 22.7949 21.9891 22.8951C21.8561 22.912 21.7218 22.8965 21.5715 22.8965Z" fill="#FEA620"/>
<path d="M16.4846 10.9667C16.4513 10.4815 16.5523 10.0358 16.7864 9.62677C17.007 9.24171 17.3113 9.12888 17.6796 9.32352C18.4693 9.74102 18.8981 10.4716 19.0336 11.4322C19.1137 12.0006 18.9055 12.3955 18.4459 12.6424C18.3498 12.6931 18.2488 12.734 18.149 12.7735C17.326 13.0951 16.779 12.7524 16.561 11.7777C16.5351 11.6607 16.4981 11.5436 16.4883 11.4237C16.4747 11.2728 16.4846 11.1191 16.4846 10.9667Z" fill="#FEA620"/>
<path d="M23.6881 11.3264C23.7374 11.9555 23.5255 12.4717 23.2323 12.9611C22.9194 13.4858 22.6804 13.5846 22.0582 13.4153C21.7908 13.342 21.5531 13.16 21.3399 12.9357C21.0603 12.6424 20.9777 12.2926 21.064 11.899C21.287 10.892 21.8216 10.2022 22.7062 9.90605C22.9884 9.81155 23.2335 9.90887 23.4171 10.1797C23.6499 10.5224 23.7263 10.9159 23.6881 11.3264Z" fill="#FEA620"/>
<path d="M26.8259 15.1615C26.8604 16.0092 26.5007 16.6425 25.9845 17.1898C25.7295 17.4606 25.4178 17.4507 25.1184 17.3632C24.718 17.2462 24.4088 16.9457 24.1624 16.5762C24.0219 16.3646 23.9702 16.0938 24.033 15.8371C24.2917 14.7778 25.2009 14.0021 26.0485 13.995C26.566 13.9908 26.8099 14.2546 26.8259 14.8427C26.8284 14.9485 26.8259 15.0557 26.8259 15.1615Z" fill="#FEA620"/>
<path d="M14.0847 13.9005C14.9052 13.8765 15.5027 14.3434 15.9672 15.0627C16.2111 15.4407 16.1926 15.8907 15.9943 16.2673C15.7183 16.7948 15.324 17.1686 14.7302 17.1319C14.5651 17.122 14.4222 17.0825 14.283 16.9753C13.6645 16.4958 13.3097 15.83 13.1976 14.9922C13.1754 14.8286 13.1742 14.6579 13.2198 14.4943C13.3479 14.0246 13.5303 13.8991 14.0847 13.9005Z" fill="#FEA620"/>
</g>
</svg>
