<svg width="40" height="40" viewBox="0 0 40 40" fill="none" xmlns="http://www.w3.org/2000/svg">
<rect width="40" height="40" rx="20" fill="#E3DFFF"/>
<mask id="mask0_773_7642" style="mask-type:alpha" maskUnits="userSpaceOnUse" x="0" y="0" width="40" height="40">
<circle cx="20" cy="20" r="20" fill="#FFD8E9"/>
</mask>
<g mask="url(#mask0_773_7642)">
<path d="M13.9384 46C13.9372 45.9017 13.8972 45.8259 13.8379 45.7613C13.7337 45.6504 13.6901 45.5479 13.8512 45.4483C13.9421 45.3921 13.9263 45.3051 13.8815 45.2152C13.8354 45.1225 13.7894 45.0313 13.7506 44.9344C13.7094 44.8319 13.5374 44.8207 13.5956 44.655C13.6368 44.5371 13.7543 44.5694 13.8318 44.5231C13.9796 44.4374 13.9929 44.2353 13.8718 44.0963C13.6876 43.8857 13.684 43.8801 13.9275 43.6905C14.0559 43.5909 14.0172 43.4729 13.9505 43.3817C13.7615 43.1262 13.9869 42.7794 13.7979 42.5309C13.9384 42.3638 13.9784 42.1518 13.9954 41.93C14.2704 41.8149 14.1274 41.6085 14.045 41.4653C13.9481 41.294 13.9118 41.2 14.0923 41.0694C14.2752 40.9375 14.2667 40.9066 14.0656 40.7662C13.9493 40.6861 13.9105 40.6089 14.0099 40.484C14.1177 40.3464 14.1165 40.2102 13.9941 40.0881C13.8294 39.9252 13.9178 39.8396 14.0608 39.7652C14.1819 39.702 14.2837 39.6543 14.108 39.4956C14.0753 39.4661 14.1662 39.205 14.2401 39.0843C14.2898 39.0028 14.3176 38.9663 14.2873 38.8582C14.2013 38.5494 14.2049 38.0763 14.2389 37.7618C14.2558 37.6045 14.3382 37.4501 14.1638 37.2788C14.0826 37.2002 14.1759 36.8927 14.3285 36.7538C14.4303 36.6611 14.5418 36.5783 14.3334 36.4786C14.234 36.4309 14.2716 36.341 14.2849 36.2483C14.314 36.0462 14.4085 35.8328 14.2389 35.6447C14.2037 35.6053 14.1795 35.5127 14.2183 35.4776C14.4339 35.281 14.2643 35.0283 14.2958 34.8065C14.3031 34.7532 14.274 34.6858 14.32 34.6423C14.4836 34.4836 14.5042 34.3292 14.3309 34.1565C14.211 34.0372 14.3322 33.8743 14.2994 33.7269C14.2788 33.637 14.4254 33.5303 14.3128 33.3773C14.251 33.2931 14.3855 33.2496 14.4436 33.2004C14.509 33.1443 14.5878 33.0811 14.4945 32.9912C14.2801 32.7821 14.4218 32.7034 14.6217 32.636C14.5151 32.5574 14.44 32.5027 14.3685 32.4507C14.3939 32.3412 14.4654 32.2977 14.5296 32.2458C14.5587 32.2219 14.6144 32.1784 14.572 32.1503C14.3479 31.9973 14.5272 31.84 14.5575 31.6842C14.5842 31.5494 14.6096 31.4048 14.5139 31.2953C14.3552 31.1142 14.2861 30.9556 14.5417 30.8095C14.5866 30.7843 14.629 30.7183 14.5902 30.6579C14.4497 30.4403 14.5078 30.2227 14.6072 30.029C14.738 29.772 14.3964 29.7734 14.4485 29.6064C14.4945 29.4562 14.6399 29.3284 14.5321 29.1557C14.4691 29.0546 14.3988 28.9943 14.5551 28.9381C14.5696 28.9325 14.5769 28.8988 14.5878 28.8777C14.3443 28.8146 14.6532 28.4903 14.4194 28.406C14.3394 28.3765 14.3915 28.2755 14.4388 28.2193C14.4751 28.1772 14.5248 28.1491 14.5623 28.1084C14.7211 27.9329 14.7247 27.8318 14.5745 27.6016C14.5321 27.537 14.4824 27.4514 14.543 27.405C14.7017 27.2857 14.7634 27.1621 14.629 26.9754C14.8664 26.8589 14.7647 26.7227 14.6484 26.5809C14.6181 26.543 14.6338 26.4981 14.6786 26.4812C14.9125 26.3928 14.7538 26.2945 14.6823 26.2047C14.5938 26.0924 14.5539 25.9997 14.6617 25.8551C14.8107 25.6557 14.7913 25.4887 14.6338 25.2795C14.5672 25.191 14.4545 25.1475 14.44 24.9734C14.635 24.892 14.8277 24.7853 14.669 24.4694C14.6375 24.4062 14.6702 24.3178 14.715 24.2574C14.8168 24.1227 14.7889 24.0033 14.6811 23.905C14.5575 23.7927 14.6508 23.6004 14.5357 23.467C14.4715 23.3926 14.6738 23.3533 14.6726 23.2298C14.6314 23.1287 14.5042 23.1441 14.4691 23.0332C14.4824 23.0079 14.4909 22.9728 14.5102 22.9616C14.7465 22.8086 14.7962 22.6542 14.6847 22.3958C14.6617 22.3439 14.606 22.3074 14.5938 22.2554C14.5539 22.0771 14.7695 22.0196 14.7525 21.868C14.7404 21.757 14.5102 21.7416 14.6169 21.5535C14.6823 21.4384 14.6847 21.4117 14.5623 21.3359C14.3588 21.2109 14.3116 20.8754 14.423 20.6802C14.4872 20.5679 14.6678 20.5202 14.5648 20.311C14.4969 20.1734 14.3988 20.0892 14.2813 20.0302C14.463 19.5641 14.3818 19.2679 14.016 18.9731C13.8221 18.8158 13.6658 18.5954 13.5641 18.3638C13.4841 18.1784 13.3799 18.0437 13.2636 17.9019C13.0201 17.6084 12.739 17.3431 12.67 16.9079C12.6554 16.8138 12.6082 16.7394 12.5428 16.6847C12.258 16.4488 12.189 16.095 12.1951 15.73C12.1987 15.5236 12.0618 15.445 12 15.2906C12.1987 15.0547 12.252 14.795 12.0824 14.5058C12.0073 14.3794 12.0424 14.2559 12.1381 14.1885C12.3441 14.0397 12.3889 13.735 12.5924 13.5904C12.6506 13.5483 12.6227 13.4879 12.6167 13.4304C12.6058 13.3265 12.6227 13.2366 12.739 13.2787C12.9244 13.3433 12.9631 13.217 12.9971 13.0485C13.0625 12.7256 13.0673 12.7368 13.3423 12.741C13.5071 12.7439 13.6876 12.7439 13.7724 12.5192C13.7991 12.4476 13.8706 12.3409 13.8984 12.3704C14.1347 12.6189 14.4085 12.3185 14.6484 12.4532C14.6871 12.4757 14.7392 12.4448 14.784 12.5024C14.9609 12.7312 14.9646 12.7284 15.2214 12.5234C15.2493 12.7916 15.3256 12.9909 15.5861 13.0471C15.7 13.0724 15.8126 13.1917 15.8768 13.0218C15.9289 12.8857 15.8841 12.7074 15.7411 12.6652C15.6382 12.6358 15.6042 12.6133 15.6382 12.4982C15.7072 12.2623 15.4431 12.0433 15.6115 11.8018C15.3438 11.6979 15.4504 11.3512 15.3086 11.1715C15.2202 11.0606 15.2493 11.0002 15.3232 10.9103C15.5073 10.6829 15.4552 10.3277 15.6442 10.0947C15.6939 10.0329 15.6261 9.95707 15.5885 9.8967C15.5497 9.83352 15.5715 9.80404 15.6285 9.76473C15.8865 9.58503 15.8926 9.55695 15.7654 9.2172C15.7399 9.14981 15.6721 9.08663 15.7181 9.01503C15.7799 8.91816 15.8599 8.97011 15.9241 9.02486C16.0283 9.1119 16.1046 9.13437 16.1543 8.95326C16.187 8.83112 16.3045 8.7876 16.3881 8.72161C16.4826 8.64721 16.5407 8.57841 16.5529 8.43942C16.5662 8.27938 16.6377 8.24147 16.7685 8.33975C17.0568 8.55455 17.1283 8.53068 17.3464 8.22322C17.407 8.13758 17.4167 7.95928 17.5608 8.00842C17.6808 8.05054 17.8274 8.07862 17.8746 8.24709C17.9243 8.42258 18.003 8.44223 18.1654 8.44364C18.3447 8.44504 18.5167 8.61492 18.7227 8.52506C18.7554 8.51102 18.8511 8.56999 18.8511 8.59807C18.8596 8.87324 19.0425 8.94484 19.2097 9.04171C19.2424 9.05996 19.2775 9.10208 19.286 9.14139C19.3636 9.48956 19.624 9.72963 19.6967 10.082C19.7197 10.1971 19.7694 10.3137 19.8312 10.4063C19.9415 10.5692 20.1656 10.6787 19.9633 10.9496C19.939 10.9819 19.9887 11.0914 20.0069 11.163C20.0456 11.3119 20.0953 11.4873 20.2528 11.4621C20.4273 11.4326 20.403 11.2473 20.3752 11.0956C20.3618 11.0226 20.3194 10.9468 20.3958 10.8963C20.6756 10.7082 20.6502 10.419 20.5908 10.1213C20.6829 9.95847 20.8137 10.1789 20.8985 10.089C20.9797 9.95005 20.878 9.84054 20.8937 9.7198C20.9288 9.45446 20.9955 9.37725 21.2257 9.44183C21.3589 9.47973 21.4086 9.46148 21.451 9.30705C21.5104 9.09085 21.7648 9.04592 21.8108 8.80023C21.8144 8.78198 21.9101 8.76654 21.9562 8.78058C22.1088 8.82972 22.2603 8.91816 22.3536 8.67107C22.3669 8.63457 22.4275 8.6079 22.4541 8.65001C22.6395 8.93782 22.9727 8.55314 23.1192 8.8255C23.2101 8.99538 23.2767 9.02065 23.4136 8.9687C23.4451 8.95747 23.6923 9.08944 23.788 9.16385C23.96 9.29722 24.1636 9.35619 24.3344 9.50781C24.4555 9.61591 24.5718 9.66084 24.5101 9.86862C24.5004 9.89951 24.5343 9.98234 24.5525 9.98374C24.9183 10.0146 24.7778 10.353 24.7948 10.5636C24.8105 10.7587 24.8565 10.8752 25.0492 10.9103C24.9959 11.062 24.7087 11.1111 24.9244 11.3273C24.9716 11.375 24.9111 11.441 24.8747 11.4789C24.7596 11.5983 24.7245 11.7162 24.8372 11.8692C24.9244 11.9857 24.8832 12.0952 24.7911 12.1851C24.7305 12.2427 24.6772 12.2904 24.6627 12.3971C24.613 12.7761 24.6058 12.8042 24.9523 12.8239C25.1073 12.8323 25.1013 13.0387 25.2309 13.0204C25.3836 12.9994 25.3206 12.7284 25.4332 12.7312C25.6198 12.7354 25.7531 12.6315 25.8997 12.5375C26.0232 12.5585 26.0414 12.7074 26.1238 12.7775C26.1783 12.8239 26.2195 12.8393 26.297 12.8112C26.5878 12.7045 26.7089 12.7509 26.7913 13.0555C26.858 13.3012 27.0046 13.231 27.1366 13.2437C27.3874 13.2661 27.3983 13.2647 27.3547 13.5427C27.3292 13.7084 27.3535 13.8207 27.5013 13.8487C27.7157 13.8881 27.7727 14.086 27.8041 14.2727C27.8441 14.5086 27.9653 14.7543 27.8078 15C27.7605 15.0744 27.7823 15.1347 27.8659 15.1642C28.0586 15.233 28.0113 15.3299 27.9241 15.4941C27.8175 15.6935 27.8781 15.9518 27.8005 16.1891C27.7436 16.366 27.5497 16.4179 27.5715 16.6313C27.5885 16.797 27.58 16.9655 27.5812 17.1325C27.5812 17.162 27.5837 17.2097 27.5691 17.2196C27.2881 17.4133 27.3099 17.8443 27.0542 18.0731C26.8071 18.295 26.5127 18.4901 26.4509 18.9071C26.4436 18.959 26.3564 19.0025 26.2995 19.0348C26.2534 19.0615 26.1989 19.0713 26.1468 19.0756C25.896 19.0952 26.0911 19.4644 25.8912 19.515C25.7313 19.5557 25.5616 19.5739 25.6234 19.8463C25.638 19.9123 25.638 19.9698 25.5726 19.9881C25.4054 20.0344 25.4296 20.1832 25.4441 20.3152C25.4671 20.53 25.4017 20.6578 25.2212 20.7308C25.0564 20.7982 25.0177 20.9189 25.1764 21.0593C25.2285 21.1056 25.3084 21.2011 25.2406 21.2236C25.0565 21.2839 25.3242 21.5184 25.1243 21.5535C25.0455 21.5675 25.0031 21.6237 25.0431 21.7528C25.1473 22.0814 25.266 22.4183 25.025 22.7482C24.9632 22.8324 25.0116 22.9532 25.0783 22.9827C25.2903 23.0781 25.203 23.2929 25.2091 23.4432C25.2115 23.5218 25.1594 23.592 25.243 23.658C25.2733 23.6818 25.2915 23.7267 25.3145 23.7618C25.0819 23.9696 25.3993 24.2588 25.2249 24.5045C25.1449 24.6182 25.1364 24.8316 25.1909 25.024C25.2624 25.2823 25.1509 25.5504 25.1606 25.8186C25.1643 25.9141 25.1461 25.9899 25.2236 26.0488C25.2975 26.105 25.4138 26.1331 25.3932 26.2679C25.3702 26.4125 25.3981 26.5851 25.2709 26.6848C25.1606 26.7719 25.1691 26.8322 25.2782 26.9108C25.455 27.0386 25.3363 27.2913 25.2975 27.3447C25.1267 27.5861 25.2879 27.888 25.1473 28.1266C25.0989 28.2095 25.2297 28.2586 25.2697 28.326C25.3666 28.4917 25.5932 28.6335 25.3908 28.8918C25.3763 28.9114 25.4041 28.9746 25.4102 29.0181C25.4538 29.3972 25.346 29.758 25.3121 30.1272C25.2854 30.4136 25.2151 30.6888 25.4853 30.8966C25.5992 30.9836 25.6246 31.1577 25.5011 31.2939C25.3702 31.4399 25.3387 31.5578 25.5289 31.6786C25.6283 31.7417 25.6162 31.8386 25.535 31.9397C25.3181 32.2107 25.266 32.5476 25.4381 32.8677C25.5217 33.0249 25.5653 33.1541 25.5192 33.3226C25.489 33.4321 25.5108 33.4798 25.6162 33.5037C25.7737 33.5402 25.6889 33.6272 25.615 33.6511C25.4926 33.6918 25.4974 33.7606 25.518 33.8827C25.5713 34.2098 25.4538 34.5721 25.6792 34.8669C25.7216 34.923 25.6816 34.968 25.4817 35.1224C25.4817 35.2347 25.5495 35.2796 25.6259 35.3091C25.8415 35.3905 25.8657 35.5169 25.6998 35.6966C25.6634 35.7359 25.6053 35.8033 25.6501 35.851C25.8997 36.1108 25.6561 36.3298 25.6101 36.56C25.5835 36.6906 25.4708 36.8366 25.5374 36.9461C25.7591 37.3069 25.6501 37.6832 25.6162 38.058C25.6101 38.124 25.6198 38.1942 25.6707 38.2138C25.8718 38.2911 25.8597 38.4006 25.7555 38.5859C25.6671 38.7431 25.6634 38.9579 25.6513 39.1334C25.6416 39.278 25.7967 39.4423 25.8875 39.5897C25.9142 39.6332 26.0135 39.6795 25.9651 39.7118C25.5701 39.9744 26.0378 40.0923 26.0232 40.3001C25.9384 40.3801 25.6683 40.3787 25.8863 40.6426C25.9009 40.6609 25.9033 40.7002 25.9009 40.7283C25.8585 41.1761 25.8718 41.3853 25.9917 41.7601C26.039 41.9062 26.039 41.989 25.9057 42.0915C25.7143 42.2389 25.7228 42.2768 25.9275 42.4396C26.0414 42.5309 26.1274 42.5997 25.9978 42.7499C25.9239 42.8342 25.9808 42.917 25.9942 43.0012C26.0123 43.1177 26.0475 43.2244 26.0099 43.355C25.9614 43.5291 25.959 43.713 26.079 43.8702C26.1783 43.9994 26.0196 44.2732 26.2764 44.3307C26.3334 44.3434 26.2898 44.4543 26.251 44.5217C26.1529 44.6887 26.0123 44.8572 26.2098 45.058C26.102 45.3907 26.3213 45.6757 26.3128 45.993C22.1864 46 18.0624 46 13.9384 46Z" fill="#F6DE7A"/>
<path d="M22.2591 22.4604C21.4959 22.4688 20.8465 22.2568 20.2298 21.9129C20.0953 21.837 20.0021 21.8272 19.8676 21.8918C19.4823 22.0757 19.0934 22.2231 18.6767 22.3186C18.3108 22.4028 17.9643 22.5783 17.5742 22.553C16.9999 22.5151 16.5844 22.2049 16.3045 21.6349C16.2076 21.4383 16.21 21.232 16.2537 21.0172C16.3675 20.4584 16.6098 19.9881 16.9442 19.5669C17.1792 19.2707 17.4676 19.0643 17.7474 18.8411C17.8759 18.7386 17.9449 18.6361 17.9692 18.448C18.0467 17.8625 18.1363 17.2743 18.6452 16.9444C18.9032 16.255 19.5514 16.3786 19.996 16.0796C20.0263 16.0585 20.0869 16.0515 20.1099 16.0711C20.4418 16.3561 20.8901 16.1497 21.2221 16.4291C21.2742 16.4727 21.359 16.4839 21.3892 16.5386C21.7345 17.1662 22.1901 17.7376 22.2107 18.542C22.2167 18.7681 22.2846 18.9323 22.4796 18.9815C22.6492 19.0236 22.7558 19.171 22.8564 19.2931C22.9824 19.4476 23.1059 19.595 23.2586 19.7157C23.3422 19.7817 23.4234 19.88 23.4634 19.9867C23.6499 20.4921 23.7844 21.0157 23.702 21.5717C23.6317 22.0406 23.2986 22.2189 22.963 22.3579C22.7171 22.459 22.4529 22.4899 22.2591 22.4604Z" fill="#E4A1A2"/>
<path d="M14.4788 14.1534C14.7417 14.1169 14.9367 14.2096 15.1293 14.364C15.3147 14.5128 15.4613 14.7079 15.6345 14.8666C15.8793 15.0912 15.9459 15.3804 15.9059 15.7146C15.8744 15.9841 15.8478 16.2551 15.8078 16.5218C15.7496 16.9163 15.2784 17.3347 14.927 17.3431C14.7429 17.3473 14.5623 17.3965 14.3843 17.4049C14.0777 17.4203 13.4247 16.9949 13.3181 16.5246C13.2418 16.1891 13.1824 15.8507 13.0988 15.5166C13.0116 15.1684 13.203 14.868 13.4114 14.6377C13.7131 14.3064 14.0608 14.0678 14.4788 14.1534Z" fill="#E4A2A2"/>
<path d="M17.7523 9.59065C18.0273 9.57661 18.2417 9.717 18.4537 9.87424C18.6585 10.0273 18.7699 10.2182 18.8511 10.5046C18.9565 10.8809 19.0268 11.2613 19.1128 11.6404C19.1952 11.9998 19.1031 12.3381 18.8765 12.5529C18.5082 12.9011 18.0697 13.0766 17.573 13.0246C17.0835 12.9741 16.8145 12.6835 16.7309 12.1332C16.7152 12.0307 16.6898 11.9169 16.6365 11.8369C16.3784 11.4452 16.5201 11.0241 16.5504 10.6099C16.5529 10.5818 16.565 10.5495 16.5807 10.5271C16.7988 10.2238 17.0193 9.91636 17.3113 9.70858C17.4385 9.61732 17.6008 9.56818 17.7523 9.59065Z" fill="#E4A1A2"/>
<path d="M25.2648 17.4428C24.567 17.4484 24.1345 16.8545 24.2798 16.0739C24.3404 15.7496 24.4422 15.4352 24.4955 15.1108C24.6518 14.1534 25.6549 13.9751 26.1977 14.2755C26.7913 14.604 27.0021 15.1923 26.8046 15.9335C26.7816 16.0206 26.7574 16.1076 26.7332 16.1933C26.526 16.9219 25.9202 17.4386 25.2648 17.4428Z" fill="#E4A1A2"/>
<path d="M21.3456 11.9099C21.5576 11.3792 21.537 10.572 22.2215 10.2196C22.6031 10.0231 23.1786 10.1354 23.4657 10.4695C23.5008 10.5102 23.5275 10.5678 23.5408 10.6225C23.668 11.149 23.7637 11.6769 23.5505 12.209C23.4572 12.442 23.3785 12.6821 23.2876 12.9165C23.267 12.9699 23.2295 13.0162 23.1943 13.0611C22.9762 13.3377 22.1354 13.5329 21.8386 13.3911C21.6206 13.2858 21.5164 13.0738 21.4619 12.8407C21.4013 12.581 21.3456 12.3129 21.3456 11.9099Z" fill="#E4A2A2"/>
</g>
</svg>
