<svg width="40" height="40" viewBox="0 0 40 40" fill="none" xmlns="http://www.w3.org/2000/svg">
<rect width="40" height="40" rx="20" fill="#E3DFFF"/>
<mask id="mask0_773_7632" style="mask-type:alpha" maskUnits="userSpaceOnUse" x="0" y="0" width="40" height="40">
<circle cx="20" cy="20" r="20" fill="#FFD8E9"/>
</mask>
<g mask="url(#mask0_773_7632)">
<path d="M13.6654 45.9972C13.6334 45.2948 13.7332 44.6008 13.7689 43.9026C13.8305 42.6867 13.9119 41.4737 13.9759 40.2578C14.0634 38.5878 14.1423 36.9164 14.2236 35.2463C14.231 35.094 14.2335 34.9417 14.3123 34.8077C14.4466 34.6835 14.5822 34.7287 14.7263 34.7907C15.8871 35.2858 17.0577 35.7146 18.3096 35.8049C18.731 35.8359 19.1562 35.9022 19.5788 35.9459C19.8598 35.9741 20.1382 35.9925 20.4093 35.8796C20.498 35.843 20.5892 35.8317 20.6841 35.8345C22.1332 35.881 23.4972 35.4269 24.8576 34.9247C25.2877 34.7667 25.5058 34.4494 25.6117 33.9839C25.7177 34.1475 25.6672 34.338 25.6758 34.5157C25.7473 36.0503 25.8126 37.5849 25.8828 39.121C25.9087 39.6979 25.9407 40.2762 25.9715 40.8531C26.0639 42.5682 26.1576 44.2834 26.25 46C22.0543 45.9972 17.8599 45.9972 13.6654 45.9972Z" fill="#80944B"/>
<path d="M25.6117 33.9825C25.6056 34.0573 25.5944 34.1334 25.5932 34.2082C25.592 34.7174 25.5871 34.7033 25.1619 34.9092C24.1675 35.3902 23.13 35.6638 22.0642 35.8444C21.7253 35.9022 21.3864 36.0503 21.0464 35.9911C20.5954 35.9135 20.1789 36.1406 19.7291 36.0983C19.0329 36.0334 18.3417 35.8966 17.6393 35.9036C17.4335 35.905 17.2216 35.8148 17.022 35.7386C16.3935 35.5002 15.7528 35.3211 15.1034 35.1758C14.9913 35.1504 14.9087 35.0869 14.8261 35.0079C14.6783 34.8641 14.5095 34.7879 14.3123 34.8062C14.3061 34.7512 14.2987 34.6962 14.2926 34.6398C14.2618 34.5397 14.2593 34.4395 14.295 34.3408C14.3 34.1913 14.3049 34.0418 14.3098 33.8922C14.4109 33.4987 14.2938 33.0883 14.3764 32.6919C14.4257 31.1206 14.4934 29.5493 14.5181 27.978C14.5563 25.6112 14.6179 23.2458 14.4552 20.8803C14.3776 19.7604 14.0116 18.8182 13.3117 18.0382C13.1491 17.8576 12.9901 17.6714 12.8226 17.4965C12.1793 16.8266 11.9871 15.9605 12.0007 15.0098C12.0044 14.7827 12.0352 14.5528 12.0746 14.3286C12.3272 12.8771 13.6444 12.0308 14.8717 12.5203C15.1268 12.6218 15.3535 12.7798 15.5839 12.9336C15.6677 12.99 15.7306 13.1212 15.8932 13.052C15.7638 12.6543 15.6197 12.2664 15.51 11.8644C15.2438 10.8897 15.2586 9.94189 15.7528 9.04763C16.4773 7.73304 18.057 7.74291 18.8715 8.59344C19.3582 9.10123 19.6712 9.73313 19.9053 10.4215C20.0113 10.7332 20.0877 11.0576 20.1863 11.4088C20.3341 11.2565 20.3341 11.0534 20.3723 10.8813C20.5757 9.94753 21.0698 9.27472 21.7955 8.82759C23.0241 8.07297 24.9907 9.13931 24.9229 11.0139C24.9019 11.595 24.7454 12.1197 24.5421 12.6374C24.4781 12.7996 24.4152 12.9618 24.3499 13.1268C24.4842 13.203 24.5421 13.0887 24.6161 13.0422C25.0449 12.7714 25.4934 12.6162 25.9912 12.6275C26.9191 12.6472 27.704 13.337 27.9036 14.368C28.1353 15.567 27.9566 16.6799 27.2887 17.6588C26.9363 18.1764 26.5654 18.6785 26.1797 19.1638C25.5279 19.9819 25.2001 20.9241 25.2235 22.0384C25.279 24.6478 25.3542 27.2572 25.4577 29.8653C25.5094 31.2377 25.56 32.6101 25.6117 33.9825Z" fill="#334B12"/>
<path d="M21.9212 22.7253C21.5515 22.7041 21.22 22.6604 20.9034 22.525C20.2651 22.2513 19.6243 22.2626 18.9823 22.5095C18.4796 22.7027 17.9658 22.7492 17.4421 22.6519C17.1587 22.5997 16.8999 22.4798 16.6781 22.2753C16.1137 21.7562 16.0435 20.8563 16.5105 20.1426C16.6707 19.8986 16.8617 19.6842 17.0933 19.5234C17.2178 19.436 17.3373 19.3372 17.4581 19.2427C17.7858 18.9888 17.9781 18.6531 18.0138 18.1863C18.052 17.6742 18.2011 17.2046 18.535 16.8336C19.1179 16.189 19.8067 16.0099 20.5645 16.2962C21.3026 16.5755 21.7326 17.1933 21.8275 18.0748C21.8879 18.6348 22.1097 19.0453 22.5188 19.3443C22.7874 19.5418 23.0585 19.7322 23.2717 20.0185C24.0012 20.9946 23.6746 22.2612 22.5952 22.6152C22.3648 22.6942 22.1257 22.721 21.9212 22.7253Z" fill="#F1EADC"/>
<path d="M16.4551 10.9179C16.4416 10.5216 16.5291 10.1647 16.7632 9.8643C17.0491 9.49757 17.4138 9.40025 17.8118 9.58361C18.1876 9.75569 18.4513 10.066 18.6312 10.4765C18.8 10.8615 18.9011 11.272 18.9491 11.6951C19.0231 12.3383 18.8013 12.7403 18.2677 12.9716C18.1802 13.0097 18.0915 13.0393 18.0016 13.0661C17.3941 13.2467 17.0355 13.0577 16.762 12.4173C16.5907 12.0139 16.4564 11.3594 16.4551 10.9179Z" fill="#F1EADC"/>
<path d="M13.191 15.1198C13.186 14.2538 13.7664 13.7643 14.5439 14.0154C15.2648 14.2467 15.7429 14.842 16.0534 15.598C16.1692 15.8787 16.1261 16.1932 15.9758 16.4725C15.8119 16.7786 15.5901 17.0184 15.3215 17.1919C15.0664 17.3569 14.7818 17.3992 14.5205 17.2215C13.9845 16.8576 13.5372 16.3935 13.2957 15.7122C13.2242 15.5134 13.1762 15.3102 13.191 15.1198Z" fill="#F1EADC"/>
<path d="M23.6401 11.3087C23.6524 11.9829 23.4109 12.5555 23.0856 13.0859C22.934 13.3327 22.7085 13.4611 22.435 13.4667C21.9988 13.4766 21.6316 13.2876 21.3087 12.9688C21.1239 12.7855 21.0413 12.5372 21.0684 12.272C21.135 11.6133 21.3063 10.9913 21.6698 10.4595C21.7757 10.3044 21.9051 10.1704 22.0554 10.066C22.7332 9.59771 23.4552 9.96162 23.6068 10.8531C23.6327 11.0026 23.6302 11.1577 23.6401 11.3087Z" fill="#F1EADC"/>
<path d="M25.6708 14.0704C26.2105 14.0041 26.7182 14.447 26.68 15.227C26.6652 15.5373 26.6085 15.8293 26.4619 16.0931C26.1637 16.6305 25.7841 17.0649 25.2641 17.323C25.0423 17.4331 24.8316 17.4246 24.6111 17.3118C24.4102 17.2088 24.2537 17.0494 24.1071 16.8731C23.6278 16.3032 23.6105 15.787 24.0615 15.1791C24.3289 14.8194 24.6074 14.4738 24.9894 14.2594C25.2075 14.1367 25.4305 14.0535 25.6708 14.0704Z" fill="#F1EADC"/>
</g>
</svg>
