<svg width="40" height="40" viewBox="0 0 40 40" fill="none" xmlns="http://www.w3.org/2000/svg">
<rect width="40" height="40" rx="20" fill="#E3DFFF"/>
<mask id="mask0_773_7657" style="mask-type:alpha" maskUnits="userSpaceOnUse" x="0" y="0" width="40" height="40">
<circle cx="20" cy="20" r="20" fill="#FFD8E9"/>
</mask>
<g mask="url(#mask0_773_7657)">
<path d="M25.623 34.6643C25.708 34.8918 25.7043 35.1347 25.7302 35.3748C25.8226 36.23 25.7413 37.0977 25.8793 37.95C25.8843 37.9795 25.8843 38.0104 25.883 38.0413C25.8288 38.9512 25.9545 39.8555 25.9817 40.7625C26.0001 41.3902 25.9915 42.0319 26.1148 42.6539C26.121 42.6834 26.1247 42.7143 26.1222 42.7438C26.0716 43.4431 26.243 44.1297 26.2035 44.8275C26.1814 45.2235 26.333 45.6026 26.2849 46C22.0617 46 17.8385 46 13.6153 46C13.7053 45.2067 13.72 44.4063 13.7891 43.613C13.8482 42.9376 13.7903 42.2523 13.9259 41.5854C13.9321 41.5559 13.9345 41.525 13.9333 41.4955C13.884 40.7527 13.9925 40.0155 14.0319 39.2784C14.0714 38.558 14.0381 37.8293 14.1663 37.1146C14.1737 37.0711 14.1774 37.0233 14.1749 36.9784C14.1453 36.1752 14.2119 35.3777 14.2637 34.5773C14.3869 34.5239 14.504 34.5633 14.6113 34.625C15.489 35.1347 16.4579 35.358 17.3996 35.5588C18.4339 35.7778 19.5001 35.8719 20.5788 35.782C21.6364 35.6936 22.6632 35.4816 23.6901 35.2232C24.1474 35.1081 24.5789 34.9059 25.0177 34.7247C25.2125 34.6433 25.4072 34.5043 25.623 34.6643Z" fill="#F1EADD"/>
<path d="M25.623 34.6643C25.3887 34.5843 25.2113 34.7725 25.0264 34.8609C24.3003 35.2092 23.5435 35.4184 22.7767 35.5967C22.4254 35.6781 22.0642 35.6767 21.7228 35.8382C21.5009 35.9435 21.2457 35.8677 21.0103 35.8691C20.4593 35.8705 19.9181 35.9828 19.356 35.9253C18.8321 35.8719 18.307 35.7245 17.7708 35.7933C17.5415 35.8228 17.3196 35.7301 17.1063 35.6487C16.4394 35.3917 15.7602 35.1993 15.0712 35.0393C14.9614 35.014 14.869 34.9508 14.795 34.8651C14.6459 34.6938 14.408 34.7472 14.2613 34.5773C14.4129 32.0133 14.477 29.4466 14.5238 26.8784C14.5485 25.4953 14.6064 24.1136 14.5497 22.7305C14.5177 21.9414 14.4819 21.1509 14.408 20.366C14.318 19.421 13.8939 18.6529 13.322 17.9817C13.2295 17.8722 13.1346 17.7641 13.0323 17.6672C12.0806 16.7756 11.8526 15.6186 12.0831 14.3001C12.2544 13.3214 12.7882 12.7022 13.6203 12.4592C14.2489 12.2753 14.8653 12.3904 15.4262 12.7976C15.5556 12.8917 15.6628 13.0476 15.8638 13.0518C15.8391 12.6909 15.6937 12.382 15.5864 12.0647C15.3448 11.3472 15.2807 10.6156 15.4496 9.8714C15.6542 8.96853 16.1128 8.30578 16.9374 8.08112C17.7338 7.86347 18.4487 8.08252 19.033 8.7537C19.4842 9.27183 19.7616 9.91071 19.9674 10.5931C20.0438 10.8473 20.1067 11.1056 20.1905 11.4146C20.3187 11.2264 20.336 11.0523 20.373 10.8838C20.5714 9.97671 21.0522 9.31115 21.7561 8.85339C22.471 8.38862 23.472 8.51921 24.1635 9.1595C24.8846 9.82787 25.0757 10.6928 24.8563 11.6982C24.7503 12.1868 24.521 12.6193 24.3607 13.115C24.5161 13.1585 24.5974 13.0349 24.6923 12.9774C25.2027 12.667 25.7451 12.5224 26.3158 12.6305C27.2354 12.8032 27.8702 13.6219 27.9738 14.6904C28.0921 15.9233 27.8123 17.0058 27.0875 17.9368C26.7509 18.3693 26.4329 18.8186 26.0939 19.2483C25.5232 19.9728 25.2286 20.8237 25.2471 21.787C25.2791 23.427 25.2939 25.0684 25.3728 26.7085C25.4381 28.0438 25.4529 29.382 25.5121 30.7173C25.5552 31.703 25.5528 32.6915 25.6501 33.673C25.6884 34.0058 25.734 34.3386 25.623 34.6658L25.623 34.6643Z" fill="#51382E"/>
<path d="M21.9212 22.6618C21.5723 22.6463 21.2296 22.5859 20.9017 22.4525C20.2878 22.2054 19.6789 22.197 19.0588 22.423C18.4918 22.6309 17.9124 22.7109 17.3232 22.5508C16.9189 22.4413 16.5811 22.2138 16.3679 21.7912C16.0954 21.2506 16.162 20.6033 16.5441 20.0472C16.7106 19.8057 16.9152 19.612 17.1395 19.4449C17.2172 19.3859 17.2998 19.3353 17.3762 19.275C17.7534 18.9759 17.9938 18.6094 18.032 18.0463C18.101 17.0382 18.8148 16.2673 19.7085 16.1493C20.6096 16.0314 21.454 16.6043 21.7424 17.5366C21.7954 17.7079 21.8423 17.8877 21.8534 18.066C21.8879 18.6557 22.1726 19.0489 22.5917 19.341C22.8321 19.508 23.0565 19.692 23.2549 19.9237C23.4386 20.1371 23.5545 20.3898 23.6272 20.6679C23.8269 21.4359 23.5052 22.1492 22.821 22.4638C22.5338 22.5958 22.2318 22.6575 21.9212 22.6618Z" fill="#F1EADC"/>
<path d="M18.9726 11.8877C18.9849 12.3567 18.7852 12.6614 18.4326 12.8692C18.1898 13.0125 17.9322 13.0813 17.6671 13.1009C17.3565 13.1234 17.0878 12.997 16.9177 12.6825C16.5959 12.0871 16.4418 11.437 16.4542 10.7392C16.4579 10.558 16.501 10.3811 16.57 10.2126C16.8942 9.41645 17.6338 9.24936 18.2181 9.84752C18.7494 10.3937 18.9023 11.1239 18.9726 11.8877Z" fill="#F1EADC"/>
<path d="M23.6569 11.2531C23.6594 11.9509 23.4486 12.5168 23.1256 13.0321C22.9444 13.32 22.6843 13.4477 22.3638 13.4379C21.9854 13.4267 21.6661 13.2582 21.3777 13.0012C21.136 12.7864 21.0547 12.4873 21.0978 12.1489C21.1607 11.6504 21.2938 11.1744 21.5059 10.7307C21.6353 10.4597 21.819 10.2407 22.0458 10.0736C22.7349 9.56529 23.5102 9.96547 23.6335 10.8936C23.6507 11.0284 23.652 11.166 23.6569 11.2531Z" fill="#F1EADC"/>
<path d="M25.7277 14.0291C26.3181 14.0347 26.6929 14.4672 26.7015 15.1454C26.7052 15.4262 26.6448 15.6874 26.5314 15.9317C26.2701 16.499 25.8744 16.9174 25.3936 17.2375C25.348 17.2684 25.2962 17.2867 25.2457 17.3049C24.8241 17.4594 24.3865 17.246 24.0068 16.704C23.7048 16.2715 23.6518 15.8278 23.9058 15.4037C24.246 14.8322 24.6552 14.3408 25.258 14.1147C25.4121 14.0558 25.5674 14.0305 25.7277 14.0291Z" fill="#F1EADC"/>
<path d="M14.2391 13.9448C14.4425 13.921 14.6521 13.9982 14.8604 14.1175C15.3535 14.3984 15.7134 14.8322 15.9858 15.3686C16.1769 15.7449 16.1596 16.1156 15.9575 16.4849C15.8354 16.7082 15.674 16.8879 15.4915 17.041C15.081 17.385 14.7346 17.3878 14.3192 17.0438C13.8841 16.6829 13.5032 16.2645 13.306 15.6733C13.2493 15.5034 13.2049 15.3307 13.1987 15.1454C13.1741 14.3829 13.5402 13.9448 14.2391 13.9448Z" fill="#F1EADC"/>
</g>
</svg>
