<svg width="40" height="40" viewBox="0 0 40 40" fill="none" xmlns="http://www.w3.org/2000/svg">
<rect width="40" height="40" rx="20" fill="#CEE5FF"/>
<path d="M20 19.05L17.925 21.125C17.775 21.275 17.6 21.35 17.4 21.35C17.2 21.35 17.025 21.275 16.875 21.125C16.725 20.975 16.65 20.7958 16.65 20.5875C16.65 20.3792 16.725 20.2 16.875 20.05L19.25 17.7V10.75C19.25 10.5333 19.3208 10.3542 19.4625 10.2125C19.6042 10.0708 19.7833 10 20 10C20.2167 10 20.3958 10.0708 20.5375 10.2125C20.6792 10.3542 20.75 10.5333 20.75 10.75V17.7L23.125 20.075C23.275 20.225 23.35 20.4 23.35 20.6C23.35 20.8 23.275 20.975 23.125 21.125C22.975 21.275 22.7958 21.35 22.5875 21.35C22.3792 21.35 22.2 21.275 22.05 21.125L20 19.05ZM12.75 29C11.9833 29 11.3333 28.7333 10.8 28.2C10.2667 27.6667 10 27.0167 10 26.25V21.9C10 21.8167 10.0083 21.7292 10.025 21.6375C10.0417 21.5458 10.0667 21.4583 10.1 21.375L12.7 14.65C12.9 14.1333 13.2333 13.7292 13.7 13.4375C14.1667 13.1458 14.675 13 15.225 13C15.925 13 16.5208 13.2458 17.0125 13.7375C17.5042 14.2292 17.75 14.825 17.75 15.525V16.25C17.75 16.4667 17.6792 16.6458 17.5375 16.7875C17.3958 16.9292 17.2167 17 17 17C16.7833 17 16.6042 16.9292 16.4625 16.7875C16.3208 16.6458 16.25 16.4667 16.25 16.25V15.525C16.25 15.2417 16.1417 15 15.925 14.8C15.7083 14.6 15.4583 14.5 15.175 14.5C14.9417 14.5 14.725 14.5542 14.525 14.6625C14.325 14.7708 14.1833 14.9333 14.1 15.15L11.5 21.875V26.25C11.5 26.6 11.6208 26.8958 11.8625 27.1375C12.1042 27.3792 12.4 27.5 12.75 27.5H16.25C16.6 27.5 16.8958 27.3792 17.1375 27.1375C17.3792 26.8958 17.5 26.6 17.5 26.25V25.25C17.5 25.0333 17.5708 24.8542 17.7125 24.7125C17.8542 24.5708 18.0333 24.5 18.25 24.5C18.4667 24.5 18.6458 24.5708 18.7875 24.7125C18.9292 24.8542 19 25.0333 19 25.25V26.25C19 27.0167 18.7333 27.6667 18.2 28.2C17.6667 28.7333 17.0167 29 16.25 29H12.75ZM27.25 29H23.75C22.9833 29 22.3333 28.7333 21.8 28.2C21.2667 27.6667 21 27.0167 21 26.25V25.25C21 25.0333 21.0708 24.8542 21.2125 24.7125C21.3542 24.5708 21.5333 24.5 21.75 24.5C21.9667 24.5 22.1458 24.5708 22.2875 24.7125C22.4292 24.8542 22.5 25.0333 22.5 25.25V26.25C22.5 26.6 22.6208 26.8958 22.8625 27.1375C23.1042 27.3792 23.4 27.5 23.75 27.5H27.25C27.6 27.5 27.8958 27.3792 28.1375 27.1375C28.3792 26.8958 28.5 26.6 28.5 26.25V21.875L25.9 15.15C25.8167 14.9333 25.675 14.7708 25.475 14.6625C25.275 14.5542 25.0583 14.5 24.825 14.5C24.5417 14.5 24.2917 14.6 24.075 14.8C23.8583 15 23.75 15.2417 23.75 15.525V16.25C23.75 16.4667 23.6792 16.6458 23.5375 16.7875C23.3958 16.9292 23.2167 17 23 17C22.7833 17 22.6042 16.9292 22.4625 16.7875C22.3208 16.6458 22.25 16.4667 22.25 16.25V15.525C22.25 14.825 22.4958 14.2292 22.9875 13.7375C23.4792 13.2458 24.075 13 24.775 13C25.325 13 25.8333 13.1458 26.3 13.4375C26.7667 13.7292 27.1 14.1333 27.3 14.65L29.9 21.375C29.9333 21.4583 29.9583 21.5458 29.975 21.6375C29.9917 21.7292 30 21.8167 30 21.9V26.25C30 27.0167 29.7333 27.6667 29.2 28.2C28.6667 28.7333 28.0167 29 27.25 29Z" fill="#00639B"/>
</svg>
