<svg width="56" height="56" viewBox="0 0 56 56" fill="none" xmlns="http://www.w3.org/2000/svg">
<rect width="56" height="56" rx="28" fill="#726DC3"/>
<path d="M28.0004 30.8C27.6037 30.8 27.2712 30.6658 27.0029 30.3975C26.7346 30.1292 26.6004 29.7967 26.6004 29.4C26.6004 29.0033 26.7346 28.6708 27.0029 28.4025C27.2712 28.1342 27.6037 28 28.0004 28C28.3971 28 28.7296 28.1342 28.9979 28.4025C29.2662 28.6708 29.4004 29.0033 29.4004 29.4C29.4004 29.7967 29.2662 30.1292 28.9979 30.3975C28.7296 30.6658 28.3971 30.8 28.0004 30.8ZM22.4004 30.8C22.0037 30.8 21.6712 30.6658 21.4029 30.3975C21.1346 30.1292 21.0004 29.7967 21.0004 29.4C21.0004 29.0033 21.1346 28.6708 21.4029 28.4025C21.6712 28.1342 22.0037 28 22.4004 28C22.7971 28 23.1296 28.1342 23.3979 28.4025C23.6662 28.6708 23.8004 29.0033 23.8004 29.4C23.8004 29.7967 23.6662 30.1292 23.3979 30.3975C23.1296 30.6658 22.7971 30.8 22.4004 30.8ZM33.6004 30.8C33.2037 30.8 32.8712 30.6658 32.6029 30.3975C32.3346 30.1292 32.2004 29.7967 32.2004 29.4C32.2004 29.0033 32.3346 28.6708 32.6029 28.4025C32.8712 28.1342 33.2037 28 33.6004 28C33.9971 28 34.3296 28.1342 34.5979 28.4025C34.8662 28.6708 35.0004 29.0033 35.0004 29.4C35.0004 29.7967 34.8662 30.1292 34.5979 30.3975C34.3296 30.6658 33.9971 30.8 33.6004 30.8ZM28.0004 36.4C27.6037 36.4 27.2712 36.2658 27.0029 35.9975C26.7346 35.7292 26.6004 35.3967 26.6004 35C26.6004 34.6033 26.7346 34.2708 27.0029 34.0025C27.2712 33.7342 27.6037 33.6 28.0004 33.6C28.3971 33.6 28.7296 33.7342 28.9979 34.0025C29.2662 34.2708 29.4004 34.6033 29.4004 35C29.4004 35.3967 29.2662 35.7292 28.9979 35.9975C28.7296 36.2658 28.3971 36.4 28.0004 36.4ZM22.4004 36.4C22.0037 36.4 21.6712 36.2658 21.4029 35.9975C21.1346 35.7292 21.0004 35.3967 21.0004 35C21.0004 34.6033 21.1346 34.2708 21.4029 34.0025C21.6712 33.7342 22.0037 33.6 22.4004 33.6C22.7971 33.6 23.1296 33.7342 23.3979 34.0025C23.6662 34.2708 23.8004 34.6033 23.8004 35C23.8004 35.3967 23.6662 35.7292 23.3979 35.9975C23.1296 36.2658 22.7971 36.4 22.4004 36.4ZM33.6004 36.4C33.2037 36.4 32.8712 36.2658 32.6029 35.9975C32.3346 35.7292 32.2004 35.3967 32.2004 35C32.2004 34.6033 32.3346 34.2708 32.6029 34.0025C32.8712 33.7342 33.2037 33.6 33.6004 33.6C33.9971 33.6 34.3296 33.7342 34.5979 34.0025C34.8662 34.2708 35.0004 34.6033 35.0004 35C35.0004 35.3967 34.8662 35.7292 34.5979 35.9975C34.3296 36.2658 33.9971 36.4 33.6004 36.4ZM17.5004 42C16.9404 42 16.4504 41.79 16.0304 41.37C15.6104 40.95 15.4004 40.46 15.4004 39.9V18.2C15.4004 17.64 15.6104 17.15 16.0304 16.73C16.4504 16.31 16.9404 16.1 17.5004 16.1H19.7754V15.12C19.7754 14.7933 19.8804 14.525 20.0904 14.315C20.3004 14.105 20.5687 14 20.8954 14C21.2221 14 21.4962 14.105 21.7179 14.315C21.9396 14.525 22.0504 14.7933 22.0504 15.12V16.1H33.9504V15.12C33.9504 14.7933 34.0554 14.525 34.2654 14.315C34.4754 14.105 34.7437 14 35.0704 14C35.3971 14 35.6712 14.105 35.8929 14.315C36.1146 14.525 36.2254 14.7933 36.2254 15.12V16.1H38.5004C39.0604 16.1 39.5504 16.31 39.9704 16.73C40.3904 17.15 40.6004 17.64 40.6004 18.2V39.9C40.6004 40.46 40.3904 40.95 39.9704 41.37C39.5504 41.79 39.0604 42 38.5004 42H17.5004ZM17.5004 39.9H38.5004V24.85H17.5004V39.9ZM17.5004 22.75H38.5004V18.2H17.5004V22.75Z" fill="#F4EFF4"/>
</svg>
