<svg width="56" height="56" viewBox="0 0 56 56" fill="none" xmlns="http://www.w3.org/2000/svg">
<rect width="56" height="56" rx="28" fill="#956B80"/>
<path d="M21.35 33.25V35.35C21.35 35.6533 21.4492 35.9042 21.6475 36.1025C21.8458 36.3008 22.0967 36.4 22.4 36.4C22.7033 36.4 22.9542 36.3008 23.1525 36.1025C23.3508 35.9042 23.45 35.6533 23.45 35.35V33.25H25.55C25.8533 33.25 26.1042 33.1508 26.3025 32.9525C26.5008 32.7542 26.6 32.5033 26.6 32.2C26.6 31.8967 26.5008 31.6458 26.3025 31.4475C26.1042 31.2492 25.8533 31.15 25.55 31.15H23.45V29.05C23.45 28.7467 23.3508 28.4958 23.1525 28.2975C22.9542 28.0992 22.7033 28 22.4 28C22.0967 28 21.8458 28.0992 21.6475 28.2975C21.4492 28.4958 21.35 28.7467 21.35 29.05V31.15H19.25C18.9467 31.15 18.6958 31.2492 18.4975 31.4475C18.2992 31.6458 18.2 31.8967 18.2 32.2C18.2 32.5033 18.2992 32.7542 18.4975 32.9525C18.6958 33.1508 18.9467 33.25 19.25 33.25H21.35ZM37.1 31.15C37.2867 31.15 37.45 31.08 37.59 30.94C37.73 30.8 37.8 30.6367 37.8 30.45C37.8 30.2633 37.73 30.1 37.59 29.96C37.45 29.82 37.2867 29.75 37.1 29.75H30.1C29.9133 29.75 29.75 29.82 29.61 29.96C29.47 30.1 29.4 30.2633 29.4 30.45C29.4 30.6367 29.47 30.8 29.61 30.94C29.75 31.08 29.9133 31.15 30.1 31.15H37.1ZM34.3 35.35C34.4867 35.35 34.65 35.28 34.79 35.14C34.93 35 35 34.8367 35 34.65C35 34.4633 34.93 34.3 34.79 34.16C34.65 34.02 34.4867 33.95 34.3 33.95H30.1C29.9133 33.95 29.75 34.02 29.61 34.16C29.47 34.3 29.4 34.4633 29.4 34.65C29.4 34.8367 29.47 35 29.61 35.14C29.75 35.28 29.9133 35.35 30.1 35.35H34.3ZM31.64 21H39.9C40.46 21 40.95 21.21 41.37 21.63C41.79 22.05 42 22.54 42 23.1V39.9C42 40.46 41.79 40.95 41.37 41.37C40.95 41.79 40.46 42 39.9 42H16.1C15.54 42 15.05 41.79 14.63 41.37C14.21 40.95 14 40.46 14 39.9V23.1C14 22.54 14.21 22.05 14.63 21.63C15.05 21.21 15.54 21 16.1 21H24.395V16.1C24.395 15.54 24.605 15.05 25.025 14.63C25.445 14.21 25.935 14 26.495 14H29.54C30.1 14 30.59 14.21 31.01 14.63C31.43 15.05 31.64 15.54 31.64 16.1V21ZM26.495 23.1H29.54V16.1H26.495V23.1ZM24.395 23.1H16.1V39.9H39.9V23.1H31.64C31.64 23.7533 31.4242 24.2667 30.9925 24.64C30.5608 25.0133 30.0183 25.2 29.365 25.2H26.635C26.005 25.2 25.4742 25.0133 25.0425 24.64C24.6108 24.2667 24.395 23.7533 24.395 23.1Z" fill="#F4EFF4"/>
</svg>
