<svg width="40" height="40" viewBox="0 0 40 40" fill="none" xmlns="http://www.w3.org/2000/svg">
<rect width="40" height="40" rx="20" fill="#CEE5FF"/>
<path d="M15.25 11C16.2 11 17.0792 11.225 17.8875 11.675C18.6958 12.125 19.4 12.775 20 13.625C20.7 12.725 21.4417 12.0625 22.225 11.6375C23.0083 11.2125 23.85 11 24.75 11C26.2333 11 27.4792 11.5042 28.4875 12.5125C29.4958 13.5208 30 14.775 30 16.275C30 16.525 29.9875 16.7708 29.9625 17.0125C29.9375 17.2542 29.8917 17.5 29.825 17.75H28.275C28.3583 17.5 28.4167 17.2542 28.45 17.0125C28.4833 16.7708 28.5 16.525 28.5 16.275C28.5 15.175 28.15 14.2708 27.45 13.5625C26.75 12.8542 25.85 12.5 24.75 12.5C23.9 12.5 23.1083 12.7625 22.375 13.2875C21.6417 13.8125 21.05 14.55 20.6 15.5H19.375C18.9417 14.5667 18.3583 13.8333 17.625 13.3C16.8917 12.7667 16.1 12.5 15.25 12.5C14.15 12.5 13.25 12.8542 12.55 13.5625C11.85 14.2708 11.5 15.175 11.5 16.275C11.5 16.525 11.5167 16.7708 11.55 17.0125C11.5833 17.2542 11.6417 17.5 11.725 17.75H10.175C10.1083 17.5 10.0625 17.2542 10.0375 17.0125C10.0125 16.7708 10 16.525 10 16.275C10 14.775 10.5042 13.5208 11.5125 12.5125C12.5208 11.5042 13.7667 11 15.25 11ZM20 28.8C19.8167 28.8 19.6375 28.7708 19.4625 28.7125C19.2875 28.6542 19.1333 28.5583 19 28.425C18.3 27.775 17.6458 27.1667 17.0375 26.6C16.4292 26.0333 15.8708 25.4958 15.3625 24.9875C14.8542 24.4792 14.3875 23.9958 13.9625 23.5375C13.5375 23.0792 13.15 22.65 12.8 22.25H14.75C15.3833 22.95 16.1292 23.7125 16.9875 24.5375C17.8458 25.3625 18.85 26.3 20 27.35C21.15 26.3 22.15 25.3625 23 24.5375C23.85 23.7125 24.5917 22.95 25.225 22.25H27.2C26.85 22.65 26.4625 23.0792 26.0375 23.5375C25.6125 23.9958 25.1458 24.4792 24.6375 24.9875C24.1292 25.4958 23.5708 26.0333 22.9625 26.6C22.3542 27.1667 21.7 27.775 21 28.425C20.8667 28.5583 20.7125 28.6542 20.5375 28.7125C20.3625 28.7708 20.1833 28.8 20 28.8ZM19.05 23.75C19.2 23.75 19.3333 23.7042 19.45 23.6125C19.5667 23.5208 19.65 23.4 19.7 23.25L21.225 18.725L22.375 20.425C22.4583 20.525 22.55 20.6042 22.65 20.6625C22.75 20.7208 22.8667 20.75 23 20.75H30C30.2167 20.75 30.3958 20.6792 30.5375 20.5375C30.6792 20.3958 30.75 20.2167 30.75 20C30.75 19.7833 30.6792 19.6042 30.5375 19.4625C30.3958 19.3208 30.2167 19.25 30 19.25H23.425L21.625 16.6C21.5417 16.4833 21.4417 16.4 21.325 16.35C21.2083 16.3 21.0833 16.275 20.95 16.275C20.8 16.275 20.6625 16.3208 20.5375 16.4125C20.4125 16.5042 20.325 16.625 20.275 16.775L18.775 21.3L17.6 19.575C17.5167 19.475 17.4292 19.3958 17.3375 19.3375C17.2458 19.2792 17.1333 19.25 17 19.25H10C9.78333 19.25 9.60417 19.3208 9.4625 19.4625C9.32083 19.6042 9.25 19.7833 9.25 20C9.25 20.2167 9.32083 20.3958 9.4625 20.5375C9.60417 20.6792 9.78333 20.75 10 20.75H16.55L18.35 23.425C18.4333 23.5417 18.5375 23.625 18.6625 23.675C18.7875 23.725 18.9167 23.75 19.05 23.75Z" fill="#00639B"/>
</svg>
