<svg width="40" height="40" viewBox="0 0 40 40" fill="none" xmlns="http://www.w3.org/2000/svg">
<rect width="40" height="40" rx="20" fill="#CEE5FF"/>
<path d="M26.25 27.75H23.75C23.5333 27.75 23.3542 27.6792 23.2125 27.5375C23.0708 27.3958 23 27.2167 23 27C23 26.7833 23.0708 26.6042 23.2125 26.4625C23.3542 26.3208 23.5333 26.25 23.75 26.25H26.25V23.75C26.25 23.5333 26.3208 23.3542 26.4625 23.2125C26.6042 23.0708 26.7833 23 27 23C27.2167 23 27.3958 23.0708 27.5375 23.2125C27.6792 23.3542 27.75 23.5333 27.75 23.75V26.25H30.25C30.4667 26.25 30.6458 26.3208 30.7875 26.4625C30.9292 26.6042 31 26.7833 31 27C31 27.2167 30.9292 27.3958 30.7875 27.5375C30.6458 27.6792 30.4667 27.75 30.25 27.75H27.75V30.25C27.75 30.4667 27.6792 30.6458 27.5375 30.7875C27.3958 30.9292 27.2167 31 27 31C26.7833 31 26.6042 30.9292 26.4625 30.7875C26.3208 30.6458 26.25 30.4667 26.25 30.25V27.75ZM20.025 13.875C19.175 13.875 18.4667 14.1583 17.9 14.725C17.3333 15.2917 17.05 15.9917 17.05 16.825C17.05 17.675 17.3333 18.3792 17.9 18.9375C18.4667 19.4958 19.175 19.775 20.025 19.775C20.8583 19.775 21.5542 19.4958 22.1125 18.9375C22.6708 18.3792 22.95 17.675 22.95 16.825C22.95 15.9917 22.6708 15.2917 22.1125 14.725C21.5542 14.1583 20.8583 13.875 20.025 13.875ZM18.425 16.325C18.5583 16.325 18.675 16.375 18.775 16.475C18.875 16.575 18.925 16.6917 18.925 16.825C18.925 16.9583 18.875 17.075 18.775 17.175C18.675 17.275 18.5583 17.325 18.425 17.325C18.2917 17.325 18.175 17.275 18.075 17.175C17.975 17.075 17.925 16.9583 17.925 16.825C17.925 16.6917 17.975 16.575 18.075 16.475C18.175 16.375 18.2917 16.325 18.425 16.325ZM20 16.325C20.1333 16.325 20.25 16.375 20.35 16.475C20.45 16.575 20.5 16.6917 20.5 16.825C20.5 16.9583 20.45 17.075 20.35 17.175C20.25 17.275 20.1333 17.325 20 17.325C19.8667 17.325 19.75 17.275 19.65 17.175C19.55 17.075 19.5 16.9583 19.5 16.825C19.5 16.6917 19.55 16.575 19.65 16.475C19.75 16.375 19.8667 16.325 20 16.325ZM21.575 16.325C21.7083 16.325 21.825 16.375 21.925 16.475C22.025 16.575 22.075 16.6917 22.075 16.825C22.075 16.9583 22.025 17.075 21.925 17.175C21.825 17.275 21.7083 17.325 21.575 17.325C21.4417 17.325 21.325 17.275 21.225 17.175C21.125 17.075 21.075 16.9583 21.075 16.825C21.075 16.6917 21.125 16.575 21.225 16.475C21.325 16.375 21.4417 16.325 21.575 16.325ZM12.5 29C12.1 29 11.75 28.85 11.45 28.55C11.15 28.25 11 27.9 11 27.5V12.5C11 12.1 11.15 11.75 11.45 11.45C11.75 11.15 12.1 11 12.5 11H27.5C27.9 11 28.25 11.15 28.55 11.45C28.85 11.75 29 12.1 29 12.5V20.775C29 20.9917 28.9292 21.1708 28.7875 21.3125C28.6458 21.4542 28.4667 21.525 28.25 21.525C28.0333 21.525 27.8542 21.4542 27.7125 21.3125C27.5708 21.1708 27.5 20.9917 27.5 20.775V12.5H12.5V27.5H21.15C21.3667 27.5 21.5458 27.5708 21.6875 27.7125C21.8292 27.8542 21.9 28.0333 21.9 28.25C21.9 28.4667 21.8292 28.6458 21.6875 28.7875C21.5458 28.9292 21.3667 29 21.15 29H12.5Z" fill="#00639B"/>
</svg>
