<svg width="40" height="40" viewBox="0 0 40 40" fill="none" xmlns="http://www.w3.org/2000/svg">
<rect width="40" height="40" rx="20" fill="#E3DFFF"/>
<path d="M19.3333 26.0003L20.35 25.0003H26.1667C26.3083 25.0003 26.4271 25.0485 26.5229 25.1448C26.6187 25.2412 26.6667 25.3607 26.6667 25.5032C26.6667 25.6457 26.6187 25.7641 26.5229 25.8586C26.4271 25.953 26.3083 26.0003 26.1667 26.0003H19.3333ZM20.2667 22.2336L17.7667 19.7336L23.4167 14.0836C23.5174 13.9836 23.637 13.9336 23.7755 13.9336C23.9141 13.9336 24.0333 13.9836 24.1333 14.0836L25.9167 15.8669C26.0167 15.9677 26.0667 16.0873 26.0667 16.2258C26.0667 16.3643 26.0167 16.4836 25.9167 16.5836L20.2667 22.2336ZM20.2667 20.8169L24.8667 16.2169L23.7833 15.1336L19.1833 19.7336L20.2667 20.8169ZM15.3833 26.0003C14.8722 26.0003 14.3805 25.9003 13.9083 25.7003C13.4361 25.5003 13.0222 25.2225 12.6667 24.8669L17.0833 20.4669L18.8167 22.2003C18.9722 22.3558 19.0944 22.5336 19.1833 22.7336C19.2722 22.9336 19.3167 23.1447 19.3167 23.3669C19.3167 23.5891 19.2722 23.803 19.1833 24.0086C19.0944 24.2141 18.9722 24.3947 18.8167 24.5503L18.5 24.8669C18.1444 25.2225 17.7305 25.5003 17.2583 25.7003C16.7861 25.9003 16.2944 26.0003 15.7833 26.0003H15.3833ZM15.3833 25.0003H15.7833C16.1603 25.0003 16.5247 24.9277 16.8765 24.7825C17.2283 24.6373 17.5361 24.4321 17.8 24.1669L18.1333 23.8336C18.2667 23.7003 18.325 23.5419 18.3083 23.3586C18.2917 23.1753 18.2167 23.0169 18.0833 22.8836L17.0833 21.8836L14.15 24.8003C14.35 24.8669 14.5528 24.9169 14.7583 24.9503C14.9639 24.9836 15.1722 25.0003 15.3833 25.0003Z" fill="#5954A8"/>
</svg>
