<svg width="40" height="40" viewBox="0 0 40 40" fill="none" xmlns="http://www.w3.org/2000/svg">
<rect width="40" height="40" rx="20" fill="#E3DFFF"/>
<path d="M14 22.6663C14 22.1571 14.1782 21.7242 14.5347 21.3677C14.8912 21.0112 15.3241 20.833 15.8333 20.833H17.1667C18 20.833 18.5694 20.6497 18.875 20.283C19.1806 19.9163 19.3333 19.4886 19.3333 18.9997C19.3333 18.6441 19.2375 18.3608 19.0458 18.1497C18.8542 17.9386 18.6167 17.833 18.3333 17.833C18.0583 17.833 17.8229 17.7351 17.6271 17.5393C17.4313 17.3434 17.3333 17.108 17.3333 16.833V13.833C17.3333 13.6913 17.3815 13.5726 17.4779 13.4768C17.5743 13.3809 17.6938 13.333 17.8362 13.333C17.9788 13.333 18.0972 13.3809 18.1917 13.4768C18.2861 13.5726 18.3333 13.6913 18.3333 13.833V16.833C18.8889 16.833 19.3611 17.0358 19.75 17.4413C20.1389 17.8469 20.3333 18.3663 20.3333 18.9997C20.3333 19.7663 20.0833 20.4302 19.5833 20.9913C19.0833 21.5525 18.2778 21.833 17.1667 21.833H15.8333C15.5972 21.833 15.3993 21.9129 15.2396 22.0726C15.0799 22.2323 15 22.4302 15 22.6663V26.1663C15 26.308 14.9518 26.4268 14.8554 26.5226C14.759 26.6184 14.6396 26.6663 14.4971 26.6663C14.3546 26.6663 14.2361 26.6184 14.1417 26.5226C14.0472 26.4268 14 26.308 14 26.1663V22.6663ZM26 20.583C25.8444 20.4608 25.6855 20.344 25.5233 20.2327C25.361 20.1215 25.1866 20.0271 25 19.9497V19.333C25 18.3552 24.6333 17.5275 23.9 16.8497C23.1667 16.1719 22.3111 15.833 21.3333 15.833C21.0583 15.833 20.8229 15.7351 20.6271 15.5393C20.4313 15.3434 20.3333 15.108 20.3333 14.833V13.833C20.3333 13.6913 20.3815 13.5726 20.4779 13.4768C20.5743 13.3809 20.6938 13.333 20.8363 13.333C20.9788 13.333 21.0972 13.3809 21.1917 13.4768C21.2861 13.5726 21.3333 13.6913 21.3333 13.833V14.833C22.5778 14.833 23.6667 15.2719 24.6 16.1497C25.5333 17.0275 26 18.0886 26 19.333V20.583ZM18 25.333V26.1663C18 26.308 17.9518 26.4268 17.8554 26.5226C17.759 26.6184 17.6396 26.6663 17.4971 26.6663C17.3546 26.6663 17.2361 26.6184 17.1417 26.5226C17.0472 26.4268 17 26.308 17 26.1663V25.333C17 24.8238 17.1782 24.3909 17.5347 24.0344C17.8912 23.6779 18.3241 23.4997 18.8333 23.4997H19.6667C19.6667 23.6775 19.6778 23.8492 19.7 24.0149C19.7222 24.1807 19.7556 24.3422 19.8 24.4997H18.8333C18.5972 24.4997 18.3993 24.5795 18.2396 24.7393C18.0799 24.899 18 25.0969 18 25.333ZM23.5 24.983C23.9222 24.983 24.2778 24.8386 24.5667 24.5497C24.8556 24.2608 25 23.9052 25 23.483C25 23.0608 24.8556 22.7052 24.5667 22.4163C24.2778 22.1275 23.9222 21.983 23.5 21.983C23.0778 21.983 22.7222 22.1275 22.4333 22.4163C22.1444 22.7052 22 23.0608 22 23.483C22 23.9052 22.1444 24.2608 22.4333 24.5497C22.7222 24.8386 23.0778 24.983 23.5 24.983ZM23.5 25.983C22.8 25.983 22.2083 25.7413 21.725 25.258C21.2417 24.7747 21 24.183 21 23.483C21 22.783 21.2417 22.1913 21.725 21.708C22.2083 21.2247 22.8 20.983 23.5 20.983C24.2 20.983 24.7917 21.2247 25.275 21.708C25.7583 22.1913 26 22.783 26 23.483C26 23.7505 25.9611 24.0035 25.8833 24.242C25.8056 24.4804 25.6944 24.6997 25.55 24.8997L26.85 26.1997C26.95 26.2997 27 26.4163 27 26.5497C27 26.683 26.95 26.7997 26.85 26.8997C26.75 26.9997 26.6333 27.0497 26.5 27.0497C26.3667 27.0497 26.25 26.9997 26.15 26.8997L24.85 25.5997C24.6611 25.7219 24.4538 25.8163 24.228 25.883C24.0023 25.9497 23.7596 25.983 23.5 25.983Z" fill="#5954A8"/>
</svg>
