<svg width="40" height="40" viewBox="0 0 40 40" fill="none" xmlns="http://www.w3.org/2000/svg">
<rect width="40" height="40" rx="20" fill="#E3DFFF"/>
<path d="M21 26.6497C19.7556 26.6497 18.7222 26.2136 17.9 25.3413C17.0778 24.4691 16.6667 23.4275 16.6667 22.2163V21.633C15.7222 21.5108 14.9306 21.0902 14.2917 20.3712C13.6528 19.6521 13.3333 18.8061 13.3333 17.833V14.4997C13.3333 14.358 13.3813 14.2393 13.4771 14.1434C13.5729 14.0476 13.6917 13.9997 13.8333 13.9997H15.3333V13.833C15.3333 13.6913 15.3815 13.5726 15.4779 13.4768C15.5743 13.3809 15.6938 13.333 15.8363 13.333C15.9788 13.333 16.0972 13.3809 16.1917 13.4768C16.2861 13.5726 16.3333 13.6913 16.3333 13.833V15.1663C16.3333 15.2997 16.2851 15.4163 16.1888 15.5163C16.0924 15.6163 15.9729 15.6663 15.8304 15.6663C15.6879 15.6663 15.5695 15.6184 15.475 15.5226C15.3806 15.4268 15.3333 15.308 15.3333 15.1663V14.9997H14.3333V17.833C14.3333 18.6219 14.6083 19.2913 15.1583 19.8413C15.7083 20.3913 16.3778 20.6663 17.1667 20.6663C17.9556 20.6663 18.625 20.3913 19.175 19.8413C19.725 19.2913 20 18.6219 20 17.833V14.9997H19V15.1663C19 15.2997 18.9518 15.4163 18.8554 15.5163C18.759 15.6163 18.6396 15.6663 18.4971 15.6663C18.3546 15.6663 18.2361 15.6184 18.1417 15.5226C18.0472 15.4268 18 15.308 18 15.1663V13.833C18 13.6913 18.0482 13.5726 18.1446 13.4768C18.241 13.3809 18.3604 13.333 18.5029 13.333C18.6454 13.333 18.7639 13.3809 18.8583 13.4768C18.9528 13.5726 19 13.6913 19 13.833V13.9997H20.5C20.6417 13.9997 20.7604 14.0476 20.8563 14.1434C20.9521 14.2393 21 14.358 21 14.4997V17.833C21 18.8061 20.6806 19.6521 20.0417 20.3712C19.4028 21.0902 18.6111 21.5108 17.6667 21.633V22.2163C17.6667 23.1608 17.9806 23.9691 18.6083 24.6413C19.2361 25.3136 20.0333 25.6497 21 25.6497C21.9 25.6497 22.6806 25.3155 23.3417 24.6471C24.0028 23.9788 24.3333 23.1672 24.3333 22.2124V20.933C23.9445 20.8219 23.625 20.6052 23.375 20.283C23.125 19.9608 23 19.5886 23 19.1663C23 18.6571 23.1784 18.2242 23.5353 17.8677C23.8922 17.5112 24.3255 17.333 24.8353 17.333C25.3451 17.333 25.7778 17.5112 26.1333 17.8677C26.4889 18.2242 26.6667 18.6571 26.6667 19.1663C26.6667 19.5886 26.5417 19.9608 26.2917 20.283C26.0417 20.6052 25.7222 20.8219 25.3333 20.933V22.2163C25.3333 23.4497 24.9083 24.4969 24.0583 25.358C23.2083 26.2191 22.1889 26.6497 21 26.6497ZM24.8304 19.9997C25.0657 19.9997 25.2639 19.9201 25.425 19.7609C25.5861 19.6018 25.6667 19.4045 25.6667 19.1693C25.6667 18.934 25.5871 18.7358 25.4279 18.5747C25.2688 18.4136 25.0715 18.333 24.8363 18.333C24.601 18.333 24.4028 18.4126 24.2417 18.5718C24.0806 18.7309 24 18.9281 24 19.1634C24 19.3987 24.0796 19.5969 24.2388 19.758C24.3979 19.9191 24.5951 19.9997 24.8304 19.9997Z" fill="#5954A8"/>
</svg>
